<svg width="127" height="36" viewBox="0 0 127 36" fill="none" xmlns="http://www.w3.org/2000/svg">
<path d="M42.4205 22.9092V8.90845H40.1064V22.9092H42.4205Z" fill="#222222"/>
<path d="M43.8367 18.2421C43.8367 21.1025 45.7714 23.1348 48.7113 23.1348C51.6513 23.1348 53.586 21.1025 53.586 18.2421C53.586 15.3817 51.6513 13.3494 48.7113 13.3494C45.7714 13.3494 43.8367 15.3817 43.8367 18.2421ZM46.1697 18.2421C46.1697 16.5673 47.175 15.4005 48.7113 15.4005C50.2477 15.4005 51.253 16.5673 51.253 18.2421C51.253 19.8981 50.2477 21.0836 48.7113 21.0836C47.175 21.0836 46.1697 19.8981 46.1697 18.2421Z" fill="#222222"/>
<path d="M54.3645 18.0539C54.3645 20.7638 56.1285 22.7209 58.765 22.7209C60.1306 22.7209 61.3066 22.1751 61.8946 21.2719V22.8526C61.8946 24.3769 60.9273 25.393 59.315 25.393C57.8735 25.393 56.8872 24.6968 56.7544 23.4736H54.4214C54.7249 25.9011 56.6027 27.4819 59.1823 27.4819C62.2171 27.4819 64.1517 25.5059 64.1517 22.4386V13.6129H62.1033L61.9705 14.8737C61.4015 13.8951 60.2255 13.3118 58.8408 13.3118C56.1664 13.3118 54.3645 15.3253 54.3645 18.0539ZM56.7165 17.9975C56.7165 16.4544 57.7028 15.3253 59.1633 15.3253C60.7566 15.3253 61.8187 16.4732 61.8187 17.9975C61.8187 19.5406 60.7566 20.7261 59.1633 20.7261C57.7218 20.7261 56.7165 19.5594 56.7165 17.9975Z" fill="#222222"/>
<path d="M65.2969 18.2421C65.2969 21.1025 67.2316 23.1348 70.1715 23.1348C73.1115 23.1348 75.0462 21.1025 75.0462 18.2421C75.0462 15.3817 73.1115 13.3494 70.1715 13.3494C67.2316 13.3494 65.2969 15.3817 65.2969 18.2421ZM67.6299 18.2421C67.6299 16.5673 68.6352 15.4005 70.1715 15.4005C71.7079 15.4005 72.7132 16.5673 72.7132 18.2421C72.7132 19.8981 71.7079 21.0836 70.1715 21.0836C68.6352 21.0836 67.6299 19.8981 67.6299 18.2421Z" fill="#222222"/>
<path d="M77.5505 11.7123C78.3092 11.7123 78.9351 11.1101 78.9351 10.3386C78.9351 9.58582 78.3092 8.98364 77.5505 8.98364C76.7728 8.98364 76.1848 9.58582 76.1848 10.3386C76.1848 11.1101 76.7728 11.7123 77.5505 11.7123ZM76.3935 22.9091H78.7075V13.6129H76.3935V22.9091Z" fill="#222222"/>
<path d="M80.7346 27.2184H82.9919V21.6294C83.5799 22.5891 84.8507 23.1537 86.2543 23.1537C89.0236 23.1537 90.6738 21.046 90.6358 18.148C90.5789 15.2312 88.8908 13.3306 86.2354 13.3306C84.8128 13.3306 83.523 13.9516 82.954 15.0242L82.8212 13.6128H80.7346V27.2184ZM83.0868 18.2609C83.0868 16.5861 84.111 15.4194 85.7232 15.4194C87.3355 15.4194 88.3028 16.6049 88.3028 18.2609C88.3028 19.9169 87.3355 21.0837 85.7232 21.0837C84.111 21.0837 83.0868 19.9357 83.0868 18.2609Z" fill="#222222"/>
<path d="M91.2231 20.1239C91.299 21.9681 92.7405 23.1537 94.9787 23.1537C97.179 23.1537 98.6774 21.9869 98.6774 20.1804C98.6774 18.8443 97.8428 17.941 96.3064 17.5647L94.6563 17.1695C93.9545 16.9813 93.4803 16.7367 93.4803 16.1345C93.4803 15.4947 93.9924 15.043 94.827 15.043C95.6995 15.043 96.2685 15.5323 96.2685 16.3415H98.3739C98.298 14.4973 96.9134 13.3306 94.8839 13.3306C92.8733 13.3306 91.3749 14.4973 91.3749 16.2662C91.3749 17.4706 92.0767 18.4679 93.8786 18.9384L95.5098 19.3524C96.1168 19.5217 96.4961 19.804 96.4961 20.3309C96.4961 21.0648 95.7943 21.4036 94.9408 21.4036C93.9165 21.4036 93.3285 20.9331 93.3285 20.1239H91.2231Z" fill="#222222"/>
<path d="M103.478 23.1536C104.749 23.1536 105.963 22.5702 106.513 21.7046L106.664 22.909H108.827V13.6128H106.513V18.4867C106.513 20.1615 105.868 21.1024 104.35 21.1024C103.174 21.1024 102.359 20.5379 102.359 18.6184V13.6128H100.045V19.4276C100.045 21.6482 101.259 23.1536 103.478 23.1536Z" fill="#222222"/>
<path d="M113.182 22.909V17.5647C113.182 16.0592 114.074 15.3441 115.174 15.3441C116.274 15.3441 116.995 16.0404 116.995 17.3577V22.909H119.252V17.5835C119.252 16.0592 120.125 15.3441 121.225 15.3441C122.344 15.3441 123.065 16.0404 123.065 17.3577V22.909H125.303V16.8307C125.303 14.6855 124.108 13.3306 121.832 13.3306C120.409 13.3306 119.29 14.008 118.835 15.0995C118.323 14.008 117.298 13.3306 115.743 13.3306C114.643 13.3306 113.657 13.8387 113.107 14.6667L112.993 13.6128H110.868V22.909H113.182Z" fill="#222222"/>
<path d="M107.635 31.217C107.98 31.217 108.279 30.929 108.279 30.587C108.279 30.236 107.98 29.948 107.635 29.948C107.281 29.948 106.982 30.236 106.982 30.587C106.982 30.929 107.281 31.217 107.635 31.217Z" fill="#222222"/>
<path d="M108.945 28.895C108.945 30.272 109.797 31.199 111.04 31.199C112.111 31.199 112.927 30.56 113.099 29.606H112.283C112.129 30.137 111.657 30.452 111.095 30.452C110.296 30.452 109.788 29.84 109.788 28.886C109.788 27.914 110.323 27.32 111.113 27.32C111.657 27.32 112.129 27.608 112.274 28.175H113.09C112.945 27.212 112.183 26.564 111.122 26.564C109.834 26.564 108.945 27.509 108.945 28.895Z" fill="#222222"/>
<path d="M113.421 28.886C113.421 30.209 114.328 31.199 115.689 31.199C117.049 31.199 117.957 30.209 117.957 28.886C117.957 27.563 117.049 26.573 115.689 26.573C114.328 26.573 113.421 27.563 113.421 28.886ZM114.283 28.886C114.283 27.986 114.836 27.329 115.689 27.329C116.541 27.329 117.095 27.986 117.095 28.886C117.095 29.786 116.541 30.443 115.689 30.443C114.836 30.443 114.283 29.786 114.283 28.886Z" fill="#222222"/>
<path d="M119.538 31.1V28.454C119.538 27.761 119.973 27.311 120.608 27.311C121.216 27.311 121.597 27.698 121.597 28.391V31.1H122.431V28.463C122.431 27.761 122.858 27.311 123.502 27.311C124.1 27.311 124.481 27.698 124.481 28.391V31.1H125.307V28.211C125.307 27.194 124.708 26.573 123.692 26.573C123.003 26.573 122.468 26.906 122.25 27.446C122.023 26.906 121.524 26.573 120.798 26.573C120.245 26.573 119.755 26.825 119.51 27.257L119.447 26.699H118.685V31.1H119.538Z" fill="#222222"/>
<path fill-rule="evenodd" clip-rule="evenodd" d="M1.64941 18.3563L1.65101 18.1923L1.65429 18.0283L1.65927 17.8642L1.66594 17.7002L1.67432 17.5361L1.68439 17.3721L1.69616 17.2081L1.70963 17.0441L1.72481 16.8803L1.74168 16.7164L1.76025 16.5527L1.78051 16.3891L1.80248 16.2256L1.82615 16.0623L1.85151 15.8992L1.87857 15.7363L1.90732 15.5735L1.93776 15.411L1.9699 15.2486L2.00373 15.0866L2.03925 14.9247L2.07644 14.7632L2.11533 14.602L2.15589 14.4411L2.19814 14.2806L2.24205 14.1203L2.28765 13.9604L2.33491 13.801L2.38384 13.6419L2.43442 13.4833L2.48667 13.325L2.54058 13.1672L2.59614 13.0099L2.65334 12.853L2.71219 12.6967L2.77267 12.5408L2.83479 12.3855L2.89854 12.2307L2.96391 12.0766L3.0309 11.9229L3.09951 11.7698L3.16972 11.6174L3.24153 11.4656L3.31494 11.3144L3.38995 11.1639L3.46654 11.0141L3.5447 10.8649L3.62444 10.7164L3.70573 10.5687L3.78859 10.4217L3.873 10.2754L3.95895 10.1299L4.04644 9.9852L4.13546 9.84128L4.226 9.69818L4.31805 9.5559L4.41161 9.41452L4.50667 9.27387L4.60321 9.13421L4.70124 8.99537L4.80074 8.85742L4.90169 8.72046L5.00411 8.58431L5.10797 8.44923L5.21327 8.31505L5.31999 8.1818L5.42813 8.04958L5.53768 7.91836L5.64863 7.78815L5.76096 7.65897L5.87468 7.53084L5.98975 7.40376L6.10619 7.27776L6.22398 7.15284L6.34309 7.02901L6.46354 6.9063L6.58529 6.78471L6.70835 6.66426L6.8327 6.54496L6.95834 6.42682L7.08524 6.30987L7.21339 6.1941L7.34279 6.07954L7.47343 5.96619L7.60529 5.85405L7.73835 5.74317L7.8726 5.63355L8.00805 5.52518L8.14466 5.41809L8.28244 5.31228L8.42132 5.20778L8.56143 5.10458L8.70261 5.00272L8.84487 4.90219L8.9882 4.803L9.13268 4.70517L9.27816 4.6087L9.4247 4.51362L9.57232 4.41992L9.72101 4.32763L9.8706 4.23675L10.0213 4.14728L10.1728 4.05925L10.3254 3.97266L10.479 3.88752L10.6334 3.80385L10.7888 3.72164L10.9451 3.64091L11.1023 3.56167L11.2603 3.48394L11.4193 3.40771L11.5791 3.33299L11.7396 3.2598L11.9011 3.18816L12.0633 3.11805L12.2264 3.04949L12.3902 2.9825L12.5547 2.91707L12.7199 2.85321L12.8859 2.79095L13.0526 2.73026L13.22 2.67119L13.3881 2.61371L13.5568 2.55785L13.7261 2.50361L13.8961 2.45099L14.0667 2.40001L14.2379 2.35067L14.4096 2.30298L14.582 2.25693L14.7548 2.21255L14.9282 2.16983L15.102 2.12879L15.2764 2.08941L15.4513 2.05173L15.6265 2.01572L15.8022 1.9814L15.9784 1.94879L16.155 1.91787L16.3319 1.88866L16.5092 1.86116L16.6869 1.83537L16.8648 1.81131L17.0431 1.78897L17.2218 1.76835L17.4006 1.74945L17.5798 1.7323L17.7591 1.71688L17.9387 1.70319L18.1185 1.69125L19.0854 1.63647L19.1405 6.25811L19.1721 6.25775L19.3056 6.25757L19.4391 6.25868L19.5727 6.26109L19.7063 6.26481L19.8399 6.26984L19.9736 6.27615L20.1073 6.28379L20.241 6.29273L20.3746 6.30297L20.5083 6.31452L20.6418 6.32738L20.7753 6.34155L20.9086 6.35702L21.042 6.3738L21.1752 6.39189L21.3083 6.41129L21.4412 6.43199L21.5741 6.454L21.7067 6.47731L21.8392 6.50193L21.9715 6.52785L22.1035 6.55508L22.2355 6.5836L22.3671 6.61343L22.4984 6.64454L22.6296 6.67696L22.7605 6.71067L22.8911 6.74568L23.0214 6.78197L23.1514 6.81955L23.2811 6.85841L23.4104 6.89856L23.5393 6.93999L23.668 6.9827L23.7962 7.02668L23.9241 7.07193L24.0516 7.11845L24.1786 7.16624L24.3051 7.21528L24.4313 7.26559L24.557 7.31715L24.6822 7.36996L24.807 7.42401L24.9312 7.47932L25.0549 7.53585L25.1781 7.59362L25.3009 7.65261L25.423 7.71284L25.5445 7.77429L25.6655 7.83694L25.7859 7.90081L25.9058 7.96589L26.0249 8.03216L26.1435 8.09963L26.2614 8.16828L26.3787 8.23814L26.4953 8.30916L26.6113 8.38132L26.7265 8.45471L26.841 8.52917L26.9548 8.60485L27.068 8.68167L27.1803 8.75957L27.292 8.83868L27.4028 8.91887L27.5128 9.00019L27.6222 9.08267L27.7306 9.1662L27.8383 9.25088L27.9451 9.33655L28.0511 9.42336L28.1563 9.51131L28.2606 9.60025L28.3641 9.69025L28.4667 9.78131L28.5683 9.87344L28.6691 9.96663L28.7689 10.0608L28.8679 10.156L28.9659 10.2522L29.0629 10.3494L29.159 10.4476L29.2542 10.5468L29.3483 10.6469L29.4415 10.7481L29.5336 10.8502L29.6247 10.9532L29.7148 11.0572L29.8039 11.1621L29.892 11.2679L29.979 11.3746L30.0649 11.4822L30.1498 11.5907L30.2336 11.7001L30.3163 11.8104L30.3978 11.9215L30.4783 12.0335L30.5577 12.1463L30.6359 12.2599L30.713 12.3744L30.789 12.4897L30.8638 12.6058L30.9373 12.7226L31.0098 12.8402L31.0811 12.9586L31.1512 13.0777L31.22 13.1975L31.2878 13.3181L31.3542 13.4395L31.4194 13.5615L31.4834 13.6842L31.5462 13.8076L31.6077 13.9316L31.668 14.0564L31.7271 14.1817L31.7848 14.3077L31.8413 14.4344L31.8964 14.5616L31.9503 14.6895L32.0029 14.8179L32.0542 14.9469L32.1042 15.0764L32.1528 15.2066L32.2002 15.3372L32.2462 15.4684L32.2909 15.6001L32.3343 15.7323L32.3762 15.8649L32.4169 15.998L32.4562 16.1316L32.4941 16.2656L32.5306 16.4002L32.5658 16.5351L32.5996 16.6703L32.6321 16.8061L32.6631 16.9421L32.6927 17.0786L32.721 17.2153L32.7478 17.3525L32.7732 17.49L32.7972 17.6278L32.8198 17.7658L32.841 17.9041L32.8608 18.0428L32.8791 18.1817L32.896 18.3208L32.9115 18.4602L32.9256 18.5998L32.9382 18.7395L32.9494 18.8795L32.9591 19.0196L32.9674 19.16L32.9742 19.3004L32.9797 19.441L32.9835 19.5817L32.9861 19.7225L32.9871 19.8634L32.9867 20.0043L32.9848 20.1454L32.9814 20.2865L32.9766 20.4276L32.9703 20.5687L32.9627 20.7098L32.9534 20.851L32.9428 20.9921L32.9307 21.1332L32.9171 21.2742L32.9021 21.4152L32.8855 21.556L32.8675 21.6968L32.8481 21.8375L32.8272 21.978L32.8048 22.1184L32.781 22.2587L32.7557 22.3987L32.729 22.5386L32.7008 22.6784L32.6711 22.8179L32.6399 22.9571L32.6073 23.0962L32.5733 23.235L32.5378 23.3735L32.5008 23.5117L32.4625 23.6497L32.4227 23.7873L32.3814 23.9246L32.3387 24.0616L32.2945 24.1982L32.249 24.3345L32.202 24.4703L32.1535 24.6058L32.1037 24.7409L32.0524 24.8755L31.9997 25.0096L31.9456 25.1434L31.8901 25.2767L31.8332 25.4095L31.7749 25.5419L31.7152 25.6736L31.6541 25.8049L31.5916 25.9357L31.5277 26.0658L31.4624 26.1955L31.3959 26.3245L31.3278 26.4531L31.2586 26.5809L31.1878 26.7082L31.1158 26.8348L31.0424 26.9608L30.9677 27.0861L30.8917 27.2107L30.8143 27.3347L30.7355 27.458L30.6556 27.5805L30.5743 27.7024L30.4917 27.8234L30.4078 27.9438L30.3226 28.0634L30.2362 28.1822L30.1485 28.3003L30.0595 28.4175L29.9693 28.534L29.8778 28.6495L29.7851 28.7643L29.6912 28.8782L29.596 28.9912L29.4996 29.1033L29.402 29.2146L29.3033 29.325L29.2033 29.4344L29.1022 29.543L28.9999 29.6506L28.8964 29.7573L28.7919 29.8629L28.6861 29.9677L28.5792 30.0714L28.4712 30.1742L28.3621 30.2759L28.252 30.3767L28.1406 30.4764L28.0282 30.575L27.9148 30.6726L27.8003 30.7692L27.6847 30.8647L27.5681 30.959L27.4505 31.0524L27.3319 31.1446L27.2122 31.2357L27.0916 31.3256L26.9699 31.4144L26.8474 31.5022L26.7238 31.5886L26.5992 31.6741L26.4738 31.7582L26.3475 31.8412L26.2201 31.923L26.092 32.0037L25.9629 32.0831L25.8329 32.1613L25.7021 32.2382L25.5704 32.314L25.4379 32.3884L25.3045 32.4616L25.1704 32.5336L25.0354 32.6042L24.8997 32.6735L24.7631 32.7417L24.6258 32.8085L24.4877 32.8739L24.3489 32.9381L24.2094 33.001L24.0692 33.0625L23.9283 33.1226L23.7867 33.1815L23.6444 33.239L23.5015 33.2951L23.3579 33.3499L23.2137 33.4033L23.0689 33.4552L22.9234 33.5059L22.7774 33.5551L22.6309 33.6029L22.4837 33.6493L22.336 33.6943L22.1878 33.7379L22.0391 33.7801L21.8898 33.8208L21.7402 33.8602L21.5899 33.898L21.4393 33.9344L21.2882 33.9694L21.1367 34.0028L20.9848 34.0349L20.8324 34.0655L20.6797 34.0946L20.5266 34.1223L20.3733 34.1484L20.2195 34.1731L20.0654 34.1963L19.9109 34.218L19.7563 34.2382L19.6014 34.257L19.4461 34.2742L19.2906 34.2899L19.1349 34.3041L18.9791 34.3168L18.8229 34.328L18.6667 34.3376L18.5101 34.3458L18.3535 34.3525L18.1969 34.3575L18.0399 34.3611L17.883 34.3632L17.7259 34.3637L17.5688 34.3628L17.4116 34.3602L17.2543 34.3562L17.0971 34.3506L16.9398 34.3435L16.7825 34.3349L16.6254 34.3246L16.4681 34.3129L16.311 34.2997L16.1539 34.2849L15.9969 34.2686L15.84 34.2508L15.6832 34.2314L15.5266 34.2104L15.3701 34.1879L15.2138 34.1639L15.0576 34.1384L14.9017 34.1114L14.7459 34.0828L14.5905 34.0527L14.4352 34.0211L14.2802 33.9879L14.1254 33.9532L13.9711 33.917L13.8169 33.8793L13.6631 33.84L13.5096 33.7993L13.3566 33.7571L13.2039 33.7133L13.0515 33.668L12.8996 33.6212L12.7481 33.573L12.597 33.5232L12.4463 33.4719L12.2961 33.4192L12.1465 33.365L11.9973 33.3093L11.8486 33.2521L11.7005 33.1934L11.5529 33.1333L11.4058 33.0717L11.2594 33.0087L11.1135 32.9442L10.9682 32.8783L10.8235 32.8108L10.6795 32.742L10.5362 32.6717L10.3934 32.6001L10.2514 32.527L10.1102 32.4525L9.96948 32.3766L9.82962 32.2993L9.69049 32.2206L9.55211 32.1405L9.41447 32.059L9.27766 31.9762L9.14159 31.8919L9.00634 31.8064L8.872 31.7195L8.73841 31.6313L8.60572 31.5416L8.47393 31.4507L8.34297 31.3585L8.21293 31.2649L8.0838 31.1701L7.9556 31.0738L7.82834 30.9764L7.70204 30.8777L7.57669 30.7777L7.45234 30.6764L7.32898 30.5739L7.20662 30.4702L7.08529 30.3652L6.96499 30.2589L6.84574 30.1515L6.72756 30.0429L6.61044 29.933L6.49441 29.8221L6.37949 29.7098L6.26567 29.5965L6.15297 29.4821L6.04142 29.3664L5.93101 29.2496L5.82177 29.1317L5.7137 29.0127L5.60682 28.8926L5.50113 28.7714L5.39665 28.6491L5.29339 28.5258L5.19137 28.4013L5.09059 28.2759L4.99106 28.1494L4.8928 28.0219L4.79582 27.8934L4.70013 27.7639L4.60573 27.6334L4.51265 27.5019L4.42088 27.3695L4.33045 27.2362L4.24136 27.1018L4.15362 26.9666L4.06724 26.8305L3.98223 26.6935L3.89861 26.5556L3.81637 26.4167L3.73555 26.2772L3.65612 26.1367L3.57812 25.9954L3.50154 25.8532L3.4264 25.7102L3.35272 25.5666L3.28047 25.4221L3.20971 25.2769L3.14041 25.1308L3.07259 24.9841L3.00626 24.8366L2.94142 24.6885L2.8781 24.5396L2.81629 24.3901L2.75599 24.2399L2.69722 24.089L2.64 23.9376L2.58431 23.7855L2.53017 23.6328L2.47758 23.4796L2.42656 23.3257L2.37711 23.1713L2.32923 23.0163L2.28294 22.8608L2.23823 22.7048L2.19512 22.5483L2.1536 22.3914L2.1137 22.234L2.0754 22.076L2.03873 21.9177L2.00367 21.7589L1.97024 21.5998L1.93844 21.4402L1.90827 21.2804L1.87975 21.1201L1.85287 20.9595L1.82763 20.7985L1.80406 20.6373L1.78214 20.4757L1.76188 20.3138L1.74329 20.1518L1.72636 19.9894L1.7111 19.8269L1.69752 19.6641L1.68561 19.5011L1.67538 19.338L1.66684 19.1747L1.65998 19.0112L1.6548 18.8477L1.65131 18.6839L1.64952 18.5201L1.64941 18.3563ZM17.6301 6.35492L17.5925 3.20476L17.5567 3.20818L17.3928 3.22549L17.2293 3.24437L17.0658 3.26486L16.903 3.28687L16.7404 3.31048L16.5779 3.33567L16.416 3.36241L16.2542 3.39075L16.0932 3.42055L15.932 3.45203L15.7719 3.48492L15.6116 3.51947L15.4521 3.55549L15.2928 3.59311L15.1342 3.63217L14.976 3.6728L14.8182 3.71494L14.661 3.75861L14.5045 3.80374L14.3482 3.85043L14.1927 3.89856L14.0377 3.94822L13.8835 3.99926L13.7295 4.05191L13.5764 4.10597L13.424 4.16146L13.272 4.21846L13.1208 4.27685L12.9705 4.33665L12.8205 4.39799L12.6714 4.46072L12.5229 4.52489L12.3753 4.5904L12.2284 4.65733L12.0824 4.72562L11.9368 4.79541L11.7923 4.86648L11.6486 4.93893L11.5057 5.01274L11.3636 5.08793L11.2225 5.16439L11.082 5.24228L10.9424 5.32151L10.804 5.40187L10.666 5.4838L10.5294 5.56682L10.3936 5.65114L10.2585 5.73683L10.1245 5.82378L9.9915 5.912L9.85972 6.00125L9.72843 6.09209L9.59846 6.1839L9.46948 6.27697L9.34141 6.37133L9.21449 6.4668L9.08873 6.56342L8.96371 6.6614L8.84009 6.76031L8.71738 6.86052L8.59582 6.96182L8.47533 7.06429L8.35609 7.16775L8.23773 7.27252L8.12072 7.37822L8.00472 7.48514L7.89005 7.59296L7.77644 7.70195L7.66408 7.81192L7.55288 7.92298L7.44275 8.03519L7.33407 8.14816L7.2266 8.26211L7.1201 8.37739L7.01507 8.49341L6.91132 8.61025L6.80864 8.72831L6.70745 8.84711L6.60739 8.96697L6.50867 9.08766L6.41124 9.20932L6.31508 9.3318L6.22034 9.4551L6.12684 9.5793L6.03463 9.70448L5.94389 9.83024L5.85438 9.95706L5.76628 10.0845L5.67955 10.2128L5.59412 10.3419L5.51014 10.4718L5.42753 10.6023L5.34631 10.7336L5.26654 10.8656L5.18808 10.9984L5.11103 11.1319L5.0355 11.2659L4.96132 11.4007L4.88856 11.5361L4.81727 11.6722L4.74739 11.8089L4.67901 11.9461L4.61205 12.084L4.54657 12.2224L4.48252 12.3615L4.41999 12.501L4.35887 12.6412L4.29924 12.7818L4.24115 12.9229L4.1845 13.0645L4.12934 13.2066L4.07569 13.3492L4.02353 13.4922L3.97291 13.6355L3.92375 13.7794L3.87612 13.9237L3.83001 14.0683L3.78543 14.2132L3.74233 14.3587L3.70079 14.5043L3.66077 14.6504L3.62227 14.7967L3.5853 14.9434L3.54987 15.0902L3.51598 15.2374L3.48362 15.3849L3.4528 15.5326L3.42352 15.6804L3.39578 15.8285L3.36959 15.9767L3.34494 16.1252L3.32184 16.2738L3.30028 16.4226L3.28028 16.5715L3.26181 16.7205L3.2449 16.8695L3.22953 17.0188L3.21572 17.168L3.20345 17.3173L3.19273 17.4667L3.18356 17.6161L3.17593 17.7654L3.16985 17.9148L3.16532 18.0641L3.16233 18.2134L3.16088 18.3626L3.16098 18.5119L3.16261 18.661L3.16579 18.81L3.17049 18.9589L3.17674 19.1077L3.18452 19.2563L3.19382 19.4048L3.20466 19.5531L3.21702 19.7012L3.23091 19.8491L3.24631 19.9969L3.26323 20.1443L3.28166 20.2916L3.3016 20.4385L3.32305 20.5852L3.34601 20.7317L3.37045 20.8777L3.39641 21.0235L3.42384 21.169L3.45276 21.3141L3.48317 21.4589L3.51505 21.6032L3.54841 21.7472L3.58324 21.8908L3.61952 22.034L3.65728 22.1768L3.69646 22.319L3.73712 22.4608L3.77921 22.6022L3.82274 22.7431L3.8677 22.8835L3.91407 23.0233L3.96187 23.1627L4.01109 23.3014L4.0617 23.4397L4.11371 23.5773L4.16714 23.7145L4.22192 23.8509L4.27809 23.9868L4.33565 24.1221L4.39455 24.2567L4.45483 24.3907L4.51645 24.524L4.57941 24.6567L4.6437 24.7886L4.70933 24.9199L4.77627 25.0505L4.84453 25.1803L4.91408 25.3094L4.98494 25.4378L5.05707 25.5653L5.13048 25.6922L5.20517 25.8182L5.28112 25.9434L5.35828 26.0679L5.43674 26.1915L5.5164 26.3142L5.5973 26.4362L5.67941 26.5573L5.76271 26.6775L5.84721 26.7969L5.93292 26.9153L6.01977 27.0329L6.10782 27.1496L6.19699 27.2653L6.28735 27.3801L6.37879 27.4939L6.47138 27.6068L6.56511 27.7188L6.65989 27.8297L6.7558 27.9397L6.85278 28.0487L6.95086 28.1567L7.04997 28.2636L7.15011 28.3696L7.25131 28.4745L7.35353 28.5784L7.45679 28.6812L7.56103 28.7829L7.66629 28.8836L7.7725 28.9832L7.87968 29.0818L7.98785 29.1793L8.09695 29.2756L8.20692 29.3707L8.3179 29.4648L8.42981 29.5577L8.54246 29.6495L8.65619 29.7403L8.77065 29.8297L8.88602 29.9181L9.00222 30.0053L9.11932 30.0913L9.23717 30.176L9.35584 30.2597L9.47525 30.3421L9.59557 30.4233L9.71655 30.5032L9.83844 30.582L9.9609 30.6596L10.0842 30.7358L10.2082 30.811L10.3328 30.8848L10.4583 30.9573L10.5843 31.0286L10.711 31.0986L10.8384 31.1674L10.9664 31.2349L11.095 31.301L11.2242 31.366L11.3541 31.4296L11.4846 31.4919L11.6155 31.553L11.7471 31.6127L11.8791 31.671L12.0118 31.7281L12.1449 31.7839L12.2786 31.8383L12.4127 31.8914L12.5473 31.9432L12.6823 31.9936L12.8177 32.0427L12.9537 32.0904L13.0901 32.1368L13.2268 32.1819L13.3639 32.2256L13.5013 32.2679L13.6393 32.3089L13.7774 32.3485L13.916 32.3867L14.0548 32.4236L14.194 32.4591L14.3334 32.4932L14.473 32.5259L14.6131 32.5574L14.7533 32.5873L14.8936 32.6159L15.0343 32.6432L15.1752 32.669L15.3162 32.6935L15.4574 32.7166L15.5987 32.7383L15.7402 32.7586L15.8819 32.7775L16.0236 32.795L16.1654 32.8112L16.3074 32.8259L16.4494 32.8393L16.5915 32.8513L16.7336 32.8619L16.8756 32.8711L17.0178 32.8789L17.1599 32.8853L17.302 32.8904L17.4441 32.894L17.5862 32.8963L17.7281 32.8972L17.87 32.8967L18.0119 32.8948L18.1536 32.8916L18.2952 32.8869L18.4367 32.881L18.578 32.8736L18.7191 32.8648L18.8601 32.8548L19.001 32.8433L19.1416 32.8305L19.282 32.8162L19.4222 32.8007L19.562 32.7838L19.7017 32.7656L19.8411 32.746L19.9802 32.725L20.119 32.7028L20.2576 32.6791L20.3958 32.6542L20.5336 32.6279L20.671 32.6003L20.8082 32.5714L20.9449 32.5412L21.0812 32.5096L21.2172 32.4767L21.3527 32.4426L21.4878 32.4071L21.6224 32.3703L21.7566 32.3323L21.8903 32.2929L22.0236 32.2523L22.1563 32.2105L22.2886 32.1673L22.4203 32.123L22.5513 32.0773L22.682 32.0304L22.8121 31.9823L22.9415 31.9328L23.0704 31.8823L23.1987 31.8305L23.3263 31.7774L23.4534 31.7231L23.5798 31.6677L23.7055 31.6111L23.8307 31.5532L23.9551 31.4941L24.0789 31.434L24.202 31.3726L24.3243 31.31L24.4459 31.2464L24.5669 31.1815L24.687 31.1156L24.8064 31.0485L24.925 30.9803L25.043 30.9109L25.1599 30.8406L25.2764 30.769L25.3917 30.6964L25.5064 30.6227L25.6203 30.5479L25.7333 30.472L25.8453 30.3952L25.9566 30.3173L26.067 30.2383L26.1765 30.1584L26.2852 30.0773L26.3928 29.9954L26.4998 29.9123L26.6056 29.8283L26.7105 29.7434L26.8146 29.6574L26.9177 29.5704L27.0197 29.4826L27.1209 29.3938L27.221 29.3041L27.3202 29.2135L27.4185 29.1219L27.5155 29.0295L27.6118 28.9361L27.7069 28.8418L27.801 28.7468L27.8941 28.6508L27.9861 28.5541L28.077 28.4566L28.167 28.3579L28.2557 28.2587L28.3436 28.1586L28.4302 28.0578L28.5158 27.9561L28.6002 27.8537L28.6835 27.7505L28.7658 27.6466L28.8469 27.542L28.927 27.4365L29.0057 27.3305L29.0835 27.2236L29.1602 27.116L29.2354 27.008L29.3097 26.8991L29.3827 26.7898L29.4546 26.6795L29.5254 26.5687L29.5949 26.4574L29.6631 26.3455L29.7304 26.2327L29.7962 26.1197L29.8609 26.0059L29.9245 25.8915L29.9867 25.7768L30.0478 25.6612L30.1076 25.5452L30.1661 25.4291L30.2235 25.312L30.2797 25.1945L30.3345 25.0767L30.3881 24.9584L30.4405 24.8396L30.4915 24.7205L30.5414 24.6007L30.59 24.4806L30.6372 24.3604L30.6833 24.2393L30.728 24.1182L30.7715 23.9966L30.8137 23.8747L30.8546 23.7523L30.8941 23.63L30.9326 23.5068L30.9695 23.3837L31.0052 23.2603L31.0397 23.1367L31.0728 23.0125L31.1046 22.8884L31.1352 22.7639L31.1644 22.6391L31.1923 22.5143L31.219 22.3891L31.2442 22.264L31.2682 22.1383L31.2909 22.013L31.3122 21.8871L31.3323 21.7612L31.351 21.6353L31.3685 21.5091L31.3846 21.3831L31.3994 21.2566L31.4129 21.1305L31.4251 21.004L31.4359 20.8777L31.4454 20.7511L31.4537 20.6249L31.4606 20.4983L31.4662 20.3717L31.4705 20.2454L31.4735 20.1193L31.4752 19.9927L31.4756 19.8664L31.4747 19.7402L31.4725 19.6141L31.4689 19.4881L31.4641 19.3625L31.458 19.2364L31.4505 19.1109L31.4418 18.9854L31.4318 18.8603L31.4205 18.7349L31.408 18.6101L31.3941 18.4853L31.379 18.3608L31.3626 18.2365L31.3449 18.1125L31.3258 17.9885L31.3056 17.865L31.2842 17.742L31.2614 17.6188L31.2374 17.4961L31.2121 17.3739L31.1856 17.2516L31.1579 17.1301L31.1288 17.0086L31.0987 16.8878L31.0672 16.7669L31.0345 16.6468L31.0006 16.527L30.9655 16.4074L30.9292 16.2885L30.8917 16.17L30.8528 16.0516L30.813 15.9341L30.7718 15.8167L30.7295 15.7L30.686 15.5836L30.6414 15.468L30.5954 15.3526L30.5484 15.2378L30.5004 15.1237L30.4511 15.0101L30.4005 14.8967L30.3491 14.7844L30.2962 14.6722L30.2425 14.561L30.1876 14.4502L30.1314 14.3398L30.0743 14.2303L30.016 14.1214L29.9566 14.0129L29.8964 13.9054L29.8348 13.7983L29.7722 13.692L29.7085 13.5862L29.644 13.4815L29.5781 13.377L29.5115 13.2735L29.4436 13.1705L29.3748 13.0684L29.3051 12.9671L29.2342 12.8663L29.1624 12.7664L29.0897 12.6673L29.0159 12.569L28.9411 12.4713L28.8654 12.3746L28.7888 12.2786L28.7112 12.1834L28.6327 12.0891L28.5532 11.9955L28.4728 11.9028L28.3916 11.8109L28.3095 11.7199L28.2265 11.6297L28.1424 11.5403L28.0578 11.4521L27.9719 11.3644L27.8856 11.2779L27.7982 11.1921L27.7101 11.1073L27.6209 11.0232L27.5314 10.9404L27.4406 10.8583L27.3492 10.7771L27.2572 10.697L27.1644 10.6178L27.0704 10.5394L26.976 10.462L26.8809 10.3857L26.785 10.3103L26.6884 10.2359L26.5912 10.1627L26.493 10.09L26.3945 10.0187L26.2951 9.94838L26.195 9.87892L26.0944 9.8106L25.9928 9.7431L25.8912 9.67699L25.7885 9.61162L25.6854 9.54739L25.5815 9.48415L25.4772 9.42197L25.3723 9.36093L25.267 9.30104L25.1607 9.24188L25.0544 9.18412L24.9472 9.12726L24.8395 9.07154L24.7315 9.01697L24.6228 8.96337L24.5137 8.91085L24.4042 8.85955L24.2941 8.80923L24.1838 8.76014L24.0728 8.71203L23.958 8.66359L23.8499 8.61933L23.7375 8.57449L23.6253 8.53105L23.5121 8.48842L23.399 8.44718L23.2853 8.40693L23.1715 8.3679L23.0571 8.32986L22.9426 8.29312L22.8277 8.25745L22.7124 8.22292L22.5972 8.18962L22.4814 8.15735L22.3652 8.12619L22.2491 8.09631L22.1329 8.06756L22.0158 8.03986L21.8992 8.01344L21.782 7.98808L21.6649 7.96394L21.5473 7.9409L21.4298 7.91907L21.3121 7.89837L21.1944 7.87887L21.0761 7.86047L20.9582 7.84328L20.84 7.82722L20.7217 7.81232L20.6033 7.79859L20.485 7.78604L20.3666 7.77464L20.2481 7.76439L20.1295 7.7553L20.0108 7.74737L19.8925 7.74061L19.774 7.73501L19.6552 7.73055L19.537 7.72726L19.4186 7.72511L19.3003 7.72413L19.1818 7.7243L19.158 7.72457L19.1954 10.8518L19.2626 10.8515L19.3491 10.852L19.4356 10.8533L19.5222 10.8555L19.6089 10.8585L19.6955 10.8625L19.7822 10.8672L19.869 10.8728L19.9557 10.8792L20.0425 10.8865L20.1292 10.8947L20.2159 10.9037L20.3027 10.9136L20.3893 10.9243L20.4759 10.9358L20.5625 10.9484L20.649 10.9616L20.7355 10.9758L20.8219 10.9908L20.9081 11.0067L20.9943 11.0235L21.0804 11.0411L21.1664 11.0595L21.2523 11.0788L21.338 11.099L21.4236 11.12L21.5089 11.1419L21.5942 11.1646L21.6793 11.1882L21.7642 11.2126L21.849 11.2379L21.9335 11.264L22.0178 11.291L22.1019 11.3188L22.1859 11.3476L22.2695 11.3771L22.353 11.4074L22.4361 11.4386L22.5191 11.4707L22.6017 11.5036L22.6841 11.5373L22.7661 11.5719L22.8479 11.6072L22.9294 11.6435L23.0106 11.6805L23.0914 11.7184L23.172 11.7571L23.2521 11.7966L23.3319 11.8369L23.4114 11.8781L23.4905 11.92L23.5693 11.9627L23.6476 12.0063L23.7256 12.0506L23.8032 12.0958L23.8804 12.1418L23.957 12.1885L24.0333 12.236L24.1092 12.2844L24.1847 12.3335L24.2596 12.3833L24.3342 12.4339L24.4082 12.4854L24.4818 12.5375L24.5549 12.5905L24.6274 12.6442L24.6996 12.6986L24.7711 12.7538L24.8422 12.8098L24.9127 12.8664L24.9827 12.9239L25.0521 12.982L25.1211 13.0409L25.1894 13.1004L25.2572 13.1607L25.3244 13.2218L25.391 13.2835L25.457 13.3459L25.5224 13.409L25.5873 13.4728L25.6515 13.5373L25.7151 13.6025L25.7781 13.6682L25.8404 13.7348L25.902 13.8019L25.9631 13.8698L26.0234 13.9382L26.0831 14.0073L26.1422 14.077L26.2006 14.1474L26.2582 14.2184L26.3152 14.29L26.3714 14.3622L26.427 14.435L26.4819 14.5085L26.536 14.5825L26.5894 14.6571L26.642 14.7323L26.694 14.8081L26.7451 14.8844L26.7955 14.9612L26.8451 15.0387L26.894 15.1167L26.9422 15.1951L26.9895 15.2742L27.0361 15.3538L27.0818 15.4338L27.1268 15.5144L27.1709 15.5955L27.2143 15.677L27.2568 15.7591L27.2985 15.8417L27.3394 15.9247L27.3794 16.0082L27.4186 16.092L27.457 16.1765L27.4945 16.2612L27.5312 16.3465L27.567 16.4321L27.6019 16.5182L27.636 16.6047L27.6692 16.6915L27.7015 16.7788L27.7329 16.8664L27.7635 16.9545L27.7932 17.0428L27.8219 17.1316L27.8498 17.2206L27.8767 17.3101L27.9028 17.3998L27.9279 17.4899L27.9521 17.5803L27.9754 17.671L27.9978 17.7619L28.0192 17.8532L28.0398 17.9447L28.0593 18.0365L28.0779 18.1286L28.0956 18.2209L28.1123 18.3135L28.1282 18.4063L28.143 18.4992L28.1569 18.5925L28.1698 18.6858L28.1818 18.7794L28.1928 18.8733L28.2028 18.9673L28.2119 19.0614L28.22 19.1557L28.2271 19.2501L28.2333 19.3447L28.2384 19.4394L28.2426 19.5342L28.2459 19.6292L28.2481 19.7242L28.2493 19.8193L28.2496 19.9146L28.2488 20.0098L28.2471 20.1051L28.2444 20.2005L28.2407 20.296L28.236 20.3914L28.2303 20.4869L28.2236 20.5825L28.2159 20.6779L28.2072 20.7734L28.1975 20.8689L28.1868 20.9643L28.1752 21.0598L28.1625 21.1551L28.1488 21.2504L28.1341 21.3457L28.1184 21.4408L28.1018 21.5359L28.0841 21.6309L28.0654 21.7258L28.0457 21.8205L28.025 21.9152L28.0034 22.0097L27.9807 22.104L27.9571 22.1982L27.9324 22.2923L27.9067 22.3861L27.8801 22.4798L27.8525 22.5733L27.8239 22.6665L27.7943 22.7596L27.7636 22.8525L27.732 22.945L27.6994 23.0374L27.6659 23.1295L27.6314 23.2213L27.5958 23.3129L27.5594 23.4042L27.522 23.4952L27.4835 23.5859L27.4441 23.6762L27.4038 23.7663L27.3625 23.8561L27.3202 23.9454L27.2769 24.0344L27.2327 24.1231L27.1875 24.2114L27.1414 24.2994L27.0944 24.3868L27.0464 24.474L26.9975 24.5607L26.9477 24.647L26.8969 24.7328L26.8452 24.8183L26.7926 24.9033L26.7391 24.9879L26.6846 25.0719L26.6292 25.1555L26.5729 25.2386L26.5158 25.3212L26.4577 25.4033L26.3987 25.4849L26.3389 25.566L26.2782 25.6466L26.2166 25.7266L26.1541 25.8061L26.0907 25.8849L26.0265 25.9633L25.9614 26.041L25.8955 26.1183L25.8287 26.1949L25.7611 26.2709L25.6927 26.3462L25.6234 26.421L25.5533 26.4951L25.4824 26.5687L25.4107 26.6415L25.3382 26.7137L25.2648 26.7853L25.1908 26.8562L25.1158 26.9264L25.0402 26.9959L24.9637 27.0647L24.8865 27.1328L24.8085 27.2002L24.7298 27.267L24.6504 27.3329L24.5701 27.3982L24.4892 27.4627L24.4075 27.5264L24.3251 27.5894L24.2421 27.6517L24.1583 27.7132L24.0737 27.7739L23.9886 27.8338L23.9028 27.8929L23.8163 27.9512L23.729 28.0088L23.6412 28.0655L23.5527 28.1213L23.4636 28.1764L23.3738 28.2306L23.2835 28.284L23.1925 28.3365L23.101 28.3882L23.0088 28.439L22.916 28.489L22.8226 28.538L22.7287 28.5862L22.6342 28.6335L22.5392 28.6799L22.4436 28.7255L22.3474 28.7701L22.2508 28.8138L22.1536 28.8566L22.056 28.8985L21.9578 28.9394L21.8592 28.9794L21.76 29.0185L21.6604 29.0566L21.5604 29.0938L21.4598 29.1301L21.3589 29.1653L21.2575 29.1996L21.1557 29.233L21.0534 29.2653L20.9509 29.2967L20.8479 29.3272L20.7444 29.3566L20.6407 29.385L20.5365 29.4124L20.4321 29.4389L20.3272 29.4643L20.2221 29.4888L20.1165 29.5122L20.0108 29.5346L19.9047 29.5559L19.7983 29.5763L19.6917 29.5957L19.5847 29.614L19.4775 29.6313L19.3701 29.6475L19.2624 29.6627L19.1545 29.6769L19.0464 29.69L18.9381 29.7021L18.8295 29.7131L18.7209 29.7231L18.612 29.732L18.503 29.7399L18.3938 29.7467L18.2844 29.7524L18.175 29.7571L18.0654 29.7607L17.9557 29.7632L17.846 29.7647L17.736 29.7651L17.6261 29.7644L17.5162 29.7626L17.4061 29.7598L17.296 29.7559L17.1859 29.7509L17.0757 29.7449L16.9656 29.7377L16.8554 29.7296L16.7453 29.7202L16.6352 29.7098L16.5252 29.6984L16.4151 29.6859L16.3052 29.6723L16.1953 29.6576L16.0855 29.6418L15.9758 29.6249L15.8662 29.607L15.7567 29.5879L15.6474 29.5679L15.5382 29.5467L15.4292 29.5244L15.3202 29.501L15.2115 29.4767L15.103 29.4511L14.9946 29.4245L14.8865 29.3969L14.7786 29.3682L14.6709 29.3384L14.5635 29.3075L14.4563 29.2756L14.3493 29.2427L14.2427 29.2085L14.1364 29.1734L14.0303 29.1373L13.9245 29.1001L13.8191 29.0618L13.714 29.0224L13.6093 28.982L13.5049 28.9406L13.4008 28.898L13.2971 28.8545L13.1939 28.81L13.091 28.7644L12.9885 28.7177L12.8865 28.6701L12.7849 28.6214L12.6837 28.5717L12.583 28.5209L12.4828 28.4692L12.383 28.4165L12.2837 28.3627L12.1849 28.308L12.0866 28.2522L11.9888 28.1955L11.8916 28.1377L11.7948 28.079L11.6987 28.0193L11.6031 27.9586L11.5081 27.897L11.4137 27.8343L11.3198 27.7708L11.2265 27.7063L11.1339 27.6408L11.0419 27.5744L10.9505 27.5071L10.8597 27.4387L10.7697 27.3695L10.6803 27.2994L10.5915 27.2283L10.5035 27.1564L10.416 27.0835L10.3294 27.0098L10.2434 26.9351L10.1582 26.8595L10.0736 26.7831L9.98993 26.7059L9.90689 26.6278L9.82459 26.5487L9.74311 26.4689L9.66245 26.3882L9.58254 26.3066L9.50337 26.2243L9.42503 26.1411L9.34759 26.0572L9.2709 25.9723L9.19503 25.8867L9.12007 25.8003L9.04584 25.7132L8.97261 25.6252L8.90012 25.5365L8.82862 25.447L8.75795 25.3568L8.68818 25.2658L8.61932 25.1741L8.55129 25.0817L8.48424 24.9885L8.41818 24.8947L8.35295 24.8001L8.28871 24.7049L8.22542 24.609L8.16309 24.5123L8.10171 24.4151L8.04131 24.3171L7.98188 24.2185L7.92344 24.1194L7.866 24.0195L7.80955 23.9191L7.75411 23.818L7.69969 23.7163L7.64629 23.6141L7.59391 23.5112L7.54258 23.4078L7.49228 23.3038L7.44303 23.1993L7.39484 23.0942L7.3477 22.9886L7.30163 22.8825L7.25664 22.7758L7.21272 22.6687L7.16989 22.5611L7.12814 22.453L7.0875 22.3444L7.04795 22.2354L7.00951 22.1259L6.97218 22.016L6.93597 21.9056L6.90088 21.7948L6.86692 21.6837L6.83409 21.5721L6.8024 21.4602L6.77184 21.3479L6.74244 21.2351L6.71419 21.1221L6.68708 21.0087L6.66115 20.895L6.63637 20.7809L6.61276 20.6666L6.59032 20.552L6.56905 20.4371L6.54896 20.3219L6.53006 20.2064L6.51233 20.0907L6.4958 19.9748L6.48046 19.8586L6.46632 19.7422L6.45337 19.6256L6.44162 19.5088L6.43107 19.3918L6.42174 19.2747L6.4136 19.1574L6.40668 19.0399L6.40097 18.9224L6.39648 18.8047L6.3932 18.6869L6.39114 18.569L6.3903 18.4509L6.39069 18.3329L6.39229 18.2147L6.39512 18.0966L6.39917 17.9783L6.40446 17.86L6.41097 17.7418L6.41871 17.6235L6.42768 17.5053L6.43787 17.387L6.44931 17.2688L6.46197 17.1506L6.47586 17.0325L6.49098 16.9145L6.50734 16.7965L6.52492 16.6786L6.54374 16.5608L6.56378 16.4432L6.58505 16.3257L6.60756 16.2083L6.63129 16.091L6.65625 15.974L6.68244 15.8571L6.70985 15.7405L6.73848 15.6239L6.76834 15.5077L6.79942 15.3917L6.83172 15.2758L6.86523 15.1603L6.89996 15.045L6.9359 14.93L6.97306 14.8152L7.01143 14.7008L7.051 14.5867L7.09178 14.4728L7.13375 14.3594L7.17692 14.2462L7.22129 14.1335L7.26685 14.021L7.31361 13.909L7.36154 13.7974L7.41066 13.6862L7.46097 13.5754L7.51244 13.465L7.56508 13.355L7.61889 13.2456L7.67387 13.1366L7.73001 13.028L7.7873 12.92L7.84574 12.8124L7.90533 12.7054L7.96606 12.5989L8.02792 12.4928L8.09091 12.3875L8.15504 12.2826L8.22028 12.1783L8.28665 12.0745L8.35411 11.9713L8.42272 11.8688L8.49232 11.7669L8.56316 11.6656L8.63499 11.5649L8.70789 11.4648L8.78195 11.3655L8.85699 11.2667L8.93319 11.1687L9.01038 11.0713L9.08864 10.9747L9.1679 10.8788L9.24822 10.7836L9.32962 10.6891L9.412 10.5953L9.49538 10.5024L9.57982 10.4102L9.66518 10.3187L9.7516 10.228L9.83902 10.1381L9.92734 10.0491L10.0167 9.96082L10.107 9.87336L10.1982 9.78679L10.2904 9.70096L10.3835 9.61612L10.4776 9.53201L10.5726 9.44888L10.6685 9.36657L10.7653 9.28517L10.863 9.20466L10.9616 9.12505L11.061 9.04634L11.1614 8.96861L11.2626 8.89178L11.3646 8.81594L11.4675 8.74099L11.5712 8.66703L11.6757 8.59405L11.781 8.52205L11.8872 8.45103L11.9941 8.38107L12.1018 8.31202L12.2103 8.24403L12.3196 8.17705L12.4296 8.1111L12.5403 8.04618L12.6517 7.98232L12.764 7.9195L12.8769 7.85773L12.9904 7.79705L13.1047 7.73744L13.2197 7.6789L13.3353 7.62146L13.4516 7.56511L13.5685 7.50987L13.6861 7.45574L13.8043 7.40272L13.9231 7.35082L14.0426 7.30006L14.1625 7.25044L14.2831 7.20195L14.4042 7.15462L14.5259 7.10844L14.6481 7.06343L14.7709 7.01958L14.8942 6.9769L15.018 6.9354L15.1423 6.89509L15.2669 6.85598L15.3922 6.81804L15.5179 6.78132L15.6441 6.7458L15.7706 6.71148L15.8976 6.67839L16.025 6.64651L16.1528 6.61586L16.281 6.58645L16.4095 6.55826L16.5384 6.5313L16.6677 6.5056L16.7973 6.48114L16.9272 6.45793L17.0574 6.43597L17.1879 6.41527L17.3187 6.39583L17.4498 6.37766L17.5811 6.36075L17.6301 6.35492ZM17.6855 10.9933L17.6477 7.83166L17.5401 7.84658L17.4244 7.86379L17.3086 7.88214L17.1936 7.90154L17.0783 7.92212L16.9637 7.94376L16.8493 7.96652L16.7354 7.99034L16.6216 8.01528L16.5082 8.04133L16.395 8.06846L16.2824 8.09665L16.1698 8.12597L16.0617 8.15526L15.9465 8.18774L15.8352 8.22022L15.7245 8.25377L15.6143 8.28829L15.5044 8.32397L15.3949 8.3607L15.2858 8.39842L15.1774 8.43712L15.0694 8.47697L14.9618 8.51771L14.8547 8.5596L14.7484 8.60239L14.6421 8.64633L14.5366 8.69117L14.4316 8.73698L14.3274 8.78378L14.2234 8.83165L14.12 8.88049L14.0175 8.93016L13.9151 8.98097L13.8139 9.03259L13.7128 9.08537L13.6126 9.13879L13.5127 9.19353L13.4137 9.24884L13.3154 9.30521L13.2176 9.36257L13.1206 9.42074L13.024 9.47997L12.9284 9.53987L12.8332 9.60082L12.739 9.66259L12.6454 9.72518L12.5524 9.78876L12.4601 9.85323L12.3688 9.91827L12.278 9.98447L12.1879 10.0514L12.0987 10.1191L12.0103 10.1876L11.9225 10.2571L11.8356 10.3272L11.7495 10.3981L11.6641 10.4701L11.5797 10.5425L11.496 10.6159L11.413 10.69L11.3309 10.7648L11.2498 10.8403L11.1692 10.9167L11.0898 10.9936L11.0111 11.0713L10.9332 11.1499L10.8563 11.229L10.7801 11.3089L10.7049 11.3894L10.6306 11.4706L10.5571 11.5525L10.4845 11.6351L10.4131 11.7182L10.3423 11.8021L10.2725 11.8866L10.2036 11.9716L10.1357 12.0572L10.0686 12.1436L10.0026 12.2304L9.9374 12.3178L9.87324 12.4059L9.80999 12.4945L9.74781 12.5835L9.68653 12.6732L9.62617 12.7634L9.56679 12.8542L9.50849 12.9453L9.45117 13.037L9.39476 13.1294L9.33935 13.222L9.285 13.3152L9.23156 13.4089L9.17928 13.5028L9.1279 13.5974L9.07743 13.6925L9.0282 13.7877L8.97987 13.8836L8.93262 13.9798L8.88635 14.0763L8.84116 14.1733L8.79696 14.2706L8.75383 14.3683L8.71169 14.4663L8.6707 14.5646L8.6307 14.6633L8.5917 14.7624L8.55376 14.8617L8.51698 14.9613L8.48111 15.0613L8.44647 15.1613L8.41274 15.2618L8.38017 15.3625L8.34858 15.4635L8.31815 15.5646L8.28871 15.666L8.26042 15.7675L8.23314 15.8694L8.20694 15.9713L8.18183 16.0735L8.1578 16.1759L8.13483 16.2783L8.11294 16.381L8.09215 16.4838L8.07241 16.5866L8.05376 16.6897L8.0362 16.7928L8.0197 16.8961L8.0043 16.9992L7.98996 17.1026L7.97672 17.2061L7.96455 17.3096L7.95345 17.4131L7.94344 17.5166L7.93451 17.6202L7.92666 17.7237L7.91988 17.8274L7.91418 17.931L7.90955 18.0345L7.906 18.138L7.90352 18.2414L7.90212 18.3448L7.90178 18.4482L7.90251 18.5515L7.90432 18.6547L7.90719 18.7577L7.91112 18.8607L7.91611 18.9636L7.92217 19.0664L7.92928 19.1689L7.93745 19.2714L7.94667 19.3737L7.95694 19.4758L7.96827 19.5777L7.98063 19.6795L7.99405 19.7811L8.00849 19.8824L8.02399 19.9836L8.04051 20.0844L8.05806 20.1851L8.07665 20.2856L8.09626 20.3857L8.11689 20.4857L8.13853 20.5852L8.1612 20.6846L8.18485 20.7836L8.20954 20.8823L8.23522 20.9807L8.26191 21.0788L8.28953 21.1765L8.31823 21.274L8.34784 21.371L8.37852 21.4677L8.4101 21.5641L8.44268 21.66L8.47624 21.7555L8.51071 21.8506L8.54617 21.9454L8.58262 22.0397L8.61998 22.1336L8.65825 22.227L8.6975 22.32L8.73766 22.4126L8.77881 22.5046L8.82079 22.5962L8.86376 22.6873L8.90763 22.778L8.95233 22.8681L8.99801 22.9577L9.04453 23.0469L9.09194 23.1355L9.14027 23.2235L9.18942 23.3111L9.23948 23.3981L9.29036 23.4845L9.34215 23.5703L9.39476 23.6556L9.4482 23.7403L9.50247 23.8244L9.55764 23.908L9.61347 23.9908L9.67029 24.0732L9.72777 24.1549L9.78616 24.236L9.84528 24.3164L9.90524 24.3962L9.96593 24.4753L10.0275 24.5538L10.0896 24.6316L10.1526 24.7088L10.2164 24.7853L10.2809 24.8611L10.3461 24.9362L10.4121 25.0107L10.4787 25.0843L10.5461 25.1574L10.6141 25.2296L10.6829 25.3012L10.7523 25.3721L10.8225 25.4422L10.8933 25.5116L10.9648 25.5802L11.0369 25.6481L11.1096 25.7152L11.1831 25.7817L11.257 25.8472L11.3317 25.912L11.407 25.9761L11.4828 26.0393L11.5593 26.1018L11.6363 26.1634L11.7139 26.2243L11.7921 26.2844L11.8709 26.3437L11.9502 26.4021L12.0299 26.4597L12.1103 26.5165L12.1912 26.5724L12.2726 26.6276L12.3545 26.6819L12.4369 26.7353L12.5198 26.788L12.6032 26.8397L12.687 26.8906L12.7712 26.9407L12.856 26.9899L12.9411 27.0382L13.0268 27.0856L13.1127 27.1322L13.1992 27.1779L13.2861 27.2227L13.3732 27.2666L13.4609 27.3097L13.549 27.3518L13.6373 27.3932L13.726 27.4335L13.8151 27.473L13.9044 27.5116L13.9941 27.5492L14.0842 27.586L14.1746 27.6218L14.2651 27.6568L14.3561 27.6908L14.4473 27.724L14.5388 27.7562L14.6305 27.7874L14.7225 27.8179L14.8147 27.8473L14.9071 27.8758L14.9998 27.9034L15.0927 27.9301L15.1857 27.9558L15.279 27.9806L15.3724 28.0046L15.466 28.0275L15.5598 28.0495L15.6537 28.0706L15.7478 28.0908L15.842 28.1101L15.9363 28.1283L16.0308 28.1456L16.1252 28.1621L16.2199 28.1776L16.3145 28.1921L16.4093 28.2058L16.5041 28.2185L16.599 28.2302L16.6939 28.241L16.7888 28.2509L16.8838 28.2599L16.9788 28.2679L17.0738 28.2749L17.1688 28.2811L17.2637 28.2863L17.3587 28.2906L17.4537 28.294L17.5485 28.2964L17.6432 28.2979L17.738 28.2985L17.8327 28.2982L17.9273 28.2968L18.0218 28.2947L18.1161 28.2916L18.2105 28.2876L18.3046 28.2826L18.3986 28.2768L18.4924 28.27L18.5862 28.2623L18.6797 28.2537L18.7731 28.2442L18.8664 28.2338L18.9594 28.2226L19.0523 28.2104L19.1449 28.1974L19.2373 28.1834L19.3295 28.1685L19.4214 28.1528L19.5132 28.1361L19.6047 28.1186L19.6959 28.1002L19.7869 28.0809L19.8775 28.0608L19.9678 28.0399L20.0579 28.0179L20.1477 27.9953L20.2372 27.9717L20.3263 27.9472L20.4151 27.922L20.5036 27.8959L20.5917 27.8689L20.6795 27.8411L20.767 27.8125L20.854 27.783L20.9406 27.7528L21.0269 27.7217L21.1127 27.6898L21.1982 27.657L21.2832 27.6235L21.3679 27.5891L21.4521 27.554L21.5358 27.5181L21.6192 27.4814L21.702 27.444L21.7844 27.4057L21.8664 27.3667L21.9477 27.327L22.0289 27.2863L22.1093 27.2451L22.1894 27.2029L22.2687 27.1602L22.3477 27.1167L22.4262 27.0724L22.5041 27.0274L22.5815 26.9817L22.6583 26.9353L22.7345 26.8882L22.8104 26.8403L22.8855 26.7919L22.9601 26.7426L23.0342 26.6926L23.1076 26.6421L23.1804 26.5909L23.2528 26.5389L23.3244 26.4865L23.3954 26.4332L23.466 26.3793L23.5356 26.3249L23.6049 26.2696L23.6735 26.2138L23.7412 26.1575L23.8087 26.1004L23.8752 26.0428L23.9411 25.9847L24.0066 25.9258L24.0711 25.8665L24.1351 25.8065L24.1984 25.746L24.2609 25.685L24.3229 25.6233L24.3841 25.5611L24.4447 25.4983L24.5044 25.4351L24.5635 25.3713L24.622 25.307L24.6795 25.2422L24.7366 25.1768L24.7928 25.111L24.8482 25.0447L24.903 24.9778L24.957 24.9107L25.0102 24.8429L25.0628 24.7747L25.1146 24.706L25.1655 24.637L25.2157 24.5676L25.2652 24.4975L25.3139 24.4272L25.3618 24.3564L25.4091 24.2851L25.4552 24.2137L25.5009 24.1417L25.5457 24.0693L25.5897 23.9966L25.6329 23.9236L25.6754 23.85L25.7169 23.7765L25.7578 23.7022L25.7978 23.6278L25.8369 23.5531L25.8754 23.4778L25.9128 23.4027L25.9497 23.3268L25.9855 23.2511L26.0208 23.1746L26.0549 23.0983L26.0885 23.0213L26.1212 22.9444L26.1529 22.8671L26.1839 22.7896L26.2141 22.7118L26.2433 22.634L26.2719 22.5557L26.2995 22.4773L26.3263 22.3987L26.3522 22.3199L26.3774 22.2409L26.4017 22.1618L26.4251 22.0826L26.4477 22.0031L26.4694 21.9235L26.4904 21.8438L26.5104 21.7639L26.5296 21.6841L26.548 21.6038L26.5655 21.5236L26.5822 21.4433L26.598 21.3631L26.613 21.2827L26.6271 21.2019L26.6404 21.1215L26.6528 21.0408L26.6644 20.96L26.6751 20.8795L26.685 20.7987L26.6941 20.7177L26.7022 20.6373L26.7096 20.5562L26.7162 20.4754L26.7218 20.3948L26.7266 20.314L26.7306 20.2333L26.7337 20.1527L26.736 20.0719L26.7374 19.9916L26.7381 19.9109L26.7379 19.8305L26.7369 19.75L26.735 19.6699L26.7322 19.5897L26.7287 19.5096L26.7243 19.4298L26.7191 19.3498L26.7131 19.27L26.7063 19.1906L26.6987 19.111L26.6902 19.0319L26.6809 18.9526L26.6708 18.8738L26.6599 18.795L26.6482 18.7163L26.6357 18.6379L26.6224 18.5597L26.6083 18.4818L26.5934 18.404L26.5776 18.3262L26.5611 18.249L26.5439 18.172L26.5258 18.0951L26.5069 18.0184L26.4874 17.9423L26.4669 17.8659L26.4458 17.7902L26.4239 17.7146L26.4012 17.6395L26.3778 17.5645L26.3536 17.4898L26.3286 17.4156L26.303 17.3416L26.2764 17.2678L26.2494 17.1945L26.2214 17.1215L26.1928 17.0489L26.1635 16.9765L26.1334 16.9044L26.1026 16.833L26.071 16.7616L26.0389 16.6909L26.006 16.6205L25.9723 16.5503L25.9379 16.4805L25.903 16.4114L25.8672 16.3424L25.831 16.2741L25.7939 16.2062L25.7562 16.1383L25.7179 16.0713L25.6788 16.0046L25.6391 15.9384L25.5987 15.8724L25.5579 15.8072L25.5162 15.7422L25.474 15.6779L25.4312 15.614L25.3877 15.5506L25.3435 15.4875L25.2988 15.425L25.2536 15.3632L25.2076 15.3016L25.1612 15.2407L25.114 15.1802L25.0665 15.1204L25.0182 15.061L24.9693 15.0021L24.9199 14.9438L24.87 14.8859L24.8197 14.8288L24.7685 14.7721L24.7171 14.716L24.6649 14.6604L24.6125 14.6056L24.5592 14.551L24.5057 14.4972L24.4514 14.4438L24.3968 14.3912L24.3418 14.3392L24.2863 14.2876L24.2301 14.2366L24.1735 14.1864L24.1165 14.1367L24.0589 14.0875L24.0012 14.0392L23.9428 13.9912L23.884 13.944L23.8248 13.8974L23.7651 13.8513L23.705 13.8059L23.6447 13.7614L23.5837 13.7172L23.5223 13.6736L23.4608 13.6309L23.3986 13.5886L23.3364 13.5473L23.2736 13.5064L23.2105 13.4662L23.1469 13.4266L23.0832 13.3878L23.0189 13.3495L22.9545 13.312L22.8895 13.275L22.8246 13.2389L22.7591 13.2034L22.6933 13.1685L22.6273 13.1343L22.561 13.1009L22.4944 13.068L22.4274 13.0359L22.3604 13.0045L22.2932 12.9738L22.2252 12.9436L22.1576 12.9143L22.0895 12.8857L22.021 12.8576L21.9525 12.8303L21.8839 12.8038L21.815 12.778L21.7456 12.7527L21.6764 12.7283L21.6068 12.7045L21.537 12.6814L21.4674 12.6591L21.3973 12.6375L21.3273 12.6166L21.2567 12.5963L21.1864 12.5768L21.1159 12.558L21.0452 12.5399L20.9744 12.5225L20.9034 12.5058L20.8324 12.4898L20.7615 12.4746L20.6903 12.46L20.6188 12.4461L20.5478 12.4331L20.4763 12.4207L20.405 12.409L20.3333 12.3979L20.2621 12.3877L20.1903 12.3781L20.1189 12.3693L20.0473 12.3611L19.9758 12.3537L19.9043 12.347L19.8326 12.3409L19.7613 12.3356L19.6895 12.331L19.6181 12.3271L19.5468 12.3239L19.4751 12.3214L19.4039 12.3196L19.3327 12.3185L19.2615 12.3181L19.2129 12.3182L19.2497 15.4072L19.2717 15.4073L19.3126 15.4079L19.3536 15.4088L19.3947 15.4102L19.4358 15.412L19.4769 15.4142L19.5181 15.4169L19.5593 15.42L19.6005 15.4235L19.6419 15.4274L19.6832 15.4318L19.7245 15.4365L19.7659 15.4417L19.8072 15.4474L19.8486 15.4534L19.89 15.46L19.9314 15.4669L19.9727 15.4743L20.0141 15.4822L20.0554 15.4903L20.0967 15.4991L20.1381 15.5082L20.1794 15.5177L20.2205 15.5277L20.2618 15.5381L20.3029 15.549L20.344 15.5603L20.385 15.572L20.426 15.5842L20.4669 15.5968L20.5078 15.6099L20.5486 15.6234L20.5892 15.6373L20.6299 15.6516L20.6704 15.6664L20.7108 15.6816L20.7511 15.6973L20.7914 15.7134L20.8314 15.7299L20.8714 15.7468L20.9114 15.7643L20.9511 15.7821L20.9908 15.8003L21.0303 15.8191L21.0696 15.8381L21.1089 15.8577L21.1479 15.8777L21.1868 15.8981L21.2256 15.919L21.2642 15.9403L21.3026 15.9619L21.3408 15.984L21.3789 16.0065L21.4168 16.0295L21.4545 16.0529L21.492 16.0767L21.5293 16.1009L21.5664 16.1255L21.6033 16.1506L21.64 16.1761L21.6765 16.2019L21.7128 16.2282L21.7488 16.2548L21.7846 16.2819L21.8201 16.3094L21.8555 16.3373L21.8906 16.3656L21.9254 16.3943L21.96 16.4234L21.9943 16.4528L22.0284 16.4827L22.0622 16.513L22.0957 16.5437L22.1289 16.5747L22.1618 16.6061L22.1945 16.6379L22.2269 16.6701L22.259 16.7026L22.2908 16.7355L22.3222 16.7688L22.3534 16.8025L22.3842 16.8366L22.4148 16.8709L22.445 16.9057L22.4749 16.9408L22.5045 16.9762L22.5337 17.0121L22.5625 17.0482L22.5911 17.0847L22.6193 17.1216L22.6471 17.1588L22.6746 17.1963L22.7016 17.2341L22.7284 17.2723L22.7548 17.3109L22.7808 17.3497L22.8065 17.3888L22.8318 17.4284L22.8566 17.4681L22.8811 17.5082L22.9052 17.5486L22.9288 17.5893L22.9522 17.6303L22.975 17.6716L22.9975 17.7132L23.0196 17.7551L23.0412 17.7972L23.0625 17.8396L23.0833 17.8823L23.1037 17.9253L23.1236 17.9685L23.1432 18.0121L23.1623 18.0558L23.1809 18.0998L23.1992 18.1441L23.2169 18.1886L23.2342 18.2334L23.2511 18.2784L23.2675 18.3236L23.2835 18.3691L23.299 18.4148L23.314 18.4607L23.3285 18.5068L23.3426 18.5531L23.3562 18.5997L23.3693 18.6465L23.382 18.6934L23.3942 18.7405L23.4058 18.7879L23.417 18.8354L23.4278 18.883L23.438 18.931L23.4477 18.979L23.4569 19.0271L23.4656 19.0755L23.4739 19.124L23.4816 19.1726L23.4888 19.2215L23.4955 19.2704L23.5017 19.3195L23.5074 19.3688L23.5125 19.4181L23.5172 19.4675L23.5213 19.5171L23.5249 19.5668L23.528 19.6166L23.5305 19.6665L23.5325 19.7165L23.5341 19.7666L23.535 19.8167L23.5355 19.867L23.5353 19.9172L23.5347 19.9676L23.5336 20.0181L23.5318 20.0686L23.5296 20.1191L23.5268 20.1697L23.5235 20.2203L23.5196 20.271L23.5152 20.3217L23.5102 20.3724L23.5048 20.4232L23.4987 20.4739L23.4921 20.5247L23.485 20.5755L23.4773 20.6262L23.4691 20.677L23.4603 20.7277L23.4509 20.7784L23.441 20.8291L23.4307 20.8798L23.4196 20.9304L23.4081 20.981L23.396 21.0316L23.3833 21.082L23.3701 21.1325L23.3564 21.1828L23.3421 21.2332L23.3272 21.2833L23.3118 21.3335L23.2959 21.3835L23.2794 21.4334L23.2623 21.4834L23.2448 21.5331L23.2265 21.5827L23.2078 21.6323L23.1886 21.6816L23.1688 21.7309L23.1485 21.78L23.1276 21.829L23.1061 21.8779L23.0841 21.9266L23.0616 21.9752L23.0385 22.0235L23.0149 22.0718L22.9908 22.1198L22.966 22.1677L22.9408 22.2154L22.915 22.2628L22.8887 22.3101L22.8619 22.3573L22.8345 22.4041L22.8065 22.4509L22.7782 22.4972L22.7491 22.5436L22.7197 22.5895L22.6897 22.6353L22.6591 22.6808L22.6281 22.7261L22.5965 22.7712L22.5644 22.8159L22.5318 22.8604L22.4987 22.9047L22.465 22.9486L22.4309 22.9923L22.3963 23.0358L22.3611 23.0789L22.3255 23.1217L22.2894 23.1642L22.2528 23.2064L22.2156 23.2483L22.178 23.2899L22.1399 23.3312L22.1013 23.3721L22.0623 23.4127L22.0227 23.453L21.9827 23.493L21.9422 23.5325L21.9013 23.5718L21.8598 23.6106L21.8179 23.6491L21.7756 23.6872L21.7328 23.725L21.6896 23.7624L21.6459 23.7994L21.6018 23.836L21.5572 23.8722L21.5121 23.908L21.4667 23.9434L21.4208 23.9784L21.3746 24.013L21.3278 24.0472L21.2807 24.0809L21.2331 24.1142L21.1852 24.1472L21.1368 24.1796L21.0881 24.2117L21.0389 24.2432L20.9894 24.2743L20.9394 24.305L20.8891 24.3352L20.8384 24.3649L20.7873 24.3942L20.7359 24.423L20.684 24.4513L20.6319 24.4792L20.5793 24.5065L20.5265 24.5335L20.4732 24.5598L20.4197 24.5857L20.3658 24.6111L20.3115 24.636L20.257 24.6604L20.2021 24.6842L20.1469 24.7076L20.0914 24.7304L20.0356 24.7526L19.9794 24.7744L19.923 24.7957L19.8662 24.8164L19.8093 24.8366L19.752 24.8562L19.6945 24.8753L19.6367 24.8939L19.5786 24.9118L19.5203 24.9292L19.4617 24.9461L19.4029 24.9624L19.3438 24.9782L19.2845 24.9934L19.225 25.008L19.1652 25.022L19.1052 25.0355L19.045 25.0483L18.9847 25.0607L18.9241 25.0724L18.8633 25.0835L18.8023 25.0941L18.7411 25.1041L18.6799 25.1134L18.6183 25.1221L18.5567 25.1303L18.4949 25.1379L18.433 25.1449L18.3709 25.1512L18.3086 25.157L18.2463 25.1621L18.1837 25.1666L18.1211 25.1705L18.0584 25.1738L17.9956 25.1765L17.9326 25.1786L17.8695 25.18L17.8065 25.1808L17.7433 25.181L17.68 25.1806L17.6167 25.1796L17.5533 25.1779L17.4899 25.1756L17.4264 25.1726L17.3628 25.169L17.2992 25.1648L17.2356 25.16L17.172 25.1545L17.1084 25.1484L17.0448 25.1417L16.9811 25.1342L16.9175 25.1262L16.8539 25.1176L16.7903 25.1083L16.7267 25.0983L16.6632 25.0878L16.5997 25.0766L16.5363 25.0647L16.4729 25.0523L16.4095 25.0391L16.3463 25.0253L16.2831 25.0109L16.22 24.9958L16.1569 24.9802L16.094 24.9638L16.0313 24.9468L15.9685 24.9292L15.906 24.911L15.8435 24.8921L15.7811 24.8725L15.719 24.8524L15.6569 24.8316L15.595 24.8102L15.5332 24.7881L15.4716 24.7653L15.4103 24.742L15.349 24.718L15.288 24.6934L15.2271 24.6682L15.1665 24.6424L15.1061 24.6158L15.0458 24.5888L14.9858 24.561L14.9259 24.5326L14.8664 24.5037L14.8071 24.4741L14.7481 24.4439L14.6893 24.413L14.6307 24.3816L14.5724 24.3495L14.5144 24.3169L14.4566 24.2836L14.3992 24.2497L14.3421 24.2153L14.2853 24.1802L14.2287 24.1445L14.1724 24.1082L14.1165 24.0713L14.0609 24.0339L14.0058 23.9958L13.9508 23.9572L13.8963 23.918L13.8421 23.8782L13.7882 23.8378L13.7348 23.7969L13.6817 23.7554L13.629 23.7133L13.5766 23.6707L13.5247 23.6275L13.4731 23.5837L13.422 23.5394L13.3713 23.4945L13.321 23.4491L13.2711 23.4031L13.2216 23.3567L13.1726 23.3096L13.1239 23.2621L13.0759 23.214L13.0282 23.1654L12.9809 23.1162L12.9342 23.0666L12.8879 23.0164L12.8422 22.9657L12.7968 22.9146L12.752 22.8629L12.7077 22.8108L12.6638 22.7581L12.6205 22.7049L12.5777 22.6513L12.5354 22.5972L12.4936 22.5427L12.4523 22.4876L12.4117 22.4321L12.3715 22.3762L12.3318 22.3197L12.2928 22.2628L12.2542 22.2056L12.2163 22.1478L12.179 22.0896L12.1421 22.031L12.1059 21.9721L12.0702 21.9126L12.0351 21.8528L12.0007 21.7925L11.9668 21.7318L11.9334 21.6708L11.9008 21.6094L11.8687 21.5475L11.8372 21.4853L11.8064 21.4228L11.7762 21.3598L11.7466 21.2966L11.7176 21.2329L11.6893 21.1689L11.6616 21.1045L11.6346 21.0399L11.6082 20.9749L11.5825 20.9096L11.5574 20.8439L11.5331 20.7779L11.5093 20.7116L11.4862 20.6451L11.4638 20.5783L11.4421 20.5111L11.4211 20.4437L11.4007 20.376L11.381 20.308L11.362 20.2398L11.3438 20.1713L11.3262 20.1026L11.3093 20.0336L11.2932 19.9645L11.2777 19.895L11.2629 19.8254L11.2489 19.7555L11.2355 19.6855L11.2229 19.6152L11.211 19.5448L11.1999 19.4741L11.1894 19.4033L11.1797 19.3324L11.1708 19.2612L11.1625 19.1899L11.155 19.1184L11.1483 19.0468L11.1423 18.9751L11.137 18.9032L11.1324 18.8312L11.1286 18.7591L11.1256 18.687L11.1233 18.6146L11.1218 18.5422L11.1211 18.4698L11.121 18.3973L11.1217 18.3246L11.1233 18.2519L11.1255 18.1792L11.1286 18.1064L11.1324 18.0336L11.1369 17.9608L11.1422 17.8879L11.1483 17.815L11.1551 17.7421L11.1627 17.6692L11.1711 17.5963L11.1803 17.5234L11.1902 17.4505L11.2009 17.3777L11.2123 17.3049L11.2246 17.2322L11.2376 17.1594L11.2514 17.0868L11.266 17.0142L11.2813 16.9417L11.2974 16.8693L11.3142 16.797L11.3318 16.7248L11.3502 16.6526L11.3694 16.5806L11.3894 16.5088L11.4101 16.4371L11.4315 16.3654L11.4538 16.294L11.4768 16.2226L11.5006 16.1514L11.5251 16.0805L11.5505 16.0096L11.5765 15.939L11.6033 15.8686L11.631 15.7984L11.6593 15.7283L11.6884 15.6585L11.7183 15.5889L11.7489 15.5195L11.7803 15.4504L11.8124 15.3815L11.8453 15.3129L11.8789 15.2446L11.9132 15.1764L11.9483 15.1086L11.9842 15.0411L12.0207 14.9738L12.0581 14.9069L12.0961 14.8402L12.1348 14.7739L12.1743 14.7079L12.2146 14.6422L12.2555 14.5768L12.2972 14.5119L12.3396 14.4472L12.3826 14.3828L12.4264 14.3189L12.471 14.2554L12.5162 14.1922L12.5621 14.1295L12.6087 14.067L12.6559 14.005L12.7039 13.9435L12.7526 13.8823L12.802 13.8216L12.8521 13.7612L12.9027 13.7014L12.9541 13.6419L13.0061 13.5829L13.0588 13.5244L13.1122 13.4663L13.1662 13.4088L13.2208 13.3517L13.2762 13.2951L13.3321 13.2389L13.3887 13.1833L13.4459 13.1282L13.5037 13.0736L13.5622 13.0195L13.6212 12.9659L13.6809 12.9129L13.7411 12.8604L13.8021 12.8085L13.8635 12.757L13.9256 12.7062L13.9882 12.656L14.0515 12.6062L14.1152 12.5572L14.1796 12.5086L14.2445 12.4607L14.31 12.4133L14.3761 12.3666L14.4426 12.3205L14.5097 12.2749L14.5774 12.23L14.6456 12.1857L14.7142 12.1421L14.7835 12.0991L14.8532 12.0567L14.9235 12.0149L14.9941 11.9739L15.0654 11.9335L15.1371 11.8937L15.2092 11.8546L15.2819 11.8162L15.3549 11.7785L15.4285 11.7414L15.5025 11.7051L15.5769 11.6694L15.6518 11.6345L15.7271 11.6002L15.8028 11.5667L15.8789 11.5339L15.9556 11.5017L16.0325 11.4703L16.1098 11.4397L16.1875 11.4097L16.2656 11.3805L16.3441 11.3521L16.4229 11.3244L16.5021 11.2974L16.5816 11.2712L16.6616 11.2458L16.7417 11.2211L16.8223 11.1972L16.9031 11.174L16.9843 11.1517L17.0657 11.1301L17.1475 11.1092L17.2295 11.0892L17.3118 11.0699L17.3944 11.0515L17.4772 11.0339L17.5604 11.017L17.6437 11.001L17.6855 10.9933ZM18.7096 16.9335L17.7591 17.1589L17.7033 12.4874L17.6585 12.4974L17.591 12.5132L17.5237 12.5297L17.4568 12.5467L17.39 12.5644L17.3236 12.5827L17.2572 12.6017L17.1915 12.6212L17.1256 12.6415L17.0605 12.6622L16.9953 12.6837L16.9305 12.7058L16.866 12.7285L16.8018 12.7517L16.7381 12.7755L16.6745 12.8001L16.6113 12.8251L16.5484 12.8507L16.4857 12.8771L16.4237 12.9037L16.3618 12.9312L16.3004 12.9591L16.2392 12.9878L16.1785 13.0168L16.1179 13.0465L16.0581 13.0767L15.9984 13.1075L15.9392 13.1388L15.8804 13.1706L15.822 13.203L15.7639 13.236L15.7065 13.2694L15.649 13.3035L15.5923 13.3379L15.536 13.373L15.4801 13.4085L15.4245 13.4446L15.3695 13.4811L15.3149 13.5182L15.2608 13.5557L15.2072 13.5936L15.1538 13.6322L15.101 13.6712L15.0487 13.7106L14.9969 13.7506L14.9456 13.7908L14.8948 13.8316L14.8443 13.873L14.7943 13.9148L14.745 13.9568L14.6961 13.9994L14.6477 14.0424L14.5998 14.0858L14.5524 14.1298L14.5055 14.174L14.4592 14.2186L14.4132 14.2638L14.368 14.3092L14.3232 14.3551L14.279 14.4013L14.2351 14.4481L14.192 14.4949L14.1493 14.5423L14.1072 14.5901L14.0657 14.638L14.0247 14.6866L13.9843 14.7352L13.9443 14.7844L13.9051 14.8337L13.8662 14.8836L13.8281 14.9337L13.7904 14.984L13.7533 15.0347L13.7169 15.0857L13.6809 15.137L13.6456 15.1886L13.6108 15.2405L13.5767 15.2926L13.5431 15.3449L13.5101 15.3977L13.4777 15.4506L13.4458 15.5039L13.4146 15.5572L13.384 15.6109L13.3539 15.6649L13.3245 15.7189L13.2956 15.7733L13.2674 15.8278L13.2397 15.8827L13.2128 15.9376L13.1863 15.9929L13.1605 16.0482L13.1353 16.1037L13.1107 16.1594L13.0867 16.2154L13.0633 16.2714L13.0406 16.3277L13.0185 16.384L12.9969 16.4406L12.976 16.4971L12.9557 16.554L12.936 16.6109L12.917 16.6679L12.8985 16.7251L12.8807 16.7824L12.8634 16.8398L12.8469 16.8971L12.8309 16.9547L12.8155 17.0124L12.8008 17.0701L12.7867 17.1278L12.7732 17.1857L12.7603 17.2436L12.7481 17.3016L12.7365 17.3596L12.7255 17.4176L12.7151 17.4757L12.7053 17.5337L12.6962 17.5918L12.6876 17.6501L12.6797 17.7081L12.6724 17.7664L12.6658 17.8244L12.6597 17.8825L12.6542 17.9408L12.6493 17.9988L12.6451 18.0569L12.6415 18.115L12.6385 18.1729L12.6361 18.2308L12.6343 18.2887L12.6331 18.3466L12.6324 18.4044L12.6325 18.4621L12.6331 18.5197L12.6343 18.5773L12.6362 18.6347L12.6385 18.692L12.6415 18.7493L12.6451 18.8064L12.6493 18.8635L12.6541 18.9204L12.6595 18.9772L12.6654 19.034L12.6719 19.0903L12.679 19.1469L12.6867 19.203L12.695 19.2592L12.7039 19.3151L12.7133 19.3709L12.7232 19.4266L12.7338 19.482L12.7449 19.5373L12.7566 19.5923L12.7688 19.6473L12.7816 19.7019L12.795 19.7565L12.8088 19.8107L12.8234 19.8649L12.8383 19.9187L12.8538 19.9724L12.8699 20.0258L12.8864 20.079L12.9036 20.132L12.9212 20.1846L12.9395 20.2372L12.9582 20.2894L12.9774 20.3413L12.9971 20.393L13.0174 20.4445L13.0382 20.4956L13.0595 20.5465L13.0811 20.5971L13.1035 20.6475L13.1263 20.6976L13.1495 20.7473L13.1733 20.7967L13.1974 20.8458L13.2222 20.8948L13.2473 20.9433L13.273 20.9915L13.2991 21.0394L13.3257 21.0869L13.3528 21.1342L13.3803 21.1812L13.4082 21.2277L13.4367 21.274L13.4654 21.3199L13.4947 21.3654L13.5245 21.4106L13.5546 21.4555L13.5852 21.5L13.6161 21.544L13.6475 21.5878L13.6794 21.6312L13.7115 21.6742L13.7443 21.7169L13.7773 21.7591L13.8107 21.8009L13.8445 21.8424L13.8787 21.8835L13.9132 21.9241L13.9482 21.9644L13.9835 22.0044L14.0191 22.0438L14.0553 22.0829L14.0916 22.1215L14.1284 22.1598L14.1655 22.1976L14.2029 22.235L14.2407 22.272L14.2788 22.3086L14.3173 22.3447L14.356 22.3804L14.3951 22.4157L14.4345 22.4505L14.4742 22.4849L14.5142 22.5188L14.5544 22.5524L14.595 22.5854L14.6359 22.6181L14.6771 22.6502L14.7185 22.6819L14.7602 22.7132L14.8022 22.744L14.8444 22.7744L14.8869 22.8042L14.9296 22.8337L14.9725 22.8626L15.0158 22.8911L15.0591 22.9191L15.1028 22.9467L15.1468 22.9738L15.1908 23.0003L15.2351 23.0265L15.2797 23.0522L15.3243 23.0773L15.3692 23.102L15.4145 23.1263L15.4598 23.1501L15.5052 23.1733L15.5508 23.1961L15.5967 23.2184L15.6426 23.2402L15.6889 23.2615L15.7351 23.2824L15.7815 23.3027L15.8281 23.3225L15.8749 23.3419L15.9217 23.3608L15.9687 23.3792L16.0158 23.3971L16.0631 23.4145L16.1103 23.4314L16.1578 23.4479L16.2053 23.4638L16.2528 23.4792L16.3006 23.4942L16.3484 23.5087L16.3963 23.5226L16.4442 23.5361L16.4923 23.549L16.5403 23.5615L16.5884 23.5735L16.6366 23.585L16.6847 23.596L16.733 23.6065L16.7813 23.6165L16.8296 23.626L16.878 23.6351L16.9263 23.6436L16.9747 23.6517L17.0231 23.6592L17.0715 23.6663L17.1197 23.6729L17.1682 23.6789L17.2165 23.6846L17.2649 23.6897L17.3132 23.6943L17.3615 23.6985L17.4098 23.7022L17.4579 23.7054L17.5062 23.7081L17.5543 23.7103L17.6023 23.7121L17.6504 23.7133L17.6983 23.7141L17.7461 23.7145L17.7939 23.7143L17.8416 23.7137L17.8893 23.7126L17.9369 23.711L17.9843 23.7091L18.0316 23.7065L18.079 23.7036L18.126 23.7001L18.1731 23.6963L18.2199 23.692L18.2668 23.6872L18.3135 23.6819L18.3599 23.6762L18.4064 23.6701L18.4526 23.6635L18.4986 23.6564L18.5447 23.649L18.5905 23.6411L18.6361 23.6327L18.6816 23.6239L18.727 23.6146L18.772 23.605L18.8168 23.5949L18.8617 23.5844L18.9063 23.5734L18.9507 23.5621L18.9949 23.5503L19.0388 23.5381L19.0828 23.5255L19.1263 23.5124L19.1696 23.499L19.2129 23.4851L19.2558 23.4709L19.2985 23.4563L19.341 23.4413L19.3832 23.4258L19.4254 23.4099L19.4672 23.3937L19.5087 23.3771L19.55 23.3602L19.5911 23.3428L19.632 23.325L19.6724 23.3069L19.7128 23.2884L19.7528 23.2696L19.7924 23.2504L19.832 23.2308L19.8711 23.2109L19.9101 23.1907L19.9488 23.17L19.9871 23.149L20.0252 23.1277L20.063 23.1061L20.1005 23.084L20.1376 23.0617L20.1745 23.039L20.2111 23.0161L20.2474 22.9928L20.2834 22.9692L20.3191 22.9453L20.3545 22.921L20.3895 22.8964L20.4241 22.8716L20.4585 22.8464L20.4926 22.821L20.5263 22.7952L20.5597 22.7692L20.5929 22.7429L20.6255 22.7164L20.6579 22.6895L20.6899 22.6624L20.7216 22.6349L20.753 22.6073L20.784 22.5793L20.8147 22.5512L20.8449 22.5228L20.8749 22.4941L20.9045 22.4651L20.9338 22.436L20.9627 22.4066L20.9911 22.3769L21.0192 22.3471L21.0471 22.3169L21.0744 22.2867L21.1015 22.2561L21.1282 22.2254L21.1544 22.1945L21.1804 22.1633L21.2058 22.132L21.2311 22.1004L21.2559 22.0688L21.2802 22.0369L21.3043 22.0047L21.3279 21.9725L21.3512 21.94L21.3741 21.9073L21.3965 21.8747L21.4186 21.8416L21.4404 21.8086L21.4616 21.7754L21.4825 21.742L21.5031 21.7084L21.5232 21.6747L21.543 21.6409L21.5623 21.607L21.5812 21.5729L21.5998 21.5387L21.6179 21.5045L21.6357 21.47L21.6531 21.4355L21.6701 21.4009L21.6866 21.366L21.7028 21.3313L21.7185 21.2963L21.7339 21.2614L21.7489 21.2262L21.7634 21.1911L21.7777 21.1557L21.7914 21.1206L21.8048 21.0849L21.8177 21.0498L21.8303 21.0141L21.8425 20.9785L21.8542 20.9429L21.8656 20.9073L21.8766 20.8717L21.8872 20.8357L21.8973 20.8002L21.9072 20.7641L21.9165 20.7286L21.9255 20.6926L21.934 20.6566L21.9422 20.6208L21.95 20.5852L21.9574 20.549L21.9644 20.5132L21.971 20.4772L21.9772 20.4415L21.983 20.4056L21.9885 20.3697L21.9935 20.3338L21.9981 20.298L22.0024 20.2623L22.0063 20.2267L22.0097 20.1908L22.0129 20.1552L22.0156 20.1195L22.0179 20.0839L22.0199 20.0484L22.0215 20.013L22.0226 19.9777L22.0234 19.9422L22.0239 19.9068L22.024 19.8717L22.0237 19.8366L22.023 19.8016L22.0219 19.7666L22.0205 19.7315L22.0187 19.6971L22.0166 19.6619L22.0141 19.6276L22.0112 19.5932L22.008 19.5585L22.0044 19.5242L22.0005 19.4903L21.9961 19.4558L21.9915 19.4221L21.9865 19.3882L21.9812 19.3547L21.9754 19.3209L21.9694 19.2874L21.9631 19.2541L21.9564 19.221L21.9493 19.1878L21.9419 19.155L21.9342 19.1222L21.9261 19.0896L21.9178 19.0573L21.909 19.0247L21.9001 18.9928L21.8907 18.9606L21.881 18.9289L21.871 18.8972L21.8607 18.8658L21.8501 18.8345L21.8391 18.8032L21.828 18.7725L21.8164 18.7418L21.8046 18.711L21.7924 18.6808L21.78 18.6503L21.7674 18.6206L21.7543 18.5906L21.7411 18.5611L21.7275 18.5318L21.7136 18.5025L21.6995 18.4735L21.6851 18.4447L21.6704 18.4161L21.6555 18.3878L21.6402 18.3596L21.6248 18.3317L21.609 18.304L21.593 18.2765L21.5768 18.2492L21.5603 18.2222L21.5435 18.1953L21.5265 18.1689L21.5092 18.1426L21.4918 18.1165L21.474 18.0905L21.4561 18.065L21.4379 18.0395L21.4195 18.0144L21.4009 17.9896L21.382 17.9649L21.363 17.9405L21.3437 17.9163L21.3242 17.8925L21.3045 17.8689L21.2846 17.8455L21.2645 17.8223L21.2443 17.7995L21.2237 17.7769L21.203 17.7546L21.1822 17.7324L21.1611 17.7106L21.1399 17.6891L21.1184 17.6678L21.0969 17.6468L21.0751 17.6261L21.0533 17.6057L21.031 17.5854L21.0089 17.5655L20.9865 17.5458L20.964 17.5265L20.9412 17.5073L20.9184 17.4886L20.8954 17.47L20.8723 17.4518L20.849 17.4338L20.8256 17.416L20.8021 17.3987L20.7784 17.3815L20.7546 17.3646L20.7308 17.3481L20.7068 17.3317L20.6827 17.3158L20.6584 17.3001L20.634 17.2846L20.6097 17.2695L20.585 17.2546L20.5605 17.24L20.5358 17.2258L20.511 17.2118L20.486 17.198L20.4611 17.1846L20.4361 17.1715L20.4109 17.1586L20.3859 17.1461L20.3605 17.1337L20.3352 17.1218L20.3098 17.1102L20.2844 17.0987L20.259 17.0876L20.2333 17.0767L20.2079 17.0662L20.1822 17.056L20.1564 17.046L20.1308 17.0364L20.1051 17.027L20.0793 17.0179L20.0535 17.009L20.0277 17.0005L20.002 16.9923L19.9761 16.9843L19.9502 16.9766L19.9245 16.9692L19.8984 16.9621L19.8727 16.9553L19.8468 16.9487L19.8209 16.9424L19.795 16.9365L19.7692 16.9307L19.7433 16.9253L19.7175 16.9202L19.6917 16.9153L19.666 16.9107L19.6401 16.9064L19.6146 16.9024L19.5887 16.8986L19.5632 16.8951L19.5374 16.8918L19.5119 16.8889L19.4865 16.8862L19.4609 16.8838L19.4355 16.8816L19.4101 16.8797L19.3848 16.8781L19.3595 16.8767L19.3342 16.8756L19.3093 16.8748L19.2841 16.8741L19.2591 16.8738L19.2341 16.8737L19.2093 16.874L19.1845 16.8744L19.1598 16.875L19.1352 16.876L19.1108 16.8772L19.0862 16.8786L19.0619 16.8803L19.0377 16.8821L19.0135 16.8844L18.9895 16.8867L18.9655 16.8893L18.9417 16.8922L18.9179 16.8953L18.8944 16.8987L18.8708 16.9023L18.8474 16.906L18.8241 16.91L18.8011 16.9143L18.7779 16.9188L18.7551 16.9235L18.7322 16.9284L18.7096 16.9335Z" fill="#222222"/>
</svg>
