<svg width="115" height="36" viewBox="0 0 115 36" fill="none" xmlns="http://www.w3.org/2000/svg">
<path fill-rule="evenodd" clip-rule="evenodd" d="M56.8549 5.79719C57.9406 4.71116 59.7008 4.71116 60.7865 5.79719C61.8722 6.88329 61.8722 8.64418 60.7865 9.73029L54.1675 16.3519C52.2671 13.804 52.4735 10.1804 54.7868 7.86619L56.8549 5.79719Z" fill="#222222"/>
<path fill-rule="evenodd" clip-rule="evenodd" d="M66.3174 20.7366C67.4033 21.8226 67.4033 23.5836 66.3174 24.6696C65.2324 25.7557 63.4719 25.7557 62.3862 24.6696L55.7671 18.0481C58.314 16.147 61.9363 16.3535 64.2496 18.6676L66.3174 20.7366Z" fill="#222222"/>
<path fill-rule="evenodd" clip-rule="evenodd" d="M51.384 30.2028C50.2984 31.2889 48.5381 31.2889 47.4525 30.2028C46.3668 29.1167 46.3668 27.3558 47.4525 26.2697L54.0714 19.6482C55.9718 22.1961 55.7655 25.8197 53.4522 28.1338L51.384 30.2028Z" fill="#222222"/>
<path fill-rule="evenodd" clip-rule="evenodd" d="M41.9214 15.2633C40.8358 14.1772 40.8358 12.4163 41.9214 11.3302C43.0071 10.2441 44.7673 10.2441 45.853 11.3302L52.4721 17.9518C49.9252 19.8529 46.3029 19.6464 43.9897 17.3323L41.9214 15.2633Z" fill="#222222"/>
<path fill-rule="evenodd" clip-rule="evenodd" d="M55.376 29.3919C56.9768 27.6113 57.7209 25.3329 57.608 23.0896L60.7868 26.2697C60.7947 26.2776 60.8027 26.2855 60.8107 26.2934V28.5637C60.8107 30.0997 59.566 31.3448 58.0307 31.3448C56.7836 31.3448 55.7283 30.5234 55.376 29.3919Z" fill="#222222"/>
<path fill-rule="evenodd" clip-rule="evenodd" d="M42.732 19.2568C44.5118 20.8584 46.7894 21.6027 49.0318 21.4898L45.853 24.6698C45.845 24.6777 45.8371 24.6857 45.8293 24.6936H43.5598C42.0244 24.6937 40.7798 23.4485 40.7798 21.9125C40.7798 20.6651 41.6009 19.6093 42.732 19.2568Z" fill="#222222"/>
<path fill-rule="evenodd" clip-rule="evenodd" d="M65.5069 16.7433C63.7272 15.1417 61.4497 14.3974 59.2073 14.5102L62.386 11.3303C62.394 11.3224 62.4018 11.3144 62.4097 11.3064H64.6793C66.2149 11.3064 67.4596 12.5516 67.4596 14.0876C67.4596 15.3351 66.6382 16.3908 65.5069 16.7433Z" fill="#222222"/>
<path fill-rule="evenodd" clip-rule="evenodd" d="M52.8632 6.60803C51.2623 8.38856 50.5183 10.667 50.6311 12.9103L47.4523 9.73026C47.4443 9.72236 47.4364 9.71445 47.4285 9.70655V7.43619C47.4285 5.90024 48.6731 4.65503 50.2085 4.65503C51.4556 4.65503 52.5108 5.47653 52.8632 6.60803Z" fill="#222222"/>
<path fill-rule="evenodd" clip-rule="evenodd" d="M50.2087 2.39233C47.4242 2.39233 45.1668 4.65055 45.1668 7.43617V8.41716C43.4915 7.97929 41.635 8.41693 40.3222 9.73022C38.3532 11.7 38.3532 14.8936 40.3222 16.8633L41.0155 17.5569C39.5215 18.4324 38.5181 20.0551 38.5181 21.9123C38.5181 24.6979 40.7754 26.9561 43.56 26.9561H44.5405C44.1028 28.632 44.5403 30.4893 45.8531 31.8025C47.8221 33.7723 51.0145 33.7723 52.9835 31.8025L55.0516 29.7336C56.8761 27.9085 57.7282 25.479 57.6079 23.0894L60.7868 26.2694C62.7558 28.2392 65.9483 28.2392 67.9174 26.2694C69.8865 24.2997 69.8865 21.1061 67.9174 19.1364L67.2243 18.4428C68.7177 17.5674 69.7214 15.9447 69.7214 14.0875C69.7214 11.3019 67.4636 9.04364 64.6794 9.04364H63.6988C64.1365 7.36769 63.699 5.5104 62.3862 4.19711C60.4173 2.22736 57.2249 2.22736 55.2559 4.19711L53.1877 6.26609C51.3633 8.0912 50.5112 10.5207 50.6314 12.9103L47.4525 9.73022C47.4446 9.72232 47.4367 9.71441 47.4287 9.70651V7.43617C47.4287 5.90022 48.6734 4.65509 50.2087 4.65509C51.4558 4.65509 52.5111 5.47652 52.8634 6.60801C52.9679 6.49187 53.076 6.37785 53.1877 6.26609L54.5624 4.89073C53.6874 3.39611 52.0652 2.39233 50.2087 2.39233ZM62.4099 11.3064C62.402 11.3143 62.3942 11.3223 62.3862 11.3302L59.2074 14.5102C61.4499 14.3973 63.7274 15.1416 65.5071 16.7432C66.6383 16.3907 67.4597 15.335 67.4597 14.0875C67.4597 12.5515 66.2151 11.3064 64.6794 11.3064H62.4099ZM45.8293 24.6934C45.8372 24.6854 45.8451 24.6774 45.8531 24.6695L49.0319 21.4895C46.7895 21.6024 44.512 20.8581 42.7322 19.2566C41.6011 19.6091 40.7799 20.6648 40.7799 21.9123C40.7799 23.4483 42.0246 24.6934 43.56 24.6934H45.8293ZM58.0307 33.6075C56.1741 33.6075 54.552 32.6036 53.6769 31.109L55.0516 29.7336C55.1634 29.6219 55.2715 29.5078 55.3759 29.3917C55.7282 30.5232 56.7835 31.3447 58.0307 31.3447C59.566 31.3447 60.8107 30.0996 60.8107 28.5636V26.2933C61.4622 26.9365 62.2453 27.3663 63.0726 27.5825V28.5636C63.0726 31.3492 60.8152 33.6075 58.0307 33.6075ZM60.7868 5.79707C59.7011 4.71105 57.9409 4.71105 56.8552 5.79707L54.787 7.86605C52.4738 10.1802 52.2674 13.8039 54.1678 16.3517L60.7868 9.73014C61.8725 8.64404 61.8725 6.88318 60.7868 5.79707ZM66.3176 24.6694C67.4034 23.5833 67.4034 21.8225 66.3176 20.7364L64.2496 18.6674C61.9364 16.3533 58.314 16.1468 55.7671 18.0479L62.3862 24.6694C63.4719 25.7555 65.2325 25.7555 66.3176 24.6694ZM51.3841 30.2026C50.2984 31.2887 48.5382 31.2887 47.4525 30.2026C46.3669 29.1165 46.3669 27.3556 47.4525 26.2695L54.0715 19.6479C55.9719 22.1958 55.7655 25.8195 53.4523 28.1336L51.3841 30.2026ZM41.9215 11.3302C40.8359 12.4163 40.8359 14.1772 41.9215 15.2633L43.9897 17.3322C46.303 19.6463 49.9253 19.8529 52.4722 17.9518L45.8531 11.3302C44.7674 10.2442 43.0072 10.2442 41.9215 11.3302Z" fill="#222222"/>
<path d="M1.19897 12.592H3.67155V20.2782H7.91825V22.3604H1.19897V12.592Z" fill="#222222"/>
<path d="M12.4077 22.57C11.5788 22.57 10.8524 22.4209 10.2284 22.1228C9.60444 21.8153 9.12018 21.3961 8.77558 20.8651C8.44035 20.3247 8.27271 19.7052 8.27271 19.0064C8.27271 18.3077 8.44035 17.6928 8.77558 17.1618C9.12018 16.6214 9.60444 16.2022 10.2284 15.9041C10.8524 15.5966 11.5788 15.4429 12.4077 15.4429C13.2366 15.4429 13.9629 15.5966 14.5869 15.9041C15.2109 16.2022 15.6905 16.6214 16.0257 17.1618C16.3703 17.6928 16.5426 18.3077 16.5426 19.0064C16.5426 19.7052 16.3703 20.3247 16.0257 20.8651C15.6905 21.3961 15.2109 21.8153 14.5869 22.1228C13.9629 22.4209 13.2366 22.57 12.4077 22.57ZM12.4077 20.6554C12.9013 20.6554 13.2924 20.511 13.5811 20.2223C13.8792 19.9241 14.0281 19.5189 14.0281 19.0064C14.0281 18.494 13.8792 18.0934 13.5811 17.8046C13.2924 17.5065 12.9013 17.3574 12.4077 17.3574C11.9141 17.3574 11.5183 17.5065 11.2203 17.8046C10.9316 18.0934 10.7872 18.494 10.7872 19.0064C10.7872 19.5189 10.9316 19.9241 11.2203 20.2223C11.5183 20.511 11.9141 20.6554 12.4077 20.6554Z" fill="#222222"/>
<path d="M21.161 25.5746C20.714 25.5746 20.2623 25.5327 19.806 25.4488C19.359 25.3649 18.9724 25.2532 18.6465 25.1134V23.4085C19.3822 23.7252 20.2204 23.8836 21.161 23.8836C21.8408 23.8836 22.3298 23.7438 22.6278 23.4644C22.9351 23.1849 23.0888 22.775 23.0888 22.2346V21.8294C22.8187 22.0623 22.4834 22.2439 22.083 22.3744C21.6918 22.5048 21.2727 22.57 20.8257 22.57C20.1179 22.57 19.494 22.4209 18.9538 22.1228C18.4137 21.8247 17.9899 21.4054 17.6826 20.8651C17.3845 20.3247 17.2356 19.7052 17.2356 19.0064C17.2356 18.2984 17.3845 17.6742 17.6826 17.1339C17.9806 16.5935 18.3997 16.1788 18.9399 15.8901C19.48 15.592 20.0993 15.4429 20.7978 15.4429C21.7571 15.4429 22.5486 15.7363 23.1726 16.3233V15.6525H25.5474V21.8992C25.5474 23.0638 25.1888 23.9675 24.4718 24.6104C23.764 25.2532 22.6604 25.5746 21.161 25.5746ZM21.4404 20.6694C21.8222 20.6694 22.1621 20.5716 22.4601 20.376C22.7582 20.1803 22.9677 19.9195 23.0888 19.5934V18.4195C22.9584 18.0934 22.7442 17.8372 22.4462 17.6508C22.1481 17.4553 21.8129 17.3574 21.4404 17.3574C20.9375 17.3574 20.5323 17.5065 20.225 17.8046C19.9177 18.0934 19.764 18.4893 19.764 18.9925C19.764 19.5048 19.9177 19.9148 20.225 20.2223C20.5323 20.5204 20.9375 20.6694 21.4404 20.6694Z" fill="#222222"/>
<path d="M30.3061 22.57C29.4773 22.57 28.7509 22.4209 28.1269 22.1228C27.503 21.8153 27.0186 21.3961 26.6741 20.8651C26.3388 20.3247 26.1711 19.7052 26.1711 19.0064C26.1711 18.3077 26.3388 17.6928 26.6741 17.1618C27.0186 16.6214 27.503 16.2022 28.1269 15.9041C28.7509 15.5966 29.4773 15.4429 30.3061 15.4429C31.135 15.4429 31.8614 15.5966 32.4853 15.9041C33.1093 16.2022 33.589 16.6214 33.9243 17.1618C34.2688 17.6928 34.4411 18.3077 34.4411 19.0064C34.4411 19.7052 34.2688 20.3247 33.9243 20.8651C33.589 21.3961 33.1093 21.8153 32.4853 22.1228C31.8614 22.4209 31.135 22.57 30.3061 22.57ZM30.3061 20.6554C30.7997 20.6554 31.1909 20.511 31.4796 20.2223C31.7776 19.9241 31.9266 19.5189 31.9266 19.0064C31.9266 18.494 31.7776 18.0934 31.4796 17.8046C31.1909 17.5065 30.7997 17.3574 30.3061 17.3574C29.8126 17.3574 29.4167 17.5065 29.1187 17.8046C28.83 18.0934 28.6857 18.494 28.6857 19.0064C28.6857 19.5189 28.83 19.9241 29.1187 20.2223C29.4167 20.511 29.8126 20.6554 30.3061 20.6554Z" fill="#222222"/>
<path d="M73.8752 12.592H76.3481V22.3604H73.8752V12.592Z" fill="#222222"/>
<path d="M77.6001 15.6525H79.9751V16.3233C80.5986 15.7363 81.3903 15.4429 82.3494 15.4429C83.048 15.4429 83.6676 15.592 84.2074 15.8901C84.748 16.1788 85.1666 16.5935 85.4646 17.1339C85.7627 17.6649 85.9121 18.2844 85.9121 18.9925C85.9121 19.6912 85.7627 20.3154 85.4646 20.8651C85.1666 21.4054 84.748 21.8247 84.2074 22.1228C83.677 22.4209 83.0574 22.57 82.3494 22.57C81.9027 22.57 81.474 22.5001 81.0649 22.3603C80.6643 22.23 80.3287 22.0482 80.0588 21.8153V25.4208H77.6001V15.6525ZM81.7072 20.6554C82.2102 20.6554 82.6154 20.5064 82.9221 20.2083C83.2295 19.9102 83.3837 19.5048 83.3837 18.9925C83.3837 18.48 83.2295 18.0795 82.9221 17.7906C82.6154 17.4925 82.2102 17.3434 81.7072 17.3434C81.3348 17.3434 80.9992 17.4413 80.7011 17.6369C80.403 17.8233 80.1895 18.0795 80.0588 18.4055V19.5934C80.1895 19.9195 80.403 20.1803 80.7011 20.376C80.9992 20.5623 81.3348 20.6554 81.7072 20.6554Z" fill="#222222"/>
<path d="M89.5772 22.57C89.0374 22.57 88.4742 22.5141 87.8874 22.4023C87.3007 22.2999 86.8344 22.1508 86.4902 21.9551V20.1524C86.872 20.376 87.3281 20.5623 87.8593 20.7114C88.399 20.8511 88.8927 20.921 89.3402 20.921C89.6656 20.921 89.9034 20.8977 90.0521 20.8511C90.2015 20.8045 90.2758 20.7114 90.2758 20.5716C90.2758 20.4598 90.225 20.3713 90.1225 20.3061C90.0294 20.2316 89.8518 20.157 89.5913 20.0825C89.3402 19.9987 89.0468 19.9102 88.7112 19.8169C88.1432 19.6492 87.6965 19.4769 87.3703 19.2999C87.0441 19.1229 86.8023 18.8993 86.6435 18.6291C86.4855 18.3589 86.4065 18.0189 86.4065 17.609C86.4065 16.8822 86.6905 16.3419 87.2584 15.9879C87.8358 15.6245 88.6228 15.4429 89.6195 15.4429C90.1037 15.4429 90.6114 15.4941 91.1418 15.5966C91.6824 15.6991 92.0869 15.8342 92.3576 16.0019V17.7767C92.0783 17.5904 91.7051 17.4366 91.2396 17.3155C90.7835 17.1944 90.3548 17.1339 89.9543 17.1339C89.6382 17.1339 89.391 17.1664 89.2142 17.2316C89.0374 17.2876 88.949 17.39 88.949 17.5391C88.949 17.6789 89.0374 17.786 89.2142 17.8605C89.391 17.935 89.7079 18.0282 90.1639 18.14C90.462 18.2146 90.588 18.2471 90.541 18.2378C91.1371 18.3962 91.5979 18.5732 91.9241 18.7689C92.2504 18.9645 92.478 19.1974 92.6087 19.4676C92.7487 19.7284 92.8183 20.0639 92.8183 20.4738C92.8183 21.1166 92.539 21.629 91.9805 22.011C91.4305 22.3837 90.6294 22.57 89.5772 22.57Z" fill="#222222"/>
<path d="M96.4889 22.5701C95.5673 22.5701 94.8734 22.3139 94.4079 21.8015C93.9518 21.2891 93.7234 20.6137 93.7234 19.7752V15.6526H96.1822V19.4957C96.1822 20.269 96.5311 20.6556 97.2297 20.6556C97.5466 20.6556 97.8352 20.5811 98.0957 20.432C98.3562 20.2829 98.5706 20.064 98.738 19.7752V15.6526H101.197V22.3605H98.8225V21.6338C98.5338 21.9412 98.1841 22.1741 97.7742 22.3325C97.3651 22.4909 96.9363 22.5701 96.4889 22.5701Z" fill="#222222"/>
<path d="M102.456 15.6525H104.733V16.3792C105.012 16.0811 105.334 15.8528 105.697 15.6944C106.06 15.5267 106.446 15.4429 106.856 15.4429C107.359 15.4429 107.76 15.5174 108.058 15.6665C108.365 15.8155 108.612 16.0391 108.798 16.3372C109.077 16.0578 109.417 15.8388 109.818 15.6805C110.218 15.5221 110.624 15.4429 111.033 15.4429C111.918 15.4429 112.547 15.6712 112.919 16.1277C113.291 16.5748 113.478 17.2223 113.478 18.0701V22.3604H111.131V18.4195C111.131 18.0468 111.061 17.7767 110.921 17.609C110.782 17.4413 110.549 17.3574 110.223 17.3574C109.804 17.3574 109.464 17.5065 109.203 17.8046C109.212 17.963 109.217 18.2052 109.217 18.5313V22.3604H106.87V18.3217C106.87 17.977 106.81 17.73 106.689 17.581C106.567 17.432 106.353 17.3574 106.046 17.3574C105.571 17.3574 105.162 17.6229 104.817 18.154V22.3604H102.456V15.6525Z" fill="#222222"/>
</svg>
