<svg width="116" height="28" viewBox="0 0 116 28" fill="none" xmlns="http://www.w3.org/2000/svg">
<g clip-path="url(#clip0_1_1413)">
<path d="M35.3868 19.2161H43.5423V16.7576H38.2855V7.49707H35.3868V19.2161Z" fill="#222222"/>
<path d="M48.3742 17.5772C47.2115 17.5772 46.6056 16.561 46.6056 15.0367C46.6056 13.5124 47.2115 12.4798 48.3742 12.4798C49.5369 12.4798 50.1593 13.5124 50.1593 15.0367C50.1593 16.561 49.5369 17.5772 48.3742 17.5772ZM48.3906 19.4785C51.0927 19.4785 52.8614 17.5608 52.8614 15.0367C52.8614 12.5126 51.0927 10.595 48.3906 10.595C45.7049 10.595 43.9034 12.5126 43.9034 15.0367C43.9034 17.5608 45.7049 19.4785 48.3906 19.4785Z" fill="#222222"/>
<path d="M57.5385 22.1173C58.7832 22.1173 59.8804 21.8387 60.6173 21.1831C61.2888 20.5767 61.7309 19.6588 61.7309 18.3968V10.8245H59.1762V11.7259H59.1434C58.6521 11.0212 57.8988 10.5786 56.7852 10.5786C54.7054 10.5786 53.2643 12.316 53.2643 14.7745C53.2643 17.3478 55.0166 18.7573 56.8999 18.7573C57.9152 18.7573 58.5539 18.3476 59.0452 17.7903H59.1107V18.6262C59.1107 19.6424 58.6358 20.2325 57.5058 20.2325C56.6215 20.2325 56.1793 19.8555 56.0319 19.413H53.4444C53.7064 21.1667 55.2295 22.1173 57.5385 22.1173ZM57.5222 16.7741C56.5232 16.7741 55.8681 15.9546 55.8681 14.6926C55.8681 13.4141 56.5232 12.5946 57.5222 12.5946C58.6358 12.5946 59.2253 13.5452 59.2253 14.6762C59.2253 15.8563 58.6849 16.7741 57.5222 16.7741Z" fill="#222222"/>
<path d="M66.9838 17.5772C65.8211 17.5772 65.2152 16.561 65.2152 15.0367C65.2152 13.5124 65.8211 12.4798 66.9838 12.4798C68.1466 12.4798 68.7689 13.5124 68.7689 15.0367C68.7689 16.561 68.1466 17.5772 66.9838 17.5772ZM67.0002 19.4785C69.7023 19.4785 71.471 17.5608 71.471 15.0367C71.471 12.5126 69.7023 10.595 67.0002 10.595C64.3145 10.595 62.5131 12.5126 62.5131 15.0367C62.5131 17.5608 64.3145 19.4785 67.0002 19.4785Z" fill="#222222"/>
<path d="M72.2502 19.2161H74.9196V10.8243H72.2502V19.2161ZM72.2502 9.66058H74.9196V7.49707H72.2502V9.66058Z" fill="#222222"/>
<path d="M76.0782 21.9862H78.7476V18.3476H78.7804C79.3044 19.0524 80.0741 19.4785 81.1549 19.4785C83.3494 19.4785 84.8069 17.7411 84.8069 15.0204C84.8069 12.4963 83.4477 10.5786 81.2205 10.5786C80.0741 10.5786 79.2553 11.0867 78.6821 11.8407H78.633V10.8245H76.0782V21.9862ZM80.4671 17.4133C79.3208 17.4133 78.6657 16.4791 78.6657 15.1187C78.6657 13.7583 79.2553 12.7257 80.418 12.7257C81.5644 12.7257 82.1048 13.6764 82.1048 15.1187C82.1048 16.5447 81.4825 17.4133 80.4671 17.4133Z" fill="#222222"/>
<path d="M89.1528 19.4785C91.3473 19.4785 92.9685 18.5279 92.9685 16.6922C92.9685 14.5451 91.2326 14.1681 89.7587 13.9222C88.6943 13.7255 87.7444 13.6436 87.7444 13.0535C87.7444 12.5291 88.2521 12.2832 88.9072 12.2832C89.6441 12.2832 90.1518 12.5127 90.25 13.2666H92.7065C92.5755 11.6112 91.2981 10.5786 88.9235 10.5786C86.942 10.5786 85.3043 11.4965 85.3043 13.2666C85.3043 15.2334 86.8601 15.6268 88.3176 15.8727C89.4312 16.0693 90.4466 16.1513 90.4466 16.9052C90.4466 17.4461 89.9389 17.7412 89.1364 17.7412C88.2521 17.7412 87.6953 17.3314 87.597 16.4955H85.0751C85.157 18.3476 86.6963 19.4785 89.1528 19.4785Z" fill="#222222"/>
<path d="M96.5946 19.4621C97.7573 19.4621 98.4943 19.0032 99.1002 18.1837H99.1493V19.2163H101.704V10.8245H99.0347V15.5121C99.0347 16.5119 98.4779 17.2003 97.5608 17.2003C96.7093 17.2003 96.2998 16.6922 96.2998 15.7743V10.8245H93.6469V16.3316C93.6469 18.2001 94.6622 19.4621 96.5946 19.4621Z" fill="#222222"/>
<path d="M102.865 19.2163H105.534V14.5123C105.534 13.5125 106.025 12.8077 106.861 12.8077C107.663 12.8077 108.04 13.3322 108.04 14.2336V19.2163H110.709V14.5123C110.709 13.5125 111.184 12.8077 112.036 12.8077C112.838 12.8077 113.215 13.3322 113.215 14.2336V19.2163H115.884V13.7583C115.884 11.8734 114.934 10.5786 113.035 10.5786C111.954 10.5786 111.053 11.0375 110.398 12.0537H110.365C109.939 11.1523 109.104 10.5786 108.007 10.5786C106.795 10.5786 105.993 11.1523 105.469 12.021H105.419V10.8245H102.865V19.2163Z" fill="#222222"/>
<path fill-rule="evenodd" clip-rule="evenodd" d="M14.1139 27.4113C21.6509 27.4113 27.7609 21.2962 27.7609 13.7528C27.7609 6.20938 21.6509 0.0942383 14.1139 0.0942383C6.57678 0.0942383 0.466797 6.20938 0.466797 13.7528C0.466797 21.2962 6.57678 27.4113 14.1139 27.4113ZM18.3713 6.45696C18.5785 5.72022 17.8641 5.28457 17.2118 5.74976L8.10445 12.2432C7.39692 12.7477 7.50821 13.7528 8.27163 13.7528H10.6698V13.7342H15.3438L11.5354 15.0791L9.85646 21.0486C9.64923 21.7853 10.3635 22.221 11.016 21.7558L20.1233 15.2624C20.8308 14.7579 20.7195 13.7528 19.9561 13.7528H16.3193L18.3713 6.45696Z" fill="#222222"/>
</g>
<defs>
<clipPath id="clip0_1_1413">
<rect width="116" height="28" fill="white"/>
</clipPath>
</defs>
</svg>
