<svg width="136" height="36" viewBox="0 0 136 36" fill="none" xmlns="http://www.w3.org/2000/svg">
<path d="M31.4449 12.6001C31.8158 12.6001 31.9394 12.7338 31.9394 13.0938V21.2401H36.1327C36.4933 21.2401 36.6273 21.3738 36.6273 21.7338V22.4538C36.6273 22.8138 36.4933 22.9475 36.1327 22.9475H30.6103C30.2497 22.9475 30.1055 22.8138 30.1055 22.4538V13.0938C30.1055 12.7338 30.2497 12.6001 30.6103 12.6001H31.4449Z" fill="#222222"/>
<path d="M40.2848 16.1897C40.2848 13.8137 41.789 12.384 44.406 12.384C47.023 12.384 48.5272 13.8137 48.5272 16.1897V19.3577C48.5272 21.7337 47.0127 23.1635 44.406 23.1635C41.7993 23.1635 40.2848 21.7337 40.2848 19.3577V16.1897ZM46.7963 16.1897C46.7963 14.8526 45.9618 14.1326 44.4575 14.1326C42.9533 14.1326 42.129 14.8629 42.129 16.1897V19.3783C42.129 20.7257 42.9533 21.4355 44.4575 21.4355C45.9618 21.4355 46.7963 20.6949 46.7963 19.3783V16.1897Z" fill="#222222"/>
<path d="M60.7982 17.2799C61.2 17.2799 61.2928 17.4136 61.2928 17.7736V19.7279C61.3037 20.1882 61.2113 20.6452 61.0223 21.0652C60.8333 21.4852 60.5526 21.8577 60.2006 22.1553C59.3266 22.8501 58.2246 23.1948 57.1097 23.1222C54.4413 23.1222 52.9885 21.6925 52.9885 19.3165V16.1279C52.9885 13.7828 54.4928 12.3428 57.1097 12.3428C59.1703 12.3428 60.5097 13.1553 61.0764 14.7805C61.1081 14.8416 61.1251 14.9092 61.1261 14.9779C61.127 15.0467 61.1118 15.1148 61.0819 15.1766C61.0519 15.2385 61.0078 15.2926 60.9532 15.3346C60.8986 15.3764 60.8349 15.4051 60.7673 15.4182L59.9637 15.6959C59.6134 15.8193 59.4691 15.7473 59.3455 15.3873C59.1748 14.948 58.8623 14.578 58.4574 14.3358C58.0525 14.0937 57.5783 13.9931 57.1097 14.0502C55.5952 14.0502 54.7709 14.7805 54.7709 16.1073V19.3782C54.7709 20.7256 55.6055 21.4353 57.1097 21.4353C58.614 21.4353 59.5413 20.7462 59.5413 19.7382V18.9771H57.3055C56.9346 18.9771 56.8006 18.8331 56.8006 18.4731V17.7736C56.8006 17.4136 56.9346 17.2799 57.3055 17.2799H60.7982Z" fill="#222222"/>
<path d="M65.5479 16.1897C65.5479 13.8137 67.0521 12.384 69.6691 12.384C72.286 12.384 73.7903 13.8137 73.7903 16.1897V19.3577C73.7903 21.7337 72.2757 23.1635 69.6691 23.1635C67.0624 23.1635 65.5479 21.7337 65.5479 19.3577V16.1897ZM72.0491 16.1897C72.0491 14.8526 71.2145 14.1326 69.7206 14.1326C68.2266 14.1326 67.3818 14.8629 67.3818 16.1897V19.3783C67.3818 20.7257 68.2163 21.4355 69.7206 21.4355C71.2248 21.4355 72.0491 20.6949 72.0491 19.3783V16.1897Z" fill="#222222"/>
<path d="M78.6431 12.8984C78.6431 12.6721 78.7152 12.6001 78.9419 12.6001H79.4158C79.6425 12.6001 79.694 12.6721 79.694 12.8984V22.6492C79.694 22.8755 79.694 22.9475 79.4158 22.9475H78.9419C78.7152 22.9475 78.6431 22.8755 78.6431 22.6492V12.8984Z" fill="#222222"/>
<path d="M89.08 12.6001C89.9381 12.6001 90.7609 12.9403 91.3676 13.5461C91.9744 14.1517 92.3152 14.9732 92.3152 15.8298C92.3152 16.6864 91.9744 17.5079 91.3676 18.1135C90.7609 18.7193 89.9381 19.0595 89.08 19.0595H85.9891V22.6492C85.9891 22.8755 85.9376 22.9475 85.7213 22.9475H85.237C85.0207 22.9475 84.9382 22.8755 84.9382 22.6492V12.8984C84.9382 12.6721 85.0207 12.6001 85.237 12.6001H89.08ZM88.9873 18.0412C89.2823 18.0412 89.5744 17.9832 89.8469 17.8706C90.1193 17.7579 90.367 17.5927 90.5755 17.3845C90.7841 17.1763 90.9495 16.929 91.0625 16.6571C91.1753 16.385 91.2334 16.0934 91.2334 15.799C91.2334 15.5045 91.1753 15.2129 91.0625 14.9408C90.9495 14.6689 90.7841 14.4216 90.5755 14.2134C90.367 14.0052 90.1193 13.84 89.8469 13.7273C89.5744 13.6147 89.2823 13.5567 88.9873 13.5567H85.8964V18.0412H88.9873Z" fill="#222222"/>
<path d="M100.362 12.3942C101.157 12.3066 101.96 12.4774 102.65 12.8814C103.34 13.2854 103.882 13.9009 104.195 14.6365C104.277 14.8011 104.195 14.9348 104.03 15.0171L103.576 15.2228C103.391 15.2948 103.319 15.2845 103.205 15.0891C102.972 14.5431 102.571 14.0854 102.059 13.7822C101.548 13.479 100.954 13.3459 100.362 13.4022C98.6206 13.4022 97.6727 14.0914 97.6727 15.3257C97.6626 15.7028 97.7895 16.0711 98.03 16.3622C98.2705 16.6532 98.6084 16.8477 98.9812 16.9097C99.5353 17.0901 100.11 17.2006 100.692 17.2388C101.396 17.2762 102.09 17.4184 102.752 17.6605C103.26 17.8209 103.697 18.1506 103.99 18.5946C104.282 19.0385 104.413 19.5694 104.359 20.0982C104.359 22.0217 102.958 23.184 100.382 23.184C99.5376 23.2804 98.6851 23.085 97.9671 22.6302C97.2491 22.1754 96.7088 21.4887 96.4364 20.6845C96.4181 20.6479 96.4084 20.6077 96.4075 20.5667C96.4067 20.5258 96.415 20.4853 96.4317 20.4479C96.4484 20.4106 96.4733 20.3774 96.5044 20.3507C96.5354 20.324 96.572 20.3046 96.6115 20.2937L97.0649 20.1291C97.1005 20.1145 97.1389 20.1075 97.1775 20.1085C97.216 20.1095 97.2539 20.1186 97.2888 20.1351C97.3237 20.1515 97.3548 20.175 97.38 20.2041C97.4054 20.2332 97.4243 20.2671 97.4358 20.3039C97.6662 20.885 98.0761 21.3777 98.6059 21.7106C99.1357 22.0435 99.758 22.1993 100.382 22.1554C102.33 22.1554 103.288 21.4765 103.288 20.0982C103.306 19.736 103.195 19.379 102.974 19.0907C102.753 18.8026 102.437 18.602 102.082 18.5245C101.549 18.3658 101 18.2691 100.444 18.2365L99.3315 18.0925C98.9833 18.0188 98.6394 17.926 98.3012 17.8148C97.9672 17.7141 97.6558 17.5499 97.3843 17.3314C97.1109 17.0843 96.8955 16.7803 96.753 16.4407C96.6106 16.1012 96.5447 15.7346 96.56 15.3668C96.6321 13.5668 97.9818 12.3942 100.362 12.3942Z" fill="#222222"/>
<path d="M109.913 19.4298C109.956 20.1572 110.276 20.8405 110.808 21.3401C111.34 21.8397 112.042 22.1178 112.772 22.1178C113.501 22.1178 114.204 21.8397 114.736 21.3401C115.267 20.8405 115.587 20.1572 115.631 19.4298V12.8984C115.631 12.6721 115.703 12.6001 115.93 12.6001H116.404C116.63 12.6001 116.702 12.6721 116.702 12.8984V19.4195C116.702 21.7544 115.322 23.1635 112.777 23.1635C110.232 23.1635 108.852 21.7544 108.852 19.4195V12.8984C108.852 12.6721 108.924 12.6001 109.14 12.6001H109.624C109.841 12.6001 109.913 12.6721 109.913 12.8984V19.4298Z" fill="#222222"/>
<path d="M130.921 12.5999C131.147 12.5999 131.219 12.6719 131.219 12.8982V22.649C131.219 22.8753 131.147 22.9473 130.921 22.9473H130.488C130.271 22.9473 130.199 22.8753 130.199 22.649V16.7142C130.199 15.8507 130.258 14.9881 130.375 14.1325H130.313C129.991 14.9149 129.615 15.6744 129.19 16.4056L126.975 20.3039C126.948 20.3716 126.9 20.4294 126.84 20.4698C126.779 20.5101 126.708 20.5312 126.635 20.5302H126.346C126.272 20.5306 126.2 20.5093 126.137 20.4692C126.075 20.429 126.026 20.3716 125.996 20.3039L123.75 16.3645C123.351 15.6438 123.007 14.8942 122.719 14.1222H122.658C122.763 14.9857 122.818 15.8546 122.822 16.7245V22.649C122.822 22.8753 122.75 22.9473 122.524 22.9473H122.122C121.895 22.9473 121.823 22.8753 121.823 22.649V12.8982C121.823 12.6719 121.895 12.5999 122.122 12.5999H122.493C122.577 12.5921 122.663 12.6105 122.736 12.6529C122.81 12.6952 122.869 12.7594 122.905 12.8365L126.511 19.2342L130.096 12.8982C130.21 12.6822 130.271 12.6513 130.498 12.6513L130.921 12.5999Z" fill="#222222"/>
<path d="M13.1158 21.384V28.8205C13.1158 29.1057 13.0023 29.3791 12.8004 29.5806C12.5985 29.7822 12.3247 29.8954 12.0391 29.8954C11.7536 29.8954 11.4797 29.7822 11.2778 29.5806C11.0759 29.3791 10.9624 29.1057 10.9624 28.8205V21.3943C11.2622 21.6128 11.6216 21.7348 11.9927 21.744C12.3972 21.7555 12.7936 21.6285 13.1158 21.384ZM22.2855 19.2343C22.0122 19.2343 21.7501 19.3427 21.5569 19.5355C21.3638 19.7284 21.2552 19.9901 21.2552 20.2628V21.5588C21.2552 21.844 21.3686 22.1173 21.5705 22.3188C21.7724 22.5204 22.0462 22.6337 22.3318 22.6337C22.6174 22.6337 22.8913 22.5204 23.0931 22.3188C23.2951 22.1173 23.4085 21.844 23.4085 21.5588V20.3143C23.4165 20.1668 23.3926 20.0193 23.3384 19.8819C23.2842 19.7444 23.2011 19.6202 23.0945 19.5177C22.9879 19.4153 22.8605 19.3369 22.721 19.288C22.5814 19.2391 22.4328 19.2208 22.2855 19.2343ZM8.62364 24.2023C8.25291 24.1912 7.89401 24.0694 7.59334 23.8526V31.3097C7.59334 31.5961 7.70731 31.8709 7.9102 32.0734C8.11307 32.2759 8.38824 32.3897 8.67516 32.3897C8.96207 32.3897 9.23724 32.2759 9.44011 32.0734C9.643 31.8709 9.75697 31.5961 9.75697 31.3097V23.904C9.42053 24.1211 9.02356 24.2256 8.62364 24.2023ZM18.9267 17.0023C18.7871 16.9953 18.6476 17.0168 18.5165 17.0653C18.3856 17.1139 18.2658 17.1885 18.1646 17.2847C18.0634 17.381 17.9829 17.4967 17.9279 17.625C17.873 17.7532 17.8446 17.8914 17.8449 18.0308V23.76C17.8449 24.0464 17.9588 24.3212 18.1617 24.5237C18.3646 24.7262 18.6397 24.84 18.9267 24.84C19.2136 24.84 19.4888 24.7262 19.6917 24.5237C19.8945 24.3212 20.0085 24.0464 20.0085 23.76V18.1028C20.0167 17.9544 19.9926 17.806 19.9378 17.6677C19.883 17.5295 19.7989 17.4047 19.6912 17.3021C19.5834 17.1994 19.4547 17.1213 19.3139 17.0731C19.173 17.0249 19.0233 17.0077 18.8752 17.0228L18.9267 17.0023ZM15.5061 19.2034C15.118 19.2007 14.7402 19.0786 14.4242 18.8537V26.3314C14.4242 26.6179 14.5382 26.8926 14.7411 27.0951C14.944 27.2976 15.2191 27.4114 15.5061 27.4114C15.793 27.4114 16.0681 27.2976 16.2711 27.0951C16.4739 26.8926 16.5879 26.6179 16.5879 26.3314V18.864C16.2611 19.107 15.862 19.2337 15.4545 19.224L15.5061 19.2034ZM6.28485 24.9325V4.04226C6.28214 3.78762 6.17891 3.54434 5.99757 3.36524C5.81624 3.18613 5.57145 3.08568 5.31637 3.08569H5.0897C4.83462 3.08568 4.58983 3.18613 4.4085 3.36524C4.22716 3.54434 4.12393 3.78762 4.12122 4.04226V24.9325C4.12122 25.189 4.22326 25.4349 4.40488 25.6162C4.5865 25.7976 4.83285 25.8994 5.0897 25.8994H5.31637C5.57323 25.8994 5.81957 25.7976 6.00119 25.6162C6.18282 25.4349 6.28485 25.189 6.28485 24.9325ZM8.73697 23.4103H8.51031C8.25345 23.4103 8.00711 23.3084 7.82549 23.1271C7.64386 22.9458 7.54182 22.6998 7.54182 22.4434V6.53141C7.54454 6.27677 7.64777 6.03348 7.8291 5.85438C8.01044 5.67528 8.25522 5.57483 8.51031 5.57484H8.73697C8.99206 5.57483 9.23685 5.67528 9.41818 5.85438C9.59951 6.03348 9.70275 6.27677 9.70546 6.53141V22.464C9.70546 22.7204 9.60342 22.9663 9.4218 23.1477C9.24017 23.329 8.99383 23.4308 8.73697 23.4308V23.4103ZM12.1473 20.9623H11.9103C11.6562 20.9623 11.4125 20.8615 11.2328 20.6821C11.0531 20.5027 10.9521 20.2594 10.9521 20.0057V8.99998C10.9508 8.8735 10.9746 8.748 11.0221 8.63075C11.0696 8.51351 11.1399 8.40684 11.2291 8.31693C11.3182 8.22701 11.4243 8.15562 11.5413 8.10691C11.6582 8.0582 11.7836 8.03311 11.9103 8.03312H12.1473C12.4024 8.03584 12.646 8.13889 12.8254 8.31992C13.0049 8.50095 13.1055 8.74533 13.1055 8.99998V20.0057C13.1055 20.2594 13.0045 20.5027 12.8248 20.6821C12.6451 20.8615 12.4015 20.9623 12.1473 20.9623ZM15.5576 18.4423H15.3412C15.0861 18.4423 14.8413 18.3419 14.66 18.1627C14.4786 17.9836 14.3754 17.7404 14.3727 17.4857V11.5611C14.3643 11.4291 14.383 11.2967 14.428 11.1721C14.4728 11.0477 14.5428 10.9336 14.6336 10.8372C14.7244 10.7407 14.834 10.664 14.9558 10.6115C15.0775 10.5592 15.2086 10.5322 15.3412 10.5325H15.5679C15.8247 10.5325 16.0711 10.6344 16.2527 10.8157C16.4344 10.9971 16.5364 11.243 16.5364 11.4994V17.4651C16.5377 17.593 16.5137 17.7198 16.4656 17.8383C16.4176 17.9568 16.3465 18.0646 16.2563 18.1555C16.1663 18.2463 16.0591 18.3184 15.9409 18.3677C15.8227 18.417 15.6959 18.4423 15.5679 18.4423H15.5576ZM18.9782 16.2308H18.7515C18.4947 16.2308 18.2483 16.129 18.0667 15.9477C17.885 15.7663 17.783 15.5204 17.783 15.264V13.7314C17.7857 13.4767 17.8889 13.2335 18.0703 13.0544C18.2516 12.8752 18.4964 12.7748 18.7515 12.7748H18.9782C19.2333 12.7748 19.4781 12.8752 19.6594 13.0544C19.8408 13.2335 19.944 13.4767 19.9467 13.7314V15.264C19.9467 15.5187 19.8461 15.763 19.6666 15.9441C19.4873 16.1251 19.2436 16.2282 18.9885 16.2308H18.9782Z" fill="#222222"/>
</svg>
