<svg xmlns="http://www.w3.org/2000/svg" width="18" height="18" fill="none"><g fill="#222" clip-path="url(#a)"><path d="m11.663 9.747-1.507 1.513c-.611.613-1.687.626-2.312 0L6.337 9.747.922 15.18c.202.094.424.15.66.15h14.836c.236 0 .459-.056.66-.15l-5.415-5.432Z"/><path d="M16.418 2.672H1.582c-.236 0-.458.055-.66.149l5.786 5.805h.001v.002l1.882 1.887c.2.2.618.2.818 0l1.881-1.887v-.001l.002-.001 5.786-5.805a1.565 1.565 0 0 0-.66-.15ZM.168 3.558C.064 3.77 0 4.003 0 4.254v9.492c0 .25.064.485.168.696L5.592 9 .168 3.558ZM17.832 3.558 12.408 9l5.424 5.442c.104-.211.168-.445.168-.696V4.254c0-.251-.064-.485-.168-.696Z"/></g><defs><clipPath id="a"><path fill="#fff" d="M0 0h18v18H0z"/></clipPath></defs></svg>