<svg xmlns="http://www.w3.org/2000/svg" width="16" height="16" fill="none"><path fill="#222" fill-rule="evenodd" d="M7.936 0c4.383 0 7.936 3.582 7.936 8s-3.553 8-7.936 8S0 12.418 0 8s3.553-8 7.936-8Zm-.287.599c-.905.128-1.767.861-2.436 2.088-.195.356-.37.749-.522 1.173.91-.23 1.91-.366 2.958-.387V.599ZM4.02 4.052c.19-.6.423-1.153.69-1.644.333-.608.726-1.133 1.17-1.536A7.408 7.408 0 0 0 .865 5.926c.4-.447.92-.844 1.524-1.178a9.122 9.122 0 0 1 1.63-.696Zm-.19.676a13.487 13.487 0 0 0-.384 2.983H.594c.127-.913.855-1.782 2.071-2.456a8.23 8.23 0 0 1 1.164-.527Zm.19 2.983c.023-1.154.188-2.238.46-3.195.95-.275 2.025-.441 3.17-.465v1.25a4.24 4.24 0 0 1-2.391 2.41h-1.24Zm-.574.578H.594c.127.913.855 1.782 2.071 2.456a8.23 8.23 0 0 0 1.164.527 13.487 13.487 0 0 1-.384-2.983Zm1.035 3.195a12.684 12.684 0 0 1-.461-3.195h1.239a4.24 4.24 0 0 1 2.391 2.41v1.25a12.393 12.393 0 0 1-3.17-.465Zm-.46.464a9.122 9.122 0 0 1-1.631-.696c-.603-.334-1.124-.731-1.524-1.178a7.408 7.408 0 0 0 5.014 5.054c-.444-.403-.837-.928-1.17-1.536a9.274 9.274 0 0 1-.69-1.644ZM7.65 15.4c-.906-.128-1.768-.861-2.437-2.088a8.357 8.357 0 0 1-.522-1.173c.91.23 1.91.366 2.958.387v2.874Zm2.343-.273c.444-.403.837-.928 1.17-1.536a9.28 9.28 0 0 0 .69-1.644 9.122 9.122 0 0 0 1.63-.696c.603-.334 1.124-.731 1.524-1.178a7.408 7.408 0 0 1-5.014 5.054Zm1.188-2.988a8.365 8.365 0 0 1-.521 1.173c-.67 1.227-1.532 1.96-2.437 2.088v-2.874a13.176 13.176 0 0 0 2.958-.387Zm.862-.868c.42-.154.81-.33 1.164-.527 1.216-.674 1.944-1.543 2.071-2.456h-2.851a13.481 13.481 0 0 1-.384 2.983Zm-.19-2.983a12.688 12.688 0 0 1-.46 3.195c-.95.275-2.025.441-3.17.465V10.7a4.24 4.24 0 0 1 2.392-2.412h1.238Zm.574-.578h2.851c-.127-.913-.855-1.782-2.072-2.456a8.228 8.228 0 0 0-1.163-.527c.228.918.363 1.925.384 2.983Zm-1.035-3.195c.273.957.438 2.04.461 3.195h-1.238a4.24 4.24 0 0 1-2.392-2.412V4.051c1.145.024 2.22.19 3.17.465Zm.46-.464a9.122 9.122 0 0 1 1.631.696c.603.334 1.124.731 1.524 1.178A7.408 7.408 0 0 0 9.993.872c.444.403.837.928 1.17 1.536.267.491.5 1.044.69 1.644ZM8.222.6c.906.128 1.768.861 2.438 2.088.194.356.369.749.521 1.173-.91-.23-1.91-.366-2.958-.387V.599Z" clip-rule="evenodd"/></svg>