<svg xmlns="http://www.w3.org/2000/svg" width="115" height="36" fill="none"><path fill="#222" fill-rule="evenodd" d="M56.855 5.797a2.78 2.78 0 1 1 3.931 3.933l-6.619 6.622a6.51 6.51 0 0 1 .62-8.486l2.068-2.069ZM66.317 20.737a2.781 2.781 0 0 1-3.93 3.933l-6.62-6.622a6.504 6.504 0 0 1 8.483.62l2.067 2.069ZM51.384 30.203a2.78 2.78 0 0 1-3.931 0 2.782 2.782 0 0 1 0-3.933l6.618-6.622a6.51 6.51 0 0 1-.619 8.486l-2.068 2.069ZM41.921 15.263a2.782 2.782 0 0 1 0-3.933 2.78 2.78 0 0 1 3.932 0l6.62 6.622a6.504 6.504 0 0 1-8.483-.62l-2.069-2.069ZM55.376 29.392a8.749 8.749 0 0 0 2.232-6.302l3.179 3.18.024.023v2.27a2.78 2.78 0 0 1-5.435.829ZM42.732 19.257a8.74 8.74 0 0 0 6.3 2.233l-3.179 3.18a2.653 2.653 0 0 0-.024.024h-2.27a2.78 2.78 0 0 1-.827-5.437ZM65.507 16.743a8.74 8.74 0 0 0-6.3-2.233l3.179-3.18.024-.024h2.27a2.78 2.78 0 0 1 .827 5.437ZM52.863 6.608a8.749 8.749 0 0 0-2.232 6.302l-3.179-3.18-.023-.023v-2.27a2.78 2.78 0 0 1 5.434-.829Z" clip-rule="evenodd"/><path fill="#222" fill-rule="evenodd" d="M50.209 2.392a5.043 5.043 0 0 0-5.042 5.044v.981a5.045 5.045 0 0 0-4.845 8.446l.694.694a5.042 5.042 0 0 0-2.498 4.355 5.043 5.043 0 0 0 5.042 5.044h.98a5.043 5.043 0 0 0 8.444 4.846l2.068-2.068a8.748 8.748 0 0 0 2.556-6.645l3.179 3.18a5.04 5.04 0 0 0 7.13 0 5.045 5.045 0 0 0 0-7.133l-.693-.693a5.043 5.043 0 0 0-2.545-9.4h-.98a5.043 5.043 0 0 0-8.443-4.846l-2.068 2.07a8.749 8.749 0 0 0-2.557 6.643l-3.178-3.18-.024-.023v-2.27a2.78 2.78 0 0 1 5.434-.829c.105-.116.213-.23.325-.342l1.374-1.375a5.04 5.04 0 0 0-4.353-2.499Zm12.2 8.914-.023.024-3.179 3.18a8.74 8.74 0 0 1 6.3 2.233 2.782 2.782 0 0 0-.828-5.437h-2.27ZM45.83 24.693l.024-.024 3.179-3.18a8.74 8.74 0 0 1-6.3-2.232 2.782 2.782 0 0 0 .828 5.436h2.27Zm12.202 8.915a5.04 5.04 0 0 1-4.354-2.499l1.375-1.375c.111-.112.22-.226.324-.342a2.781 2.781 0 0 0 5.435-.828v-2.27a5.017 5.017 0 0 0 2.262 1.288v.982a5.043 5.043 0 0 1-5.042 5.044Zm2.756-27.81a2.78 2.78 0 0 0-3.932 0l-2.068 2.068a6.51 6.51 0 0 0-.62 8.486l6.62-6.622a2.782 2.782 0 0 0 0-3.933Zm5.53 18.871a2.782 2.782 0 0 0 0-3.933l-2.067-2.069a6.504 6.504 0 0 0-8.483-.62l6.62 6.622a2.78 2.78 0 0 0 3.93 0Zm-14.933 5.534a2.78 2.78 0 0 1-3.931 0 2.782 2.782 0 0 1 0-3.933l6.618-6.622a6.51 6.51 0 0 1-.619 8.486l-2.068 2.069ZM41.922 11.33a2.782 2.782 0 0 0 0 3.933l2.068 2.07a6.504 6.504 0 0 0 8.482.619l-6.619-6.622a2.78 2.78 0 0 0-3.931 0Z" clip-rule="evenodd"/><path fill="#222" d="M1.199 12.592h2.473v7.686h4.246v2.082H1.2v-9.768ZM12.408 22.57c-.83 0-1.556-.15-2.18-.447-.624-.308-1.108-.727-1.452-1.258-.336-.54-.503-1.16-.503-1.859 0-.698.167-1.313.503-1.844.344-.54.828-.96 1.452-1.258.624-.307 1.35-.461 2.18-.461.829 0 1.555.154 2.179.461.624.298 1.104.717 1.439 1.258.344.53.517 1.146.517 1.844 0 .7-.173 1.319-.517 1.86-.335.53-.815.95-1.44 1.257-.623.298-1.35.447-2.178.447Zm0-1.915c.493 0 .884-.144 1.173-.433.298-.298.447-.703.447-1.216 0-.512-.149-.913-.447-1.201-.289-.299-.68-.448-1.173-.448-.494 0-.89.15-1.188.448-.288.288-.433.689-.433 1.201 0 .513.145.918.433 1.216.298.289.694.433 1.188.433ZM21.161 25.575a7.48 7.48 0 0 1-1.355-.126 5.555 5.555 0 0 1-1.16-.336V23.41c.736.316 1.574.475 2.515.475.68 0 1.169-.14 1.467-.42.307-.28.46-.689.46-1.23v-.405c-.27.233-.605.415-1.005.545-.391.13-.81.196-1.257.196-.708 0-1.332-.15-1.872-.447a3.236 3.236 0 0 1-1.271-1.258c-.299-.54-.447-1.16-.447-1.859 0-.708.148-1.332.447-1.872a3.05 3.05 0 0 1 1.257-1.244c.54-.298 1.16-.447 1.858-.447.96 0 1.75.293 2.375.88v-.67h2.374v6.246c0 1.165-.358 2.069-1.075 2.711-.708.643-1.812.965-3.311.965Zm.28-4.906c.381 0 .721-.097 1.02-.293a1.57 1.57 0 0 0 .628-.783V18.42a1.575 1.575 0 0 0-.643-.768 1.794 1.794 0 0 0-1.006-.294c-.503 0-.908.15-1.215.448-.307.288-.461.684-.461 1.188 0 .512.154.922.461 1.23.307.297.712.446 1.215.446ZM30.306 22.57c-.829 0-1.555-.15-2.18-.447-.623-.308-1.107-.727-1.452-1.258-.335-.54-.503-1.16-.503-1.859 0-.698.168-1.313.503-1.844.345-.54.829-.96 1.453-1.258.624-.307 1.35-.461 2.18-.461.828 0 1.554.154 2.178.461.624.298 1.104.717 1.44 1.258.344.53.516 1.146.516 1.844 0 .7-.172 1.319-.517 1.86-.335.53-.815.95-1.439 1.257-.624.298-1.35.447-2.179.447Zm0-1.915c.494 0 .885-.144 1.174-.433.298-.298.447-.703.447-1.216 0-.512-.15-.913-.447-1.201-.29-.299-.68-.448-1.174-.448-.493 0-.89.15-1.187.448-.289.288-.433.689-.433 1.201 0 .513.144.918.433 1.216.298.289.694.433 1.187.433ZM73.875 12.592h2.473v9.768h-2.473v-9.768ZM77.6 15.652h2.375v.671c.624-.587 1.415-.88 2.374-.88.699 0 1.319.149 1.858.447.541.289.96.703 1.258 1.244.298.53.447 1.15.447 1.858 0 .7-.15 1.323-.447 1.873a3.14 3.14 0 0 1-1.258 1.258c-.53.298-1.15.447-1.858.447-.446 0-.875-.07-1.284-.21-.4-.13-.736-.312-1.006-.545v3.606H77.6v-9.768Zm4.107 5.003c.503 0 .908-.149 1.215-.447.308-.298.462-.703.462-1.215 0-.513-.154-.913-.462-1.202-.307-.299-.712-.448-1.215-.448-.372 0-.708.098-1.006.294a1.575 1.575 0 0 0-.642.768v1.188c.13.326.344.587.642.783.298.186.634.28 1.006.28ZM89.577 22.57a9.03 9.03 0 0 1-1.69-.168c-.586-.102-1.053-.251-1.397-.447v-1.803c.382.224.838.41 1.37.56.539.14 1.033.209 1.48.209.326 0 .563-.023.712-.07.15-.046.224-.14.224-.28a.3.3 0 0 0-.153-.265c-.094-.074-.271-.149-.532-.224a18.307 18.307 0 0 0-.88-.265c-.568-.168-1.014-.34-1.34-.517-.327-.177-.569-.4-.727-.67-.159-.271-.238-.611-.238-1.021 0-.727.284-1.267.852-1.621.578-.364 1.365-.545 2.362-.545.484 0 .991.051 1.522.154.54.102.945.237 1.216.405v1.775c-.28-.187-.653-.34-1.118-.462a5.021 5.021 0 0 0-1.286-.181c-.316 0-.563.032-.74.098-.177.056-.265.158-.265.307 0 .14.088.247.265.321.177.075.494.168.95.28.298.075.424.107.377.098.596.158 1.057.335 1.383.53.326.197.554.43.685.7.14.26.21.596.21 1.006 0 .643-.28 1.155-.838 1.537-.55.373-1.352.559-2.404.559ZM96.489 22.57c-.922 0-1.616-.256-2.081-.768-.456-.513-.685-1.188-.685-2.027v-4.122h2.46v3.843c0 .773.348 1.16 1.047 1.16.317 0 .605-.075.866-.224.26-.15.475-.368.642-.657v-4.122h2.459v6.707h-2.374v-.726c-.29.307-.639.54-1.049.698a3.53 3.53 0 0 1-1.285.238ZM102.456 15.652h2.277v.727c.279-.298.601-.526.964-.685a2.73 2.73 0 0 1 1.159-.251c.503 0 .904.074 1.202.223.307.15.554.373.74.671.279-.28.619-.498 1.02-.656a3.28 3.28 0 0 1 1.215-.238c.885 0 1.514.228 1.886.685.372.447.559 1.094.559 1.942v4.29h-2.347v-3.94c0-.373-.07-.643-.21-.811-.139-.168-.372-.252-.698-.252-.419 0-.759.15-1.02.448.009.158.014.4.014.726v3.83h-2.347v-4.04c0-.344-.06-.591-.181-.74-.122-.149-.336-.224-.643-.224-.475 0-.884.266-1.229.797v4.206h-2.361v-6.707Z"/></svg>