<svg xmlns="http://www.w3.org/2000/svg" width="136" height="36" fill="none"><path fill="#222" d="M31.445 12.6c.37 0 .494.134.494.494v8.146h4.194c.36 0 .494.134.494.494v.72c0 .36-.134.494-.494.494H30.61c-.36 0-.505-.134-.505-.494v-9.36c0-.36.145-.494.505-.494h.835ZM40.285 16.19c0-2.376 1.504-3.806 4.121-3.806 2.617 0 4.121 1.43 4.121 3.806v3.168c0 2.376-1.514 3.805-4.121 3.805s-4.121-1.43-4.121-3.805V16.19Zm6.511 0c0-1.337-.834-2.057-2.338-2.057-1.505 0-2.329.73-2.329 2.057v3.188c0 1.348.824 2.058 2.329 2.058 1.504 0 2.338-.741 2.338-2.058V16.19ZM60.798 17.28c.402 0 .495.134.495.494v1.954a3.081 3.081 0 0 1-1.092 2.427 4.498 4.498 0 0 1-3.091.967c-2.669 0-4.121-1.43-4.121-3.805v-3.19c0-2.344 1.504-3.784 4.12-3.784 2.061 0 3.4.812 3.967 2.438a.443.443 0 0 1-.309.637l-.803.278c-.35.123-.495.051-.618-.309a2.12 2.12 0 0 0-2.236-1.337c-1.515 0-2.34.73-2.34 2.057v3.271c0 1.348.835 2.057 2.34 2.057 1.504 0 2.431-.689 2.431-1.697v-.76h-2.235c-.371 0-.505-.145-.505-.505v-.7c0-.36.134-.493.505-.493h3.492ZM65.548 16.19c0-2.376 1.504-3.806 4.121-3.806 2.617 0 4.121 1.43 4.121 3.806v3.168c0 2.376-1.514 3.805-4.12 3.805-2.608 0-4.122-1.43-4.122-3.805V16.19Zm6.501 0c0-1.337-.835-2.057-2.328-2.057-1.494 0-2.34.73-2.34 2.057v3.188c0 1.348.835 2.058 2.34 2.058 1.504 0 2.328-.741 2.328-2.058V16.19ZM78.643 12.898c0-.226.072-.298.299-.298h.474c.227 0 .278.072.278.298v9.751c0 .226 0 .299-.278.299h-.474c-.227 0-.299-.073-.299-.299V12.9ZM89.08 12.6c.858 0 1.68.34 2.288.946a3.226 3.226 0 0 1 0 4.567 3.237 3.237 0 0 1-2.288.947h-3.09v3.59c0 .226-.052.298-.269.298h-.484c-.216 0-.299-.073-.299-.299V12.9c0-.227.083-.299.299-.299h3.843Zm-.093 5.441a2.251 2.251 0 0 0 2.076-1.384 2.24 2.24 0 0 0-2.076-3.1h-3.09v4.484h3.09ZM100.362 12.394a3.723 3.723 0 0 1 3.833 2.242c.082.165 0 .299-.165.381l-.454.206c-.185.072-.257.061-.371-.134a2.805 2.805 0 0 0-2.843-1.687c-1.741 0-2.69.69-2.69 1.924a1.562 1.562 0 0 0 1.31 1.584c.553.18 1.128.29 1.71.329.704.037 1.398.18 2.06.421a2.31 2.31 0 0 1 1.607 2.438c0 1.924-1.401 3.086-3.977 3.086a3.724 3.724 0 0 1-3.946-2.5.277.277 0 0 1 .175-.39l.454-.165a.278.278 0 0 1 .37.175 2.942 2.942 0 0 0 2.947 1.851c1.948 0 2.906-.678 2.906-2.057a1.53 1.53 0 0 0-1.206-1.573 7.217 7.217 0 0 0-1.638-.288l-1.112-.144a9.787 9.787 0 0 1-1.03-.278 2.71 2.71 0 0 1-.918-.484 2.509 2.509 0 0 1-.824-1.964c.072-1.8 1.422-2.973 3.802-2.973ZM109.913 19.43c.043.727.363 1.41.895 1.91a2.868 2.868 0 0 0 3.928 0 2.86 2.86 0 0 0 .895-1.91v-6.532c0-.226.072-.298.299-.298h.474c.226 0 .298.072.298.298v6.521c0 2.335-1.38 3.744-3.925 3.744s-3.925-1.409-3.925-3.744V12.9c0-.227.072-.299.288-.299h.484c.217 0 .289.072.289.298v6.532ZM130.921 12.6c.226 0 .298.072.298.298v9.751c0 .226-.072.298-.298.298h-.433c-.217 0-.289-.072-.289-.298v-5.935c0-.863.059-1.726.176-2.581h-.062a18.65 18.65 0 0 1-1.123 2.273l-2.215 3.898a.364.364 0 0 1-.34.226h-.289a.384.384 0 0 1-.35-.226l-2.246-3.94c-.399-.72-.743-1.47-1.031-2.242h-.061c.105.864.16 1.733.164 2.602v5.925c0 .226-.072.298-.298.298h-.402c-.227 0-.299-.072-.299-.298v-9.75c0-.227.072-.3.299-.3h.371a.41.41 0 0 1 .412.237l3.606 6.398 3.585-6.336c.114-.216.175-.247.402-.247l.423-.051ZM13.116 21.384v7.436a1.074 1.074 0 0 1-1.077 1.075 1.077 1.077 0 0 1-1.077-1.075v-7.426c.3.219.66.34 1.03.35.405.012.802-.116 1.124-.36Zm9.17-2.15a1.032 1.032 0 0 0-1.03 1.029v1.296a1.074 1.074 0 0 0 1.076 1.075 1.077 1.077 0 0 0 1.076-1.075v-1.245a1.027 1.027 0 0 0-1.123-1.08ZM8.623 24.202a1.857 1.857 0 0 1-1.03-.35v7.458a1.08 1.08 0 0 0 1.081 1.08 1.083 1.083 0 0 0 1.082-1.08v-7.406a1.888 1.888 0 0 1-1.133.298Zm10.303-7.2a1.033 1.033 0 0 0-1 .623 1.026 1.026 0 0 0-.082.406v5.729a1.079 1.079 0 0 0 1.082 1.08 1.083 1.083 0 0 0 1.082-1.08v-5.657a1.027 1.027 0 0 0-1.134-1.08l.052-.02Zm-3.42 2.201a1.889 1.889 0 0 1-1.083-.35v7.478a1.079 1.079 0 0 0 1.082 1.08 1.083 1.083 0 0 0 1.082-1.08v-7.467c-.327.243-.726.37-1.134.36l.052-.02Zm-9.222 5.73V4.043a.966.966 0 0 0-.969-.957H5.09a.97.97 0 0 0-.969.956v20.89a.966.966 0 0 0 .969.967h.226a.969.969 0 0 0 .969-.966Zm2.452-1.523H8.51a.97.97 0 0 1-.968-.967V6.531a.966.966 0 0 1 .968-.956h.227a.97.97 0 0 1 .968.956v15.933a.966.966 0 0 1-.968.967v-.02Zm3.41-2.448h-.237a.959.959 0 0 1-.958-.956V9a.957.957 0 0 1 .958-.967h.237a.97.97 0 0 1 .958.967v11.006a.956.956 0 0 1-.958.956Zm3.41-2.52h-.216a.969.969 0 0 1-.968-.956V11.56a.965.965 0 0 1 .968-1.028h.227a.97.97 0 0 1 .968.966v5.966a.966.966 0 0 1-.968.977h-.01Zm3.421-2.211h-.227a.97.97 0 0 1-.968-.967v-1.533a.966.966 0 0 1 .968-.956h.227a.969.969 0 0 1 .969.956v1.533a.966.966 0 0 1-.959.967h-.01Z"/></svg>