<svg xmlns="http://www.w3.org/2000/svg" width="127" height="36" fill="none"><path fill="#222" d="M42.42 22.91V8.907h-2.314V22.91h2.314ZM43.837 18.242c0 2.86 1.934 4.893 4.874 4.893 2.94 0 4.875-2.033 4.875-4.893s-1.935-4.893-4.875-4.893-4.874 2.033-4.874 4.893Zm2.333 0c0-1.675 1.005-2.842 2.541-2.842 1.537 0 2.542 1.167 2.542 2.842 0 1.656-1.005 2.842-2.542 2.842-1.536 0-2.541-1.186-2.541-2.842ZM54.364 18.054c0 2.71 1.765 4.667 4.401 4.667 1.366 0 2.542-.546 3.13-1.45v1.582c0 1.524-.968 2.54-2.58 2.54-1.441 0-2.428-.696-2.56-1.92H54.42c.304 2.428 2.182 4.009 4.761 4.009 3.035 0 4.97-1.976 4.97-5.043v-8.826h-2.049l-.133 1.26c-.569-.978-1.745-1.561-3.13-1.561-2.674 0-4.476 2.013-4.476 4.742Zm2.353-.056c0-1.544.986-2.673 2.446-2.673 1.594 0 2.656 1.148 2.656 2.672 0 1.544-1.062 2.73-2.656 2.73-1.441 0-2.446-1.168-2.446-2.73ZM65.297 18.242c0 2.86 1.935 4.893 4.874 4.893 2.94 0 4.875-2.033 4.875-4.893s-1.934-4.893-4.875-4.893c-2.94 0-4.874 2.033-4.874 4.893Zm2.333 0c0-1.675 1.005-2.842 2.541-2.842 1.537 0 2.542 1.167 2.542 2.842 0 1.656-1.005 2.842-2.541 2.842-1.537 0-2.542-1.186-2.542-2.842ZM77.55 11.712c.76 0 1.385-.602 1.385-1.373 0-.753-.626-1.355-1.385-1.355-.777 0-1.365.602-1.365 1.355 0 .771.588 1.373 1.365 1.373ZM76.394 22.91h2.313v-9.296h-2.313v9.296ZM80.735 27.218h2.257V21.63c.588.96 1.859 1.525 3.262 1.525 2.77 0 4.42-2.108 4.382-5.006-.057-2.917-1.745-4.817-4.4-4.817-1.423 0-2.713.62-3.282 1.693l-.133-1.411h-2.086v13.605Zm2.352-8.957c0-1.675 1.024-2.842 2.636-2.842s2.58 1.186 2.58 2.842c0 1.656-.968 2.823-2.58 2.823s-2.636-1.148-2.636-2.823ZM91.223 20.124c.076 1.844 1.517 3.03 3.756 3.03 2.2 0 3.698-1.167 3.698-2.974 0-1.336-.834-2.239-2.37-2.615l-1.65-.396c-.703-.188-1.177-.432-1.177-1.035 0-.64.512-1.091 1.347-1.091.873 0 1.442.49 1.442 1.299h2.105c-.076-1.845-1.46-3.011-3.49-3.011-2.01 0-3.51 1.166-3.51 2.935 0 1.205.703 2.202 2.505 2.672l1.63.414c.608.17.987.452.987.979 0 .734-.702 1.073-1.555 1.073-1.025 0-1.612-.47-1.612-1.28h-2.106ZM103.478 23.154c1.271 0 2.485-.584 3.035-1.45l.151 1.205h2.163v-9.296h-2.314v4.874c0 1.675-.645 2.615-2.163 2.615-1.176 0-1.991-.564-1.991-2.484v-5.005h-2.314v5.815c0 2.22 1.214 3.726 3.433 3.726ZM113.182 22.909v-5.344c0-1.506.892-2.22 1.992-2.22s1.821.695 1.821 2.013v5.551h2.257v-5.325c0-1.525.873-2.24 1.973-2.24 1.119 0 1.84.696 1.84 2.014v5.551h2.238v-6.078c0-2.146-1.195-3.5-3.471-3.5-1.423 0-2.542.677-2.997 1.769-.512-1.092-1.537-1.77-3.092-1.77-1.1 0-2.086.509-2.636 1.337l-.114-1.054h-2.125v9.296h2.314ZM107.635 31.217a.648.648 0 0 0 .644-.63.65.65 0 0 0-1.297 0c0 .342.299.63.653.63ZM108.945 28.895c0 1.377.852 2.304 2.095 2.304 1.071 0 1.887-.639 2.059-1.593h-.816c-.154.531-.626.846-1.188.846-.799 0-1.307-.612-1.307-1.566 0-.972.535-1.566 1.325-1.566.544 0 1.016.288 1.161.855h.816c-.145-.963-.907-1.611-1.968-1.611-1.288 0-2.177.945-2.177 2.331ZM113.421 28.886c0 1.323.907 2.313 2.268 2.313 1.36 0 2.268-.99 2.268-2.313 0-1.323-.908-2.313-2.268-2.313-1.361 0-2.268.99-2.268 2.313Zm.862 0c0-.9.553-1.557 1.406-1.557.852 0 1.406.657 1.406 1.557 0 .9-.554 1.557-1.406 1.557-.853 0-1.406-.657-1.406-1.557ZM119.538 31.1v-2.646c0-.693.435-1.143 1.07-1.143.608 0 .989.387.989 1.08V31.1h.834v-2.637c0-.702.427-1.152 1.071-1.152.598 0 .979.387.979 1.08V31.1h.826v-2.889c0-1.017-.599-1.638-1.615-1.638-.689 0-1.224.333-1.442.873-.227-.54-.726-.873-1.452-.873-.553 0-1.043.252-1.288.684l-.063-.558h-.762V31.1h.853Z"/><path fill="#222" fill-rule="evenodd" d="m1.65 18.356.001-.164.003-.164.005-.164.007-.164.008-.164.01-.164.012-.164.014-.164.015-.164.017-.164.018-.163.02-.164.022-.163.024-.164.026-.163.027-.163.028-.163.03-.162.033-.162.034-.162.035-.162.037-.162.04-.161.04-.16.042-.161.044-.16.046-.16.047-.16.049-.16.05-.158.053-.158.054-.158.055-.157.057-.157.06-.156.06-.156.062-.155.064-.155.065-.154.067-.154.069-.153.07-.153.072-.151.073-.152.075-.15.077-.15.078-.15.08-.148.08-.147.084-.147.084-.147.086-.145.087-.145.09-.144.09-.143.092-.142.094-.141.095-.141.096-.14.098-.139.1-.138.1-.137.103-.136.104-.135.105-.134.107-.133.108-.132.11-.132.11-.13.113-.129.114-.128.115-.127.116-.126.118-.125.12-.124.12-.123.121-.121.123-.12.125-.12.125-.118.127-.117.128-.116.13-.114.13-.114.132-.112.133-.11.135-.11.135-.109.137-.107.137-.106.14-.104.14-.103.14-.102.143-.1.143-.1.145-.098.145-.096.147-.095.147-.094.149-.092.15-.091.15-.09.152-.088.152-.086.154-.085.154-.084.156-.082.156-.081.157-.08.158-.077.16-.076.16-.075.16-.073.161-.072.162-.07.163-.069.164-.067.165-.065.165-.064.166-.062.167-.06.167-.06.168-.057.169-.056.17-.054.17-.053.17-.051.17-.05.173-.047.172-.046.173-.044.173-.043.174-.041.174-.04.175-.037.175-.036.176-.035.176-.032.177-.031.177-.03.177-.027.178-.026.178-.024.178-.022.179-.02.179-.02.179-.017.18-.015.179-.014.18-.012.966-.055.055 4.622H19.44l.134.003.133.004.134.005.134.006.133.008.134.009.134.01.133.012.134.012.133.015.134.015.133.017.133.018.133.02.133.02.133.022.133.023.132.025.133.026.131.027.132.029.132.03.131.03.132.033.13.034.131.035.13.036.13.038.13.038.13.04.128.042.129.043.128.044.128.045.128.046.127.048.126.05.126.05.126.051.125.053.125.054.124.055.124.057.123.058.123.059.122.06.122.061.12.063.12.064.12.065.12.066.119.068.117.068.118.07.116.071.116.072.116.074.114.074.114.076.113.077.112.078.112.079.11.08.11.081.11.083.109.083.107.085.107.086.106.086.105.088.105.09.103.09.103.09.101.092.101.094.1.094.099.095.098.096.097.097.096.099.095.099.094.1.094.101.092.102.09.103.09.104.09.105.088.106.087.107.086.107.085.109.084.11.082.11.082.11.08.113.08.112.078.114.077.114.076.116.075.116.073.117.073.117.071.119.07.119.069.12.068.12.066.122.065.122.064.122.063.124.062.124.06.124.06.126.057.126.056.126.055.128.054.128.053.128.051.129.05.13.049.13.047.13.046.131.045.132.043.132.042.133.04.133.04.134.038.134.037.134.035.135.034.135.032.136.031.136.03.137.028.136.027.137.025.138.024.138.023.138.021.138.02.139.018.139.017.139.015.14.015.139.012.14.011.14.01.14.008.14.007.14.006.141.004.14.002.142.001.14v.141l-.002.141-.004.142-.004.14-.007.142-.007.14-.01.142-.01.141-.012.141-.014.141-.015.141-.017.141-.017.14-.02.141-.02.141-.023.14-.024.14-.025.14-.027.14-.028.14-.03.14-.031.14-.033.138-.034.139-.035.139-.037.138-.038.138-.04.137-.042.138-.042.137-.044.136-.046.136-.047.136-.048.136-.05.135-.052.134-.052.135-.054.133-.056.134-.057.133-.058.132-.06.132-.06.13-.063.132-.064.13-.066.13-.066.128-.068.13-.07.127-.07.127-.072.127-.074.126-.074.125-.076.125-.078.124-.079.123-.08.123-.08.121-.083.121-.084.12-.085.12-.087.12-.088.117-.088.117-.09.117-.092.116-.093.114-.094.114-.095.113-.096.112-.098.112-.099.11-.1.11-.1.108-.103.108-.104.106-.104.106-.106.105-.107.103-.108.103-.109.102-.11.1-.111.1-.113.099-.113.098-.115.096-.115.096-.117.094-.117.093-.12.093-.119.09-.12.09-.122.09-.123.087-.123.087-.125.085-.125.084-.127.083-.127.082-.128.08-.13.08-.13.078-.13.077-.132.076-.132.074-.133.074-.135.072-.135.07-.135.07-.137.068-.137.067-.138.065-.14.064-.139.063-.14.062-.14.06-.142.059-.143.057-.142.056-.144.055-.144.053-.145.052-.146.05-.146.05-.146.048-.147.046-.148.045-.148.044-.149.042-.15.04-.149.04-.15.038-.15.036-.152.035-.151.034-.152.032-.153.03-.152.03-.153.027-.154.026-.154.025-.154.023-.154.022-.155.02-.155.019-.155.017-.155.016-.156.014-.156.013-.156.011-.156.01-.157.008-.157.007-.156.005-.157.003-.157.002h-.314l-.157-.003-.158-.004-.157-.005-.157-.008-.158-.008-.157-.01-.157-.012-.157-.013-.157-.015-.157-.016-.157-.018-.157-.02-.156-.02-.157-.023-.156-.024-.156-.026-.156-.027-.156-.028-.155-.03-.156-.032-.155-.033-.155-.035-.154-.036-.154-.038-.154-.039-.153-.04-.153-.043-.153-.044-.152-.045-.152-.047-.152-.048-.151-.05-.15-.051-.15-.053-.15-.054-.15-.056-.148-.057-.149-.059-.147-.06-.147-.061-.147-.063-.146-.065-.145-.066-.145-.067-.143-.069-.144-.07-.143-.072-.142-.073-.14-.075-.142-.075-.14-.078-.139-.078-.138-.08-.138-.082-.136-.083-.136-.084-.136-.086-.134-.087-.134-.088-.132-.09-.132-.09-.131-.093-.13-.093-.13-.095-.127-.096-.128-.098-.126-.098-.125-.1-.125-.102-.123-.102-.122-.104-.122-.105-.12-.106-.12-.108-.117-.108-.118-.11-.116-.11-.115-.113-.113-.114-.113-.114-.112-.116-.11-.116-.11-.118-.107-.12-.107-.12-.106-.12-.104-.123-.104-.123-.102-.125-.1-.125-.1-.127-.098-.127-.097-.129-.096-.13-.094-.13-.093-.131-.092-.133-.09-.133-.09-.134-.087-.135-.087-.136-.085-.137-.083-.138-.083-.14-.08-.139-.08-.14-.078-.142-.076-.142-.076-.143-.073-.143-.073-.145-.07-.145-.07-.146-.067-.147-.067-.147-.065-.148-.063-.15-.062-.149-.06-.15-.059-.151-.057-.151-.056-.152-.054-.153-.052-.153-.051-.154-.05-.155-.048-.155-.046-.155-.045-.156-.043-.157-.041-.157-.04-.157-.039-.158-.036-.158-.035-.16-.034-.158-.032-.16-.03-.16-.028-.16-.027-.16-.025-.162-.024-.16-.022-.162-.02-.162-.019-.162-.017-.163-.015-.162-.013-.163-.012-.163-.01-.163-.01-.163-.006-.164-.005-.163-.004-.164-.001-.164v-.164ZM17.63 6.355l-.037-3.15-.036.003-.164.017-.164.02-.163.02-.163.022-.163.023-.162.026-.162.026-.162.029-.16.03-.162.031-.16.033-.16.034-.16.036-.16.038-.158.04-.158.04-.158.042-.157.044-.156.045-.157.046-.155.049-.155.05-.155.05-.153.053-.154.054-.152.055-.152.057-.151.059-.15.06-.15.061-.15.063-.148.064-.148.065-.147.067-.146.069-.145.07-.145.07-.143.073-.143.074-.142.075-.142.076-.14.078-.14.08-.138.08-.138.082-.137.083-.135.084-.136.086-.133.087-.133.088-.132.09-.132.09-.13.092-.129.093-.128.094-.127.096-.125.096-.125.098-.124.1-.123.1-.121.1-.12.103-.12.104-.118.105-.117.105-.116.107-.115.108-.114.109-.112.11-.111.111-.11.112-.109.113-.107.114-.107.115-.105.116-.104.117-.102.118-.102.12-.1.119-.098.12-.098.122-.096.123-.095.123-.093.124-.092.125-.091.126-.09.127-.088.127-.086.129-.086.129-.084.13-.082.13-.082.132-.08.132-.078.132-.077.134-.075.134-.075.135-.072.135-.072.136-.07.137-.068.137-.067.138-.065.138-.064.14-.063.139-.061.14-.06.14-.058.142-.056.142-.056.142-.053.142-.052.143-.051.143-.05.144-.047.145-.046.144-.045.145-.043.146-.041.145-.04.146-.039.147-.037.146-.035.147-.034.147-.032.148-.031.148-.03.147-.027.149-.026.148-.025.148-.023.149-.022.149-.02.149-.018.149-.017.148-.015.15-.014.149-.013.15-.01.149-.01.15-.007.148-.006.15-.005.15-.003.148-.001.15v.149l.002.149.003.149.004.149.007.149.008.148.009.149.01.148.013.148.014.148.015.148.017.147.019.148.02.146.021.147.023.147.024.146.026.145.028.146.029.145.03.145.032.144.033.144.035.144.037.143.037.143.04.142.04.142.042.141.044.141.045.14.046.14.048.14.05.138.05.139.052.137.053.137.055.137.056.136.058.135.059.135.06.134.061.133.063.133.065.132.065.13.067.131.069.13.07.13.07.128.072.127.073.127.075.126.076.125.077.125.079.123.08.123.08.122.082.121.084.12.084.12.086.118.087.118.088.117.089.115.09.115.092.114.092.113.094.112.095.11.096.11.097.11.098.108.099.107.1.106.101.104.103.104.103.103.104.102.105.1.106.1.108.099.108.097.109.097.11.095.11.094.113.093.112.091.114.091.115.09.115.088.116.087.117.086.118.085.119.084.12.082.12.081.12.08.122.079.123.078.123.076.124.075.125.074.125.072.126.072.127.07.127.068.128.068.129.066.13.065.13.064.13.062.13.061.132.06.132.058.133.057.133.056.134.054.134.053.134.052.135.05.136.05.136.047.136.047.137.045.137.044.137.042.138.04.138.04.139.039.139.037.139.035.14.034.139.033.14.031.14.03.14.029.141.027.141.026.141.025.141.023.142.021.141.02.142.02.142.017.141.016.142.015.142.013.142.012.143.01.142.01.142.008.142.006.142.005.142.004.142.002.142.001h.142l.142-.002.142-.003.141-.005.142-.006.141-.007.141-.01.141-.01.141-.01.14-.014.141-.014.14-.015.14-.017.14-.018.14-.02.138-.021.139-.022.139-.024.138-.025.138-.026.137-.028.137-.029.137-.03.136-.031.136-.033.136-.034.135-.036.134-.037.135-.038.133-.04.134-.04.132-.041.133-.044.131-.044.131-.046.131-.047.13-.048.13-.05.128-.05.129-.052.127-.053.127-.054.127-.055.126-.057.125-.058.124-.059.124-.06.123-.061.122-.063.122-.064.12-.064.121-.066.12-.067.118-.069.118-.07.117-.07.116-.071.116-.073.114-.073.114-.075.113-.076.112-.077.112-.078.11-.079.11-.08.108-.08.108-.083.107-.083.106-.084.104-.085.105-.086.103-.087.102-.087.1-.09.101-.089.1-.09.098-.092.096-.093.097-.093.095-.094.094-.095.093-.096.092-.097.091-.097.09-.1.089-.098.088-.1.086-.101.086-.102.084-.102.083-.104.083-.103.08-.105.081-.106.079-.105.078-.107.076-.108.075-.108.075-.109.073-.11.072-.11.07-.11.07-.112.068-.111.067-.113.066-.113.065-.114.063-.114.063-.115.06-.116.06-.116.06-.116.056-.117.057-.117.054-.118.054-.119.052-.118.051-.12.05-.12.049-.12.047-.12.046-.12.045-.122.043-.121.043-.122.04-.123.04-.122.039-.123.037-.123.035-.124.035-.123.033-.125.032-.124.03-.124.03-.125.027-.125.027-.125.025-.125.024-.126.023-.125.021-.126.02-.126.019-.126.018-.126.016-.126.014-.126.014-.127.012-.126.01-.126.01-.127.009-.126.007-.127.005-.126.005-.127.003-.126.001-.126v-.253l-.003-.126-.003-.126-.005-.125-.006-.127-.007-.125-.01-.126-.01-.125-.01-.125-.013-.125-.014-.125-.015-.124-.016-.125-.018-.123-.02-.125-.02-.123-.02-.123-.024-.123-.024-.123-.025-.122-.026-.122-.028-.122-.03-.121-.03-.121-.03-.121-.034-.12-.033-.12-.036-.12-.036-.119-.037-.118-.04-.118-.039-.118-.041-.117-.042-.117-.044-.116-.045-.116-.046-.115-.047-.115-.048-.114-.049-.114-.05-.113-.052-.113-.053-.112-.053-.111-.055-.11-.057-.111-.057-.11-.058-.109-.06-.108-.06-.108-.061-.107-.063-.106-.063-.106-.065-.104-.066-.105-.066-.104-.068-.102-.07-.103-.069-.1-.07-.102-.073-.1-.072-.099-.074-.098-.075-.098-.076-.096-.076-.096-.078-.096-.078-.094-.08-.094-.08-.092-.081-.092-.082-.091-.083-.09-.085-.09-.084-.088-.086-.088-.086-.086-.088-.086-.088-.085-.09-.084-.089-.083-.09-.082-.092-.08-.092-.081-.093-.08-.094-.078-.094-.077-.095-.076-.096-.076-.097-.074-.097-.073-.098-.073-.098-.071-.1-.07-.1-.07-.1-.068-.102-.068-.102-.066-.102-.065-.104-.065-.104-.063-.104-.062-.105-.061-.105-.06-.106-.06-.107-.057-.107-.057-.107-.055-.108-.055-.11-.054-.108-.052-.11-.051-.11-.05-.11-.05-.111-.048-.115-.048-.108-.045-.113-.045-.112-.043-.113-.043-.113-.04-.114-.041-.113-.04-.115-.037-.114-.037-.115-.036-.116-.034-.115-.033-.116-.033-.116-.03-.116-.03-.116-.03-.117-.027-.117-.027-.117-.025-.117-.024-.118-.023-.117-.022-.118-.02-.118-.02-.118-.019-.118-.017-.118-.016-.118-.015-.119-.013-.118-.013-.118-.011-.119-.01-.119-.01-.118-.008-.119-.006-.118-.006-.119-.004-.118-.004-.118-.002h-.261l.037 3.127h.154l.087.001.086.002.087.003.086.005.087.004.087.006.087.006.087.008.086.008.087.009.087.01.086.01.087.012.087.012.086.014.086.014.087.015.086.016.086.017.086.017.086.018.086.02.086.02.086.021.085.022.085.023.085.023.085.025.085.025.084.026.085.027.084.028.084.029.084.03.083.03.083.03.083.033.083.033.082.033.082.035.082.035.081.037.082.037.08.037.081.04.08.039.08.04.08.041.079.042.078.043.079.043.078.045.077.045.077.046.077.046.076.048.076.048.076.05.075.05.074.05.074.051.074.053.073.053.072.053.073.055.071.055.071.056.07.056.07.058.07.058.07.059.067.06.068.06.067.06.067.063.066.062.065.063.065.064.064.064.064.065.063.066.062.067.062.067.061.068.06.068.06.07.06.069.058.07.057.071.057.072.056.072.056.073.055.073.054.075.053.074.053.075.052.076.051.076.05.077.05.078.049.078.048.078.047.08.047.079.046.08.045.08.044.082.043.081.043.082.041.083.041.083.04.083.04.084.038.085.037.084.037.085.036.086.035.086.034.087.033.087.032.087.032.087.03.088.03.089.029.089.028.089.027.09.026.089.025.09.024.09.023.091.023.09.021.092.02.092.02.091.019.093.018.092.016.093.016.092.015.093.014.094.013.093.012.093.01.094.01.094.01.094.008.095.007.094.006.095.005.094.005.095.003.095.002.095.001.095v.191l-.002.095-.003.096-.003.095-.005.095-.006.096-.006.096-.008.095-.009.095-.01.096-.01.095-.012.096-.012.095-.014.095-.015.096-.016.095-.016.095-.018.095-.019.095-.02.095-.02.094-.022.095-.022.094-.024.094-.025.094-.025.094-.027.094-.027.093-.03.093-.029.094-.03.092-.032.093-.033.092-.033.093-.035.091-.035.092-.037.091-.037.091-.038.09-.04.091-.04.09-.041.09-.043.09-.043.088-.044.09-.046.087-.046.088-.047.088-.048.087-.049.087-.05.086-.05.086-.052.085-.052.085-.054.085-.054.084-.056.084-.056.083-.057.082-.058.082-.06.082-.06.081-.06.08-.061.08-.063.08-.063.079-.065.078-.065.078-.066.077-.066.077-.068.076-.068.075-.07.075-.07.074-.07.074-.072.073-.073.072-.073.071-.074.071-.075.07-.076.07-.076.069-.077.068-.079.067-.078.067-.08.066-.08.065-.08.065-.082.063-.083.063-.083.063-.084.061-.084.06-.085.06-.086.06-.087.058-.087.058-.088.056-.088.056-.09.055-.09.055-.09.053-.09.053-.092.051-.092.051-.093.05-.093.049-.094.048-.095.048-.095.046-.095.046-.097.044-.096.044-.097.043-.098.041-.098.041-.099.04-.099.04-.1.038-.1.037-.1.036-.101.035-.102.035-.101.033-.103.032-.102.032-.103.03-.104.03-.103.028-.104.027-.105.027-.105.025-.105.025-.106.023-.105.023-.106.02-.107.021-.106.02-.107.018-.108.017-.107.017-.108.015-.108.014-.108.013-.108.012-.108.011-.11.01-.108.009-.109.008-.11.007-.109.005-.109.005-.11.004-.11.002-.109.002h-.22l-.11-.002-.11-.003-.11-.004-.11-.005-.11-.006-.11-.007-.11-.008-.11-.01-.11-.01-.11-.012-.11-.012-.11-.014-.11-.014-.11-.016-.11-.017-.11-.018-.11-.02-.109-.02-.109-.02-.109-.023-.109-.023-.109-.024-.108-.026-.108-.027-.108-.027-.108-.029-.108-.03-.107-.03-.108-.032-.107-.033-.106-.034-.107-.036-.106-.036-.105-.037-.106-.038-.105-.04-.105-.04-.104-.041-.104-.043-.104-.043-.103-.045-.103-.046-.102-.046-.103-.048-.101-.049-.101-.05-.101-.05-.1-.052-.1-.053-.1-.053-.098-.055-.098-.056-.098-.056-.097-.058-.097-.059-.096-.06-.096-.06-.095-.062-.094-.063-.094-.063-.094-.065-.092-.065-.092-.067-.091-.067-.091-.068-.09-.07-.09-.07-.088-.07-.088-.073-.088-.072-.087-.074-.086-.075-.085-.075-.084-.077-.084-.077-.083-.078-.082-.08-.082-.08-.08-.08-.08-.081-.08-.083-.078-.083-.077-.084-.077-.085-.076-.085-.075-.087-.074-.087-.073-.088-.073-.088-.071-.09-.071-.09-.07-.091-.069-.092-.068-.092-.067-.094-.066-.093-.065-.095-.064-.095-.064-.096-.062-.097-.061-.097-.06-.098-.06-.099-.059-.099-.057-.1-.056-.1-.056-.101-.054-.102-.054-.102-.052-.103-.051-.103-.05-.104-.05-.105-.048-.105-.047-.105-.046-.107-.045-.106-.044-.107-.043-.108-.042-.108-.04-.109-.04-.109-.038-.11-.038-.109-.036-.11-.035-.111-.034-.111-.033-.112-.032-.112-.03-.112-.03-.113-.028-.113-.027-.113-.026-.114-.025-.114-.023-.114-.023-.115-.021-.115-.02-.115-.019-.116-.018-.115-.016-.116-.016-.116-.014-.117-.013-.116-.011-.117-.01-.117-.01-.117-.008-.118-.007-.117-.006-.118-.005-.117-.003-.118-.002-.118v-.236l.001-.118.003-.118.004-.119.005-.118.007-.118.008-.119.009-.118.01-.118.011-.118.013-.118.014-.119.015-.117.016-.118.018-.118.019-.118.02-.118.021-.117.023-.118.023-.117.025-.117.026-.117.028-.116.028-.117.03-.116.031-.116.033-.116.033-.116.035-.115.036-.115.037-.115.038-.114.04-.114.04-.114.043-.114.043-.113.044-.113.046-.112.047-.112.048-.112.049-.11.05-.112.051-.11.053-.11.054-.11.055-.108.056-.109.057-.108.059-.108.06-.107.06-.106.062-.106.063-.106.064-.104.065-.105.067-.104.067-.103.069-.102.07-.102.07-.101.072-.101.073-.1.074-.1.075-.098.076-.098.077-.098.079-.096.079-.096.08-.095.082-.095.082-.094.083-.093.085-.092.085-.091.087-.091.087-.09.088-.089.09-.088.09-.088.091-.086.092-.086.094-.085.094-.084.095-.083.095-.082.097-.082.098-.08.099-.08.099-.079.1-.077.102-.077.102-.076.102-.075.104-.074.105-.073.105-.072.106-.071.107-.07.108-.069.108-.068.11-.067.11-.066.11-.065.112-.064.112-.063.113-.061.113-.061.115-.06.115-.058.115-.058.117-.056.117-.055.117-.054.118-.053.12-.052.119-.05.12-.05.12-.05.121-.046.122-.047.122-.045.123-.043.123-.043.124-.042.124-.04.125-.039.125-.038.126-.037.126-.035.127-.035.127-.033.127-.031.128-.031.128-.03.129-.028.128-.027.13-.025.13-.025.13-.023.13-.022.13-.02.13-.02.132-.018.131-.017.05-.006Zm.056 4.638-.038-3.161-.108.015-.116.017-.115.018-.115.02-.116.02-.114.022-.115.023-.114.023-.113.025-.114.026-.113.027-.113.029-.112.029-.108.03-.116.032-.11.032-.111.034-.11.034-.11.036-.11.037-.11.037-.108.04-.108.039-.107.04-.107.043-.107.042-.106.044-.105.045-.105.046-.105.047-.104.048-.103.048-.102.05-.103.051-.101.052-.101.052-.1.054-.1.055-.1.055-.098.056-.097.058-.097.058-.097.059-.096.06-.095.06-.094.063-.094.062-.093.064-.092.064-.091.065-.091.066-.09.067-.09.068-.088.069-.088.07-.086.07-.087.07-.085.072-.084.072-.084.074-.083.074-.082.075-.081.075-.08.077-.08.077-.079.077-.078.079-.077.079-.076.08-.075.08-.074.082-.074.082-.072.082-.072.083-.07.084-.07.085-.07.085-.067.085-.067.087-.066.086-.066.088-.064.088-.063.088-.062.09-.061.09-.06.09-.06.09-.059.091-.057.092-.056.092-.056.093-.054.093-.053.094-.053.094-.051.094-.05.096-.05.095-.048.096-.047.096-.047.096-.045.097-.044.098-.043.097-.042.098-.041.099-.04.098-.04.1-.037.099-.037.1-.036.1-.035.1-.033.1-.033.1-.031.101-.03.102-.03.101-.029.101-.027.102-.026.102-.025.102-.024.103-.023.102-.022.103-.02.103-.02.103-.02.103-.017.103-.016.103-.016.103-.014.104-.013.103-.012.104-.012.103-.01.104-.008.103-.008.104-.007.103-.006.104-.004.104-.004.103-.002.103-.002.104v.207l.002.103.003.103.004.103.005.103.006.102.007.103.008.102.01.103.01.102.011.102.013.102.013.101.014.101.016.102.017.1.017.101.019.1.02.1.02.1.022.1.022.1.024.099.025.098.025.099.027.098.028.098.028.097.03.097.03.097.032.096.033.096.033.096.035.095.035.094.037.095.037.094.038.093.04.093.04.093.04.092.043.091.043.091.044.091.044.09.046.09.047.089.047.088.048.088.05.088.05.087.05.087.052.085.053.086.053.084.054.084.056.084.055.083.057.082.058.082.058.081.06.08.06.08.06.08.062.078.062.078.063.077.063.076.065.076.065.075.066.075.067.073.067.073.068.073.069.071.07.071.07.07.07.07.072.068.072.068.073.067.073.067.074.065.075.065.075.064.076.063.076.063.077.061.078.061.078.06.079.06.08.058.079.058.08.056.081.056.082.056.082.054.082.053.083.053.083.052.084.05.084.05.085.05.085.048.086.048.086.046.086.046.087.045.087.044.088.043.088.042.088.041.089.04.09.04.088.039.09.037.09.037.09.036.091.035.091.034.091.033.092.032.091.031.092.03.093.03.092.029.093.027.093.027.093.026.093.025.093.024.094.023.094.021.094.022.094.02.094.02.094.017.095.018.094.016.095.016.095.014.094.014.095.012.095.012.095.011.095.01.095.009.095.008.095.007.095.006.095.005.095.005.095.003.095.002.094.002h.19l.094-.001.095-.002.094-.003.095-.004.094-.005.094-.006.093-.007.094-.008.094-.008.093-.01.093-.01.093-.011.093-.013.093-.013.092-.014.093-.014.091-.016.092-.017.092-.017.09-.019.092-.02.09-.02.09-.02.09-.022.09-.023.09-.023.09-.025.088-.025.089-.026.088-.027.088-.028.087-.029.087-.029.087-.03.086-.031.086-.032.085-.033.085-.034.085-.034.084-.035.084-.036.083-.037.083-.037.082-.038.082-.04.082-.039.08-.04.081-.042.08-.042.08-.043.079-.043.078-.045.078-.045.077-.045.077-.047.076-.047.076-.048.076-.048.074-.05.074-.05.074-.05.072-.051.073-.052.071-.053.071-.053.071-.054.07-.054.069-.055.069-.056.067-.056.068-.058.066-.057.066-.058.066-.06.064-.059.064-.06.063-.06.063-.061.062-.062.061-.062.06-.063.06-.063.06-.064.058-.064.058-.065.057-.065.056-.066.055-.066.055-.067.054-.067.053-.068.053-.068.052-.069.05-.069.05-.07.05-.07.049-.07.048-.07.047-.072.046-.071.046-.072.045-.073.044-.072.043-.073.042-.074.042-.074.04-.074.04-.074.04-.075.038-.075.038-.075.037-.076.035-.076.036-.076.034-.077.034-.077.032-.077.032-.077.03-.077.031-.078.03-.078.028-.078.027-.079.027-.078.026-.08.025-.078.025-.08.023-.078.023-.08.021-.08.021-.08.02-.08.02-.079.018-.08.018-.08.016-.08.016-.08.015-.081.014-.081.013-.08.013-.081.011-.081.011-.08.01-.081.01-.081.007-.08.008-.082.006-.08.006-.081.005-.081.004-.08.003-.081.002-.081.001-.08.001-.081v-.08l-.001-.081-.002-.08-.003-.08-.003-.08-.005-.08-.005-.08-.006-.08-.007-.08-.007-.079-.009-.08-.01-.078-.01-.08-.01-.078-.012-.079-.012-.078-.014-.078-.014-.078-.015-.078-.015-.078-.017-.077-.017-.077-.018-.077-.02-.077-.019-.076-.02-.076-.021-.076-.022-.075-.023-.075-.023-.076-.024-.074-.025-.074-.026-.074-.027-.074-.027-.073-.028-.073-.028-.073-.03-.072-.03-.073-.03-.071-.032-.071-.032-.071-.033-.07-.034-.07-.034-.07-.035-.07-.036-.069-.036-.068-.037-.068-.038-.068-.038-.067-.04-.066-.039-.067-.04-.066-.041-.065-.042-.065-.042-.064-.043-.064-.043-.063-.045-.063-.044-.063-.045-.062-.046-.061-.047-.061-.047-.06-.047-.06-.049-.06-.049-.059-.05-.058-.049-.058-.05-.057-.052-.057-.05-.056-.053-.056-.052-.054-.054-.055-.053-.054-.055-.053-.054-.053-.055-.052-.056-.051-.056-.051-.056-.05-.058-.05-.057-.05L24 14.04l-.058-.048-.059-.047-.06-.047-.059-.046-.06-.045-.06-.045-.061-.044-.062-.043-.061-.043-.062-.042-.063-.042-.062-.04-.064-.04-.063-.04-.064-.04-.064-.037-.064-.038-.065-.037-.065-.036-.066-.036-.066-.034-.066-.035-.066-.033-.067-.033-.067-.032-.067-.031-.067-.031-.068-.03-.067-.03-.069-.028-.068-.028-.069-.028-.068-.026-.069-.026-.07-.025-.069-.025-.07-.024-.069-.023-.07-.022-.07-.022-.07-.02-.07-.02-.07-.02-.071-.019-.07-.018-.072-.017-.07-.017-.072-.016-.07-.015-.072-.015-.071-.014-.071-.013-.072-.012-.071-.012-.072-.011-.07-.01-.073-.01-.071-.009-.072-.008-.071-.007-.072-.007-.071-.006-.072-.005-.072-.005-.07-.004-.072-.003-.072-.003-.071-.001-.071-.002h-.121l.038 3.09H19.354l.04.002.042.002.04.002.042.003.041.003.041.004.042.003.041.005.041.005.042.005.041.005.042.006.041.007.041.007.042.007.041.008.041.008.042.01.041.008.041.01.042.01.04.01.042.011.041.011.041.012.041.012.04.013.042.013.04.013.041.014.04.015.041.014.04.016.041.015.04.016.04.017.04.017.04.017.04.018.04.018.04.02.039.018.039.02.039.02.039.02.039.021.038.021.039.022.038.022.038.022.038.023.037.024.038.024.037.024.037.024.037.026.037.025.037.026.036.026.036.027.036.027.035.027.035.028.036.029.034.028.035.03.034.029.034.03.034.03.034.03.033.032.033.031.033.032.032.032.032.033.032.032.031.034.031.034.031.034.03.034.031.035.03.035.03.035.029.036.029.036.028.037.028.037.028.037.028.037.027.038.026.038.027.039.026.039.026.039.025.04.025.04.024.04.024.04.024.04.023.041.023.042.022.041.023.042.021.042.021.043.021.042.02.043.02.043.02.044.02.044.018.044.018.044.018.045.017.044.017.045.016.046.017.045.015.046.015.046.014.046.015.046.013.047.013.046.013.047.012.047.012.048.011.047.01.048.011.048.01.048.009.048.009.049.008.048.008.049.007.049.006.048.007.05.005.049.005.05.005.049.004.05.004.049.003.05.003.05.002.05.001.05.001.05V19.967l-.001.051-.002.05-.002.051-.003.05-.004.051-.003.051-.005.05-.005.051-.005.051-.006.05-.007.052-.007.05-.008.051-.008.051-.009.05-.01.051-.009.051-.01.05-.011.051-.012.051-.012.05-.013.051-.013.05-.014.05-.014.051-.015.05-.015.05-.016.05-.017.05-.017.05-.017.05-.018.05-.02.05-.018.049-.02.049-.02.049-.021.049-.022.049-.022.049-.022.048-.024.048-.023.049-.024.048-.025.048-.025.047-.026.048-.026.047-.027.047-.027.047-.029.047-.028.046-.029.047-.03.046-.03.045-.03.046-.03.045-.033.045-.032.045-.032.044-.033.045-.034.044-.034.043-.035.044-.035.043-.035.043-.037.042-.036.042-.037.042-.038.042-.038.041-.039.041-.039.04-.04.041-.04.04-.04.04-.04.039-.042.039-.042.038-.042.038-.043.038-.043.037-.044.037-.044.037-.045.036-.045.036-.045.035-.046.035-.046.035-.047.034-.047.034-.048.033-.048.033-.048.033-.049.032-.05.031-.049.031-.05.031-.05.03-.05.03-.052.03-.051.028-.052.028-.052.028-.053.027-.053.027-.053.027-.053.026-.054.025-.055.025-.054.024-.055.024-.055.024-.056.022-.055.023-.057.021-.056.022-.057.02-.057.02-.057.02-.057.02-.058.018-.058.018-.059.017-.058.017-.06.016-.058.016-.06.015-.059.015-.06.014-.06.014-.06.012-.06.013-.06.011-.062.012-.06.01-.062.01-.061.01-.062.008-.061.008-.062.008-.062.007-.062.006-.062.006-.063.005-.062.005-.063.003-.063.004-.062.003-.063.002-.064.001h-.063l-.063.001h-.063l-.063-.001-.064-.002-.063-.002-.064-.003-.063-.004-.064-.004-.063-.005-.064-.006-.064-.006-.063-.006-.064-.008-.064-.008-.063-.008-.064-.01-.063-.01-.064-.01-.063-.011-.064-.012-.063-.013-.063-.013-.064-.014-.063-.014-.063-.015-.063-.016-.063-.016-.063-.017-.062-.018-.063-.018-.063-.019-.062-.02-.062-.02-.062-.02-.062-.022-.062-.022-.061-.023-.062-.023-.061-.024-.061-.025-.06-.025-.062-.026-.06-.026-.06-.027-.06-.028-.06-.028-.06-.03-.059-.029-.059-.03-.059-.031-.058-.031-.059-.033-.058-.032-.057-.033-.058-.034-.057-.035-.057-.035-.056-.035-.057-.037-.056-.037-.055-.037-.055-.038-.055-.039-.055-.039-.054-.04-.054-.04-.053-.041-.053-.042-.053-.042-.052-.042-.052-.043-.052-.044-.051-.045-.05-.045-.051-.045-.05-.046-.05-.046-.048-.047-.05-.048-.047-.048-.048-.049-.047-.049-.047-.05-.046-.05-.046-.05-.045-.051-.045-.052-.044-.052-.044-.053-.043-.053-.043-.054-.043-.054-.041-.054-.042-.055-.04-.056-.04-.056-.04-.056-.04-.057-.038-.057-.038-.058-.037-.058-.037-.059-.036-.059-.036-.06-.035-.06-.034-.06-.034-.06-.034-.061-.032-.062-.032-.062-.032-.062-.03-.062-.03-.063-.03-.063-.03-.064-.028-.064-.027-.064-.027-.065-.027-.065-.026-.065-.025-.066-.024-.066-.024-.066-.023-.067-.022-.067-.022-.067-.02-.067-.021-.068-.02-.068-.019-.068-.018-.069-.018-.068-.017-.07-.016-.069-.015-.069-.015-.07-.014-.07-.014-.07-.012-.07-.012-.07-.011-.07-.01-.072-.01-.07-.01-.072-.008-.071-.007-.072-.007-.071-.006-.072-.005-.072-.005-.072-.003-.072-.003-.072-.003-.072-.001-.073v-.072l-.001-.073v-.072l.002-.073.003-.073.003-.073.003-.072.005-.073.005-.073.006-.073.007-.073.008-.073.008-.073.01-.073.01-.072.01-.073.011-.073.013-.073.013-.073.013-.072.015-.073.015-.072.016-.073.017-.072.018-.072.018-.072.02-.072.02-.072.02-.072.021-.072.023-.071.023-.071.024-.072.024-.07.025-.071.026-.071.027-.07.028-.07.028-.07.03-.07.03-.07.03-.07.031-.069.032-.068.033-.07.034-.067.034-.069.035-.067.036-.068.037-.067.037-.067.038-.067.039-.066.04-.066.04-.066.04-.065.042-.065.043-.065.043-.064.043-.064.045-.064.045-.063.046-.063.047-.062.047-.062.048-.062.049-.06.049-.061.05-.06.05-.06.052-.06.052-.06.053-.058.053-.058.054-.057.055-.057.055-.057.056-.056.057-.056.057-.055.058-.054.058-.054.06-.054.059-.053.06-.053.061-.051.062-.052.062-.05.062-.051.064-.05.063-.049.065-.048.065-.048.065-.048.066-.046.067-.047.067-.045.067-.045.069-.044.068-.044.07-.043.07-.042.07-.042.07-.041.071-.04.072-.04.072-.04.073-.038.073-.038.073-.037.074-.036.075-.036.075-.035.075-.034.076-.033.076-.033.077-.032.076-.032.078-.03.078-.03.078-.03.078-.028.079-.028.08-.027.079-.026.08-.025.08-.025.08-.024.081-.023.081-.022.082-.022.082-.02.082-.02.082-.02.082-.018.083-.018.083-.017.084-.016.042-.008Zm1.024 5.94-.95.226-.057-4.672-.044.01-.068.016-.067.017-.067.017-.067.017-.066.019-.067.019-.066.02-.065.02-.066.02-.065.022-.065.022-.064.023-.064.023-.064.023-.064.025-.063.025-.063.026-.062.026-.062.027-.062.027-.062.028-.06.029-.061.029-.061.03-.06.03-.06.03-.059.032-.059.032-.058.032-.058.033-.057.033-.058.034-.057.035-.056.035-.056.036-.056.036-.054.036-.055.037-.054.038-.054.038-.053.038-.053.04-.052.039-.052.04-.051.04-.051.04-.05.042-.05.042-.05.042-.049.042-.048.043-.048.044-.048.044-.046.044-.047.045-.046.045-.045.045-.045.046-.044.046-.044.047-.043.047-.043.047-.042.048-.041.048-.041.049-.04.048-.04.05-.04.049-.039.05-.038.05-.038.05-.037.05-.036.052-.036.051-.035.052-.035.052-.034.052-.034.052-.033.053-.032.053-.032.053-.031.053-.031.054-.03.054-.03.054-.028.054-.029.055-.027.055-.027.055-.027.055-.025.055-.026.056-.024.055-.024.056-.024.056-.022.057-.023.056-.021.057-.021.056-.02.057-.02.057-.019.057-.018.057-.018.057-.018.058-.016.057-.016.058-.015.057-.015.058-.014.058-.014.058-.013.058-.012.058-.011.058-.011.058-.01.058-.01.058-.01.058-.008.058-.008.058-.008.058-.006.058-.006.058-.006.059-.005.058-.004.058-.003.058-.003.058-.003.058-.002.058v.058l-.002.057v.058l.001.058.001.057.002.058.003.057.003.057.003.057.004.057.005.057.005.057.006.057.007.056.007.057.008.056.008.056.009.056.01.056.01.056.01.055.01.055.013.055.012.055.013.055.013.054.014.055.014.054.015.054.016.053.016.054.016.053.018.053.017.053.019.052.018.052.02.052.02.052.02.052.02.05.021.052.022.05.023.05.022.05.024.05.023.05.024.049.025.049.025.048.026.048.026.048.027.048.027.047.027.047.028.047.029.046.028.046.03.045.03.046.03.044.03.045.031.044.032.044.031.043.032.043.033.043.033.042.034.042.034.041.034.042.034.04.035.04.035.04.036.04.036.039.037.039.036.038.037.038.038.037.038.037.038.037.038.036.039.035.04.036.038.035.04.034.04.034.04.033.041.033.04.033.042.032.042.032.041.031.042.031.042.03.043.03.043.03.043.029.043.028.043.028.044.028.044.027.044.026.044.026.045.026.044.025.045.025.046.024.045.024.045.023.046.023.046.022.046.022.046.022.046.02.046.02.047.02.047.02.047.019.047.018.047.018.047.018.047.016.048.017.047.016.048.015.048.015.047.015.048.014.048.013.048.013.048.012.048.012.049.012.048.011.048.01.048.01.049.01.048.01.048.008.049.008.048.007.049.007.048.007.048.006.049.006.048.005.048.004.049.005.048.003.048.003.048.003.048.002.048.002.048.001.048.001H17.842l.047-.001.048-.002.047-.002.048-.003.047-.002.047-.004.047-.004.047-.004.047-.005.047-.005.046-.006.046-.006.047-.007.046-.007.046-.007.045-.008.046-.008.046-.01.045-.008.045-.01.045-.01.045-.01.044-.012.045-.01.044-.013.044-.012.044-.012.043-.014.044-.013.043-.014.043-.014.043-.015.042-.015.042-.015.042-.016.042-.016.042-.017.041-.017.041-.017.041-.018.04-.018.04-.019.04-.018.04-.02.04-.02.04-.02.038-.02.039-.02.038-.021.038-.021.038-.022.038-.022.037-.022.036-.023.037-.023.036-.023.036-.024.036-.024.036-.024.035-.025.034-.024.035-.026.034-.025.033-.026.034-.026.033-.026.032-.027.033-.027.032-.027.032-.027.031-.028.031-.028.03-.028.03-.028.03-.029.03-.029.03-.029.029-.03.028-.03.028-.029.028-.03.027-.03.027-.03.027-.032.026-.03.026-.032.026-.031.025-.032.025-.031.024-.032.024-.032.024-.032.023-.033.023-.033.023-.032.022-.033.021-.033.022-.034.02-.033.021-.034.02-.033.02-.034.02-.034.018-.034.019-.034.018-.035.018-.034.017-.034.017-.035.017-.035.016-.035.015-.035.016-.035.015-.035.014-.035.015-.035.013-.035.014-.036.013-.035.012-.036.013-.035.011-.036.012-.036.01-.035.011-.036.01-.036.01-.036.01-.035.008-.036.009-.036.008-.036.008-.036.007-.036.007-.036.007-.036.006-.035.006-.036.005-.036.006-.036.004-.036.004-.036.004-.035.004-.036.003-.036.003-.036.002-.035.002-.036.002-.035v-.035l.001-.036v-.035l.001-.035v-.035l-.001-.035-.001-.035-.002-.035-.001-.035-.002-.035-.003-.034-.003-.035-.003-.035-.004-.034L22 19.49l-.004-.034-.005-.034-.005-.034-.005-.033-.006-.034-.006-.034-.006-.033-.007-.033-.007-.033-.007-.033-.008-.033-.008-.032-.008-.033-.009-.032-.009-.032-.01-.032-.009-.032-.01-.032-.01-.031-.01-.032-.012-.03-.011-.031-.012-.031-.011-.031-.013-.03-.012-.03-.013-.03-.013-.03-.013-.03-.014-.03-.013-.028-.014-.03-.015-.028-.015-.029-.015-.028-.015-.028-.015-.028-.016-.028-.016-.027-.016-.028-.017-.027-.016-.027-.018-.026-.017-.026-.017-.027-.018-.026-.018-.025-.018-.026-.018-.025-.02-.024-.018-.025-.019-.024-.02-.025-.019-.024-.02-.023-.02-.023-.02-.024-.02-.023-.02-.022-.021-.022-.02-.023-.022-.021-.021-.022-.022-.021-.021-.021-.022-.02-.022-.021-.022-.02-.022-.02-.023-.02-.022-.02-.023-.019-.023-.018-.023-.019-.023-.018-.023-.018-.023-.018-.024-.017-.024-.018-.023-.016-.024-.017-.024-.016-.024-.016-.025-.016-.024-.015-.024-.015-.025-.015-.024-.015-.025-.014-.025-.014-.025-.014-.025-.013-.025-.013-.025-.013-.025-.013-.026-.012-.025-.012-.025-.012-.026-.011-.025-.011-.026-.011-.025-.01-.026-.011-.026-.01-.025-.01-.026-.009-.026-.01-.026-.008-.025-.009-.026-.008-.026-.008-.026-.007-.026-.008-.026-.007-.025-.007-.026-.006-.026-.007-.026-.006-.026-.005-.026-.006-.025-.005-.026-.005-.026-.004-.026-.005-.025-.004-.026-.003-.026-.004-.026-.003-.025-.003-.026-.003-.025-.002-.025-.002-.026-.002-.025-.002-.026-.001-.025-.001-.025-.001h-.025l-.025-.001H19.185l-.025.001-.025.001-.024.001-.025.002-.024.001-.024.002-.024.002-.024.003-.024.002-.024.003-.024.003-.024.004-.023.003-.024.004-.023.004-.023.004-.023.005-.023.005-.023.004-.022.005Z" clip-rule="evenodd"/></svg>