<svg xmlns="http://www.w3.org/2000/svg" width="116" height="28" fill="none"><g fill="#222" clip-path="url(#a)"><path d="M35.387 19.216h8.155v-2.458h-5.257v-9.26h-2.898v11.718ZM48.374 17.577c-1.163 0-1.768-1.016-1.768-2.54 0-1.525.605-2.557 1.768-2.557s1.785 1.032 1.785 2.557c0 1.524-.622 2.54-1.785 2.54Zm.017 1.901c2.702 0 4.47-1.917 4.47-4.441s-1.768-4.442-4.47-4.442c-2.686 0-4.488 1.918-4.488 4.442s1.802 4.441 4.488 4.441ZM57.538 22.117c1.245 0 2.342-.278 3.08-.934.67-.606 1.113-1.524 1.113-2.786v-7.572h-2.555v.9h-.033c-.49-.704-1.244-1.146-2.358-1.146-2.08 0-3.52 1.737-3.52 4.195 0 2.574 1.752 3.983 3.635 3.983 1.015 0 1.654-.41 2.145-.967h.066v.836c0 1.016-.475 1.607-1.605 1.607-.885 0-1.327-.378-1.474-.82h-2.588c.262 1.754 1.785 2.704 4.094 2.704Zm-.016-5.343c-.999 0-1.654-.82-1.654-2.081 0-1.279.655-2.098 1.654-2.098 1.114 0 1.703.95 1.703 2.081 0 1.18-.54 2.098-1.703 2.098ZM66.984 17.577c-1.163 0-1.769-1.016-1.769-2.54 0-1.525.606-2.557 1.769-2.557 1.163 0 1.785 1.032 1.785 2.557 0 1.524-.622 2.54-1.785 2.54ZM67 19.478c2.702 0 4.471-1.917 4.471-4.441s-1.769-4.442-4.47-4.442c-2.687 0-4.488 1.918-4.488 4.442s1.801 4.441 4.487 4.441ZM72.25 19.216h2.67v-8.392h-2.67v8.392Zm0-9.555h2.67V7.497h-2.67v2.164ZM76.078 21.986h2.67v-3.638h.032c.524.704 1.294 1.13 2.375 1.13 2.194 0 3.652-1.737 3.652-4.458 0-2.524-1.36-4.441-3.587-4.441-1.146 0-1.965.508-2.538 1.262h-.049v-1.016h-2.555v11.161Zm4.39-4.573c-1.147 0-1.802-.934-1.802-2.294 0-1.36.59-2.393 1.752-2.393 1.146 0 1.687.95 1.687 2.393 0 1.426-.623 2.294-1.638 2.294ZM89.153 19.479c2.194 0 3.816-.951 3.816-2.787 0-2.147-1.736-2.524-3.21-2.77-1.065-.197-2.015-.278-2.015-.869 0-.524.508-.77 1.163-.77.737 0 1.245.23 1.343.984h2.457c-.131-1.656-1.409-2.688-3.783-2.688-1.982 0-3.62.917-3.62 2.688 0 1.966 1.556 2.36 3.014 2.606 1.113.196 2.129.278 2.129 1.032 0 .541-.508.836-1.31.836-.885 0-1.442-.41-1.54-1.245h-2.522c.082 1.852 1.621 2.983 4.078 2.983ZM96.595 19.462c1.162 0 1.9-.459 2.505-1.278h.05v1.032h2.554v-8.392h-2.67v4.688c0 1-.556 1.688-1.473 1.688-.852 0-1.261-.508-1.261-1.426v-4.95h-2.653v5.508c0 1.868 1.015 3.13 2.948 3.13ZM102.865 19.216h2.669v-4.704c0-1 .491-1.704 1.327-1.704.802 0 1.179.524 1.179 1.426v4.982h2.669v-4.704c0-1 .475-1.704 1.327-1.704.802 0 1.179.524 1.179 1.426v4.982h2.669v-5.458c0-1.885-.95-3.18-2.849-3.18-1.081 0-1.982.46-2.637 1.476h-.033c-.426-.902-1.261-1.475-2.358-1.475-1.212 0-2.014.573-2.538 1.442h-.05v-1.197h-2.554v8.392Z"/><path fill-rule="evenodd" d="M14.114 27.411c7.537 0 13.647-6.115 13.647-13.658C27.76 6.209 21.65.094 14.114.094S.467 6.21.467 13.753c0 7.543 6.11 13.658 13.647 13.658ZM18.37 6.457c.207-.737-.507-1.172-1.16-.707l-9.107 6.493c-.707.505-.596 1.51.168 1.51h2.398v-.019h4.674l-3.809 1.345-1.679 5.97c-.207.736.508 1.172 1.16.707l9.107-6.494c.708-.504.596-1.51-.167-1.51H16.32l2.052-7.295Z" clip-rule="evenodd"/></g><defs><clipPath id="a"><path fill="#fff" d="M0 0h116v28H0z"/></clipPath></defs></svg>