<svg xmlns="http://www.w3.org/2000/svg" width="229" height="20" fill="none"><path fill="#222" fill-rule="evenodd" d="M28.398 2c4.383 0 7.936 3.582 7.936 8s-3.553 8-7.936 8-7.936-3.582-7.936-8 3.553-8 7.936-8Zm-.287.599c-.905.128-1.767.861-2.436 2.088a8.37 8.37 0 0 0-.522 1.173c.91-.23 1.91-.366 2.958-.387V2.599Zm-3.629 3.453c.19-.6.422-1.153.69-1.644.332-.608.726-1.133 1.17-1.536a7.408 7.408 0 0 0-5.015 5.054c.4-.447.921-.844 1.524-1.178a9.122 9.122 0 0 1 1.631-.696Zm-.19.676a13.48 13.48 0 0 0-.385 2.983h-2.851c.127-.913.855-1.782 2.072-2.456a8.228 8.228 0 0 1 1.163-.527Zm.189 2.983c.024-1.154.188-2.238.461-3.195.95-.275 2.025-.441 3.17-.465v1.25a4.24 4.24 0 0 1-2.392 2.41H24.48Zm-.574.578h-2.851c.127.913.855 1.782 2.072 2.456.353.196.742.373 1.163.527a13.481 13.481 0 0 1-.384-2.983Zm1.035 3.195a12.684 12.684 0 0 1-.461-3.195h1.239a4.24 4.24 0 0 1 2.391 2.41v1.25a12.392 12.392 0 0 1-3.169-.465Zm-.46.464a9.122 9.122 0 0 1-1.63-.696c-.604-.334-1.125-.731-1.525-1.178a7.408 7.408 0 0 0 5.014 5.054c-.444-.403-.837-.928-1.169-1.536a9.272 9.272 0 0 1-.69-1.644Zm3.63 3.453c-.906-.128-1.768-.861-2.437-2.088a8.365 8.365 0 0 1-.522-1.173c.91.23 1.91.366 2.958.387v2.874Zm2.343-.273c.444-.403.838-.928 1.17-1.536a9.28 9.28 0 0 0 .69-1.644 9.122 9.122 0 0 0 1.63-.696c.603-.334 1.124-.731 1.524-1.178a7.408 7.408 0 0 1-5.014 5.054Zm1.189-2.988a8.365 8.365 0 0 1-.522 1.173c-.67 1.227-1.532 1.96-2.437 2.088v-2.874a13.176 13.176 0 0 0 2.959-.387Zm.86-.868c.422-.154.812-.33 1.165-.527 1.217-.674 1.944-1.543 2.071-2.456h-2.85a13.481 13.481 0 0 1-.385 2.983Zm-.188-2.983a12.688 12.688 0 0 1-.462 3.195c-.95.275-2.024.441-3.169.465V12.7a4.24 4.24 0 0 1 2.392-2.412h1.238Zm.573-.578h2.851c-.127-.913-.855-1.782-2.071-2.456a8.228 8.228 0 0 0-1.164-.527c.229.918.363 1.925.384 2.983Zm-1.035-3.195c.273.957.438 2.04.462 3.195h-1.24a4.24 4.24 0 0 1-2.391-2.412V6.051c1.145.024 2.22.19 3.17.465Zm.46-.464a9.122 9.122 0 0 1 1.631.696c.603.334 1.124.731 1.524 1.178a7.408 7.408 0 0 0-5.014-5.054c.444.403.838.928 1.17 1.536.267.491.5 1.044.69 1.644ZM28.685 2.6c.905.128 1.768.861 2.437 2.088.194.356.369.749.522 1.173-.91-.23-1.91-.366-2.959-.387V2.599Z" clip-rule="evenodd"/><path fill="#222" d="M6.4 2.845h1.619l1.79 4.742 1.81-4.742h1.618l-2.342 5.933 2.323 5.625L17.79 2.768h1.867L13.999 16.4h-1.486L9.829 9.968 7.123 16.4H5.638L0 2.768h1.847l4.59 11.635 2.305-5.625L6.4 2.845ZM38.747 16.4V2.768h5.79c.597 0 1.143.128 1.638.384.495.243.927.576 1.295.998.368.41.654.877.857 1.402.203.512.305 1.037.305 1.574 0 .628-.12 1.223-.362 1.786a3.94 3.94 0 0 1-.99 1.44 3.413 3.413 0 0 1-1.486.826L49.07 16.4h-1.943l-3.085-4.896H40.46V16.4h-1.714Zm1.714-6.432h4.095c.47 0 .876-.128 1.219-.384.355-.269.628-.62.819-1.056.203-.435.305-.902.305-1.402 0-.512-.115-.979-.343-1.401a2.848 2.848 0 0 0-.895-1.037 2.089 2.089 0 0 0-1.22-.384h-3.98v5.664ZM51.265 16.4V2.787h1.714v7.527l6.97-7.546h1.848l-5.428 6.01 5.733 7.622h-1.924l-4.895-6.586-2.304 2.42V16.4h-1.714ZM71.632 5.629a2.824 2.824 0 0 0-.61-.519 4.908 4.908 0 0 0-.857-.441 5.03 5.03 0 0 0-1.047-.327 4.898 4.898 0 0 0-1.162-.134c-1.041 0-1.81.198-2.305.595-.495.397-.743.941-.743 1.632 0 .487.127.87.381 1.152.254.282.641.512 1.162.691.533.18 1.206.365 2.019.557.94.205 1.752.455 2.438.749.686.294 1.213.691 1.58 1.19.369.487.553 1.14.553 1.959 0 .653-.127 1.222-.38 1.709-.242.473-.585.87-1.03 1.19a4.843 4.843 0 0 1-1.561.691 8.451 8.451 0 0 1-1.943.211c-.685 0-1.358-.07-2.019-.21a9.049 9.049 0 0 1-1.847-.654 7.961 7.961 0 0 1-1.638-1.056l.819-1.459a4.7 4.7 0 0 0 .78.653c.33.205.699.397 1.105.576.42.18.87.326 1.353.442.482.102.977.153 1.485.153.965 0 1.714-.173 2.248-.518.533-.359.8-.877.8-1.555 0-.512-.153-.922-.457-1.23-.293-.306-.73-.562-1.315-.767a23.23 23.23 0 0 0-2.133-.615c-.914-.23-1.682-.48-2.304-.748-.623-.282-1.092-.647-1.41-1.095-.305-.448-.457-1.03-.457-1.747 0-.87.21-1.606.629-2.208.419-.602.996-1.056 1.733-1.363.736-.307 1.568-.461 2.495-.461.61 0 1.174.064 1.695.192a6.828 6.828 0 0 1 1.486.538c.457.23.876.505 1.257.825l-.8 1.402ZM75.296 16.4V2.768h5.637c.597 0 1.143.128 1.638.384.496.243.927.576 1.296.998.368.41.654.877.857 1.402.203.512.304 1.037.304 1.574 0 .743-.165 1.453-.495 2.132a4.315 4.315 0 0 1-1.39 1.632c-.597.41-1.295.614-2.095.614H77.01V16.4h-1.714Zm1.714-6.432h3.943c.47 0 .876-.128 1.218-.384.356-.256.63-.602.82-1.037.203-.435.304-.909.304-1.42 0-.538-.114-1.018-.343-1.44a2.684 2.684 0 0 0-.895-1.018 2.166 2.166 0 0 0-1.219-.365H77.01v5.664ZM86.287 9.488c0-.832.14-1.645.418-2.438a7.212 7.212 0 0 1 1.258-2.19A6.04 6.04 0 0 1 90 3.287c.8-.396 1.707-.595 2.723-.595 1.206 0 2.241.282 3.105.845.863.55 1.504 1.26 1.923 2.131L96.4 6.55c-.267-.576-.61-1.03-1.028-1.363a3.6 3.6 0 0 0-1.334-.73 4.825 4.825 0 0 0-1.39-.21c-.75 0-1.416.153-2 .46a4.482 4.482 0 0 0-1.447 1.229 5.576 5.576 0 0 0-.896 1.728 6.508 6.508 0 0 0-.285 1.9c0 .705.114 1.383.343 2.036.24.653.57 1.229.99 1.728.419.5.914.896 1.486 1.19a4.015 4.015 0 0 0 1.866.442c.47 0 .952-.083 1.448-.25a4.518 4.518 0 0 0 1.39-.768c.432-.358.775-.819 1.028-1.382l1.429.787a4.308 4.308 0 0 1-1.295 1.728 6.247 6.247 0 0 1-1.962 1.075 6.503 6.503 0 0 1-2.114.365 5.515 5.515 0 0 1-2.552-.595 6.871 6.871 0 0 1-2.02-1.613 8.055 8.055 0 0 1-1.313-2.265 7.477 7.477 0 0 1-.457-2.554Z"/><path fill="#222" d="M114 0h1v20h-1z" opacity=".25"/><g fill="#222" clip-path="url(#a)"><path d="M138.952 6.874v-.79h-.427v.75c0 .135-.121.225-.325.225-.213 0-.329-.087-.329-.226v-.75h-.432v.75c0 .39.311.555.744.555.463 0 .769-.167.769-.514ZM140.39 7.37v-.342h-.762v-.944h-.431V7.37h1.193ZM141.672 6.407v-.323h-1.492v.323h.527v.963h.437v-.963h.528ZM142.247 7.37V6.084h-.439V7.37h.439ZM144.256 7.37V6.084h-.54l-.341.772-.325-.772h-.557V7.37h.406v-.695l.293.695h.363l.296-.695v.695h.405ZM144.932 7.133h.676l.11.237h.46l-.631-1.286h-.514l-.668 1.286h.451l.116-.237Zm.54-.289h-.4l.158-.31.048-.118.044.117.15.311ZM147.532 6.407v-.323h-1.493v.323h.527v.963h.437v-.963h.529ZM148.983 7.37v-.32h-.896v-.167h.86V6.57h-.86v-.165h.885v-.321h-1.306V7.37h1.317ZM140.694 8.054h-.412s-.27.81-.27.83c0-.02-.251-.83-.251-.83h-.448s-.25.81-.25.83c0-.02-.271-.83-.271-.83h-.463l.468 1.287h.467s.251-.769.253-.79c.002.021.252.79.252.79h.468l.457-1.287ZM141.259 9.34V8.055h-.438v1.287h.438ZM142.962 9.34V8.055h-.407v.7l-.601-.7h-.449v1.287h.411v-.717l.619.717h.427ZM144.669 9.34V8.055h-.408v.7l-.601-.7h-.449v1.287h.411v-.717l.62.717h.427ZM146.235 9.34v-.319h-.897v-.167h.86V8.54h-.86v-.166h.886v-.32h-1.307V9.34h1.318ZM147.919 8.446c0-.117-.028-.2-.085-.26-.075-.083-.204-.132-.401-.132h-.996v1.287h.426v-.454h.387l.31.454h.475l-.378-.525a.306.306 0 0 0 .198-.128.43.43 0 0 0 .064-.242Zm-.414.04a.144.144 0 0 1-.015.068c-.016.033-.057.046-.126.046h-.5v-.235h.492c.067 0 .112.012.134.055a.128.128 0 0 1 .015.067ZM139.132 10.606v-.628h-.15v.618c0 .146-.133.23-.326.23-.227 0-.339-.09-.339-.23v-.618h-.15v.612c0 .258.195.371.483.371.299 0 .482-.12.482-.355ZM140.202 10.949v-.142h-.651v-.83h-.15v.972h.801ZM141.056 10.119v-.141h-1.003v.14h.425v.831h.152v-.83h.426ZM142.125 10.252c0-.069-.015-.12-.04-.16-.044-.069-.13-.114-.272-.114h-.611v.971h.148v-.41h.431l.263.41h.173l-.285-.436a.207.207 0 0 0 .159-.105.313.313 0 0 0 .034-.156Zm-.149.013c0 .027-.006.06-.017.083-.019.035-.064.054-.136.055h-.471v-.287h.443c.091 0 .139.023.164.065a.19.19 0 0 1 .017.084ZM142.553 10.709h.588l.12.24h.161l-.478-.971h-.177l-.494.971h.157l.123-.24Zm.526-.137h-.461l.191-.373.042-.09.042.09.186.373ZM144.948 10.856a.274.274 0 0 0 .054-.175.251.251 0 0 0-.055-.169.279.279 0 0 0-.164-.074.146.146 0 0 0 .089-.057.263.263 0 0 0 .052-.162.233.233 0 0 0-.06-.166c-.045-.046-.121-.075-.227-.075h-.635v.971h.682c.128 0 .217-.033.264-.093Zm-.179-.606a.15.15 0 0 1-.036.104c-.023.026-.062.037-.103.037h-.481v-.28h.454c.055 0 .097.011.126.039a.14.14 0 0 1 .04.1Zm.048.512c-.03.035-.082.052-.158.052h-.51v-.288h.514c.07 0 .118.015.146.043a.13.13 0 0 1 .038.098c0 .04-.009.073-.03.095ZM146.095 10.949v-.142h-.735v-.277h.706v-.142h-.706v-.27h.726v-.14h-.873v.971h.882ZM147.269 10.662c0-.159-.102-.24-.354-.27l-.183-.022c-.233-.029-.304-.06-.304-.144 0-.08.078-.126.314-.126.183 0 .277.037.324.104a.17.17 0 0 1 .024.058h.161a.362.362 0 0 0-.033-.1c-.065-.115-.198-.198-.476-.198-.332-.001-.469.122-.469.276 0 .153.107.231.385.265l.175.02c.216.028.283.061.283.154 0 .086-.077.147-.323.147-.203 0-.311-.037-.354-.108a.162.162 0 0 1-.023-.072h-.159a.33.33 0 0 0 .038.131c.062.118.209.186.493.186.339 0 .481-.113.481-.301ZM148.347 10.119v-.141h-1.003v.14h.426v.831h.152v-.83h.425ZM137.741 11.793a.392.392 0 0 0-.051-.216c-.046-.073-.135-.112-.29-.112h-.597v.972h.149v-.317h.442c.145-.001.245-.036.298-.115.034-.048.049-.118.049-.212Zm-.151 0c0 .05-.005.087-.021.112-.027.046-.084.074-.201.074h-.416v-.375h.421c.11 0 .166.026.196.077.015.022.021.063.021.112ZM138.831 12.437v-.143h-.734v-.277h.705v-.14h-.705v-.27h.726v-.142h-.873v.972h.881ZM139.977 11.74a.29.29 0 0 0-.04-.16c-.044-.069-.129-.115-.271-.115h-.611v.972h.148v-.41h.43l.264.41h.173l-.285-.436a.207.207 0 0 0 .158-.105.313.313 0 0 0 .034-.156Zm-.149.012c0 .028-.006.061-.017.083-.019.036-.064.055-.136.056h-.471v-.287h.444c.09 0 .138.022.163.064a.19.19 0 0 1 .017.085ZM141.093 11.607v-.142h-.84v.972h.149v-.413h.66v-.145h-.66v-.272h.691ZM141.777 11.448c-.201 0-.339.05-.438.157-.083.083-.119.198-.119.343 0 .158.047.277.133.358.093.095.235.144.424.144.195 0 .346-.05.436-.15.079-.081.119-.197.119-.353 0-.151-.034-.266-.117-.348-.095-.101-.237-.15-.438-.15Zm0 .864a.44.44 0 0 1-.297-.09c-.072-.06-.107-.153-.107-.271 0-.112.03-.205.088-.26.066-.065.167-.103.315-.103.152 0 .247.037.318.101.06.055.087.151.087.26 0 .11-.028.204-.089.261-.071.068-.171.102-.315.102ZM143.461 11.74c0-.07-.015-.12-.04-.16-.044-.069-.13-.115-.272-.115h-.611v.972h.148v-.41h.431l.263.41h.173l-.285-.436a.207.207 0 0 0 .159-.105.313.313 0 0 0 .034-.156Zm-.149.012c0 .028-.006.061-.017.083-.019.036-.064.055-.136.056h-.472v-.287h.444c.09 0 .139.022.164.064a.19.19 0 0 1 .017.085ZM144.899 12.437v-.972h-.194l-.389.8-.381-.8h-.199v.972h.143v-.748l.356.748h.157l.364-.748v.748h.143ZM145.322 12.197h.588l.12.24h.161l-.478-.972h-.177l-.494.972h.157l.123-.24Zm.525-.138h-.46l.191-.372.042-.09.042.09.185.372ZM147.275 12.437v-.972h-.143v.755l-.626-.755h-.169v.972h.145v-.76l.63.76h.163ZM148.572 12.074h-.156a.22.22 0 0 1-.052.123c-.065.078-.168.111-.327.111-.133 0-.277-.038-.345-.139a.352.352 0 0 1-.059-.22c0-.093.016-.162.05-.209.058-.095.179-.145.35-.145.166 0 .271.047.326.113.031.035.05.075.055.124h.157a.384.384 0 0 0-.058-.174c-.077-.117-.219-.21-.479-.21-.247 0-.395.082-.477.204a.485.485 0 0 0-.079.296c0 .141.032.245.089.318.082.115.239.184.477.184.244 0 .39-.075.462-.195a.389.389 0 0 0 .066-.18ZM149.65 12.437v-.143h-.735v-.277h.706v-.14h-.706v-.27h.726v-.142h-.873v.972h.882ZM138.649 13.402l.18.57h.582l-.471.351.18.57-.471-.352-.471.352.18-.57-.471-.352h.583l.179-.57ZM140.726 13.402l.184.57h.593l-.48.351.183.57-.48-.352-.481.352.184-.57-.481-.352h.594l.184-.57ZM142.786 13.402l.184.57h.594l-.481.351.184.57-.481-.352-.48.352.183-.57-.48-.352h.594l.183-.57ZM144.846 13.402l.184.57h.594l-.481.351.184.57-.481-.352-.48.352.183-.57-.48-.352h.594l.183-.57ZM146.923 13.402l.179.57h.583l-.471.351.179.57-.47-.352-.471.352.18-.57-.471-.352h.582l.18-.57ZM139.658 3.792l.136.43h.44l-.356.267.136.43-.356-.266-.356.267.136-.431-.356-.266h.44l.136-.43ZM141.228 3.791l.139.431h.449l-.363.266.139.43-.364-.265-.363.266.139-.43-.363-.267h.449l.138-.43ZM142.786 3.791l.139.431h.449l-.364.266.139.43-.363-.265-.363.266.138-.43-.363-.267h.449l.139-.43ZM144.344 3.791l.138.431h.45l-.364.266.139.43-.363-.265-.364.266.139-.43-.363-.267h.449l.139-.43ZM145.913 3.791l.136.431h.441l-.356.266.136.43-.357-.265-.356.266.136-.43-.356-.267h.44l.136-.43Z"/><path fill-rule="evenodd" d="M133.39 11.543c-.6-3.863 1.151-7.686 4.658-9.327l.032.073c-3.471 1.625-5.208 5.41-4.613 9.242.659 4.239 3.982 6.781 8.052 6.904l-.002.08c-4.102-.123-7.462-2.689-8.127-6.972Z" clip-rule="evenodd"/><path d="M137.288 3.202c-.648.015-1.407.39-1.854.937.358.343.936.216 1.351.146a6.655 6.655 0 0 0 1.784-.568c-.23-.504-.85-.525-1.281-.515Z"/><path d="M136.778 2.38a11.95 11.95 0 0 1-1.339 1.764c-.417-.402-.165-1.071.005-1.488.308-.754 1.046-1.405 1.818-1.737.212.496-.248 1.083-.484 1.46ZM135.412 4.927c-.607.222-1.128.847-1.39 1.474.437.208.933-.093 1.295-.294a5.598 5.598 0 0 0 1.407-1.096c-.361-.392-.91-.231-1.312-.084Z"/><path d="M134.677 4.312a9.816 9.816 0 0 1-.648 2.092c-.511-.248-.491-.957-.47-1.409.038-.77.457-1.65 1.04-2.208.357.394.162 1.078.078 1.525ZM134.245 7.154c-.506.41-.812 1.171-.883 1.85.478.057.86-.391 1.145-.698.387-.419.754-.943.986-1.492-.456-.256-.919.073-1.248.34Z"/><path d="M133.369 6.808c.09.708.09 1.475 0 2.197-.556-.07-.741-.757-.85-1.188-.188-.744-.062-1.706.305-2.43.458.262.487.968.545 1.42ZM133.848 9.585c-.4.603-.541 1.548-.361 2.308.529-.129.791-.745 1.001-1.18.28-.578.516-1.252.601-1.914-.573-.123-.978.39-1.241.786Z"/><path d="M132.798 9.524c.311.743.554 1.56.697 2.367-.607.134-1.043-.52-1.296-.955-.452-.774-.583-1.846-.418-2.77.555.114.827.906 1.017 1.358ZM134.128 12.209c-.215.732-.066 1.726.369 2.414.478-.32.544-1.025.612-1.53.089-.667.131-1.406.02-2.097-.611.08-.858.724-1.001 1.213Z"/><path d="M133.065 12.522a12.986 12.986 0 0 1 1.44 2.096c-.554.355-1.203-.13-1.597-.474-.699-.61-1.152-1.646-1.26-2.622.581-.08 1.094.618 1.417 1ZM135.255 14.699c.046.851.585 1.745 1.302 2.254.347-.489.13-1.236.011-1.758-.159-.703-.379-1.435-.706-2.084-.571.31-.637 1.027-.607 1.588Z"/><path d="M134.29 15.418c.777.445 1.552.969 2.273 1.527-.432.584-1.294.351-1.829.163-.942-.33-1.782-1.204-2.221-2.174.556-.294 1.318.222 1.777.484ZM137.469 16.78c.466.875 1.529 1.447 2.53 1.584.108-.637-.562-1.267-.927-1.68-.519-.587-1.061-1.196-1.668-1.704-.454.543-.214 1.276.065 1.8Z"/><path d="M136.802 17.89c1.061.113 2.139.276 3.199.464-.101.804-1.34.933-1.903.98-1.154.098-2.437-.379-3.33-1.182.444-.537 1.47-.323 2.034-.263ZM138.845 1.541c-.712.21-1.545.606-1.957 1.338.747-.084 1.482-.358 2.2-.566.804-.234 1.651-.408 2.43-.73-.853-.352-1.858-.28-2.673-.042Z"/><path fill-rule="evenodd" d="M152.618 11.53c.595-3.83-1.142-7.616-4.614-9.241l.033-.073c3.506 1.641 5.258 5.464 4.658 9.328-.665 4.282-4.025 6.848-8.127 6.971l-.003-.08c4.071-.123 7.394-2.665 8.053-6.904Z" clip-rule="evenodd"/><path d="M148.797 3.202c.648.015 1.407.39 1.854.937-.359.343-.936.216-1.352.146a6.648 6.648 0 0 1-1.783-.568c.23-.504.85-.525 1.281-.515Z"/><path d="M149.307 2.38a11.95 11.95 0 0 0 1.339 1.764c.416-.402.165-1.071-.005-1.488-.308-.754-1.046-1.405-1.818-1.737-.212.496.248 1.083.484 1.46ZM150.673 4.927c.606.222 1.128.847 1.389 1.474-.436.208-.932-.093-1.295-.294a5.611 5.611 0 0 1-1.406-1.096c.361-.392.91-.231 1.312-.084Z"/><path d="M151.408 4.312c.133.702.355 1.43.648 2.092.511-.248.491-.957.469-1.409-.037-.77-.456-1.65-1.039-2.208-.358.394-.162 1.078-.078 1.525ZM151.84 7.154c.506.41.812 1.171.883 1.85-.478.057-.86-.391-1.145-.698a5.358 5.358 0 0 1-.987-1.492c.456-.256.92.073 1.249.34Z"/><path d="M152.716 6.808a8.976 8.976 0 0 0 0 2.197c.556-.07.741-.757.85-1.188.188-.744.062-1.706-.305-2.43-.458.262-.487.968-.545 1.42ZM152.237 9.585c.4.603.54 1.548.361 2.308-.529-.129-.791-.745-1.002-1.18-.279-.578-.516-1.252-.6-1.914.573-.123.977.39 1.241.786Z"/><path d="M153.287 9.524c-.312.743-.555 1.56-.697 2.367.606.134 1.042-.52 1.296-.955.451-.774.583-1.846.418-2.77-.555.114-.827.906-1.017 1.358ZM151.957 12.209c.215.732.066 1.726-.369 2.414-.478-.32-.545-1.025-.612-1.53-.089-.667-.132-1.406-.021-2.097.612.08.858.724 1.002 1.213Z"/><path d="M153.019 12.522a12.985 12.985 0 0 0-1.439 2.096c.553.355 1.203-.13 1.597-.474.698-.61 1.152-1.646 1.26-2.622-.582-.08-1.094.618-1.418 1ZM150.829 14.699c-.046.851-.584 1.745-1.302 2.254-.346-.489-.129-1.236-.011-1.758.159-.703.379-1.435.707-2.084.57.31.637 1.027.606 1.588Z"/><path d="M151.795 15.418c-.778.445-1.553.969-2.273 1.527.431.584 1.294.351 1.828.163.943-.33 1.783-1.204 2.222-2.174-.557-.294-1.318.222-1.777.484ZM148.616 16.78c-.467.875-1.529 1.447-2.531 1.584-.107-.637.562-1.267.927-1.68.52-.587 1.061-1.196 1.668-1.704.455.543.214 1.276-.064 1.8Z"/><path d="M149.282 17.89a46.98 46.98 0 0 0-3.198.464c.101.804 1.34.933 1.903.98 1.153.098 2.437-.379 3.33-1.182-.444-.537-1.47-.323-2.035-.263ZM147.24 1.541c.712.21 1.545.606 1.957 1.338-.747-.084-1.482-.358-2.2-.566-.805-.234-1.652-.408-2.431-.73.853-.352 1.859-.28 2.674-.042ZM143.505 1.163l-.365-.83-.358.814-.834-.532.536 1.159h1.332l.516-1.159-.827.548ZM143.807 1.954h-1.334v.202h1.334v-.202ZM143.235 17.624l.215.68h.696l-.563.421.215.681-.563-.42-.562.42.215-.68-.563-.421h.695l.215-.681Z"/></g><path fill="#222" d="M163.161 8.364V2.545h2.327c.427 0 .784.064 1.07.19.285.128.5.304.644.53.144.223.216.48.216.772 0 .227-.046.427-.137.6-.09.17-.215.31-.374.42a1.537 1.537 0 0 1-.539.23v.057a1.326 1.326 0 0 1 1.095.673c.121.206.182.453.182.739 0 .308-.077.584-.23.826-.152.24-.376.431-.673.571-.297.14-.663.21-1.098.21h-2.483Zm1.229-1.006h1.001c.343 0 .593-.065.75-.196a.657.657 0 0 0 .235-.528.787.787 0 0 0-.116-.427.792.792 0 0 0-.332-.29 1.136 1.136 0 0 0-.508-.104h-1.03v1.545Zm0-2.378h.911c.168 0 .317-.03.448-.088a.75.75 0 0 0 .312-.256.664.664 0 0 0 .116-.395c0-.21-.074-.38-.224-.508-.147-.129-.357-.193-.63-.193h-.933v1.44ZM170.408 8.449c-.448 0-.834-.091-1.158-.273a1.863 1.863 0 0 1-.743-.778c-.174-.337-.261-.736-.261-1.196 0-.45.087-.843.261-1.182a1.93 1.93 0 0 1 .735-.793c.317-.19.69-.284 1.118-.284.287 0 .555.047.803.14.249.09.467.228.652.411.188.184.333.415.437.694.105.276.157.6.157.971v.332h-3.681v-.75h2.543a.925.925 0 0 0-.114-.463.818.818 0 0 0-.315-.315.897.897 0 0 0-.462-.116.932.932 0 0 0-.489.127.9.9 0 0 0-.329.339.962.962 0 0 0-.122.468v.713c0 .216.04.403.119.56a.876.876 0 0 0 .344.364c.147.085.322.127.525.127.134 0 .257-.018.369-.056a.74.74 0 0 0 .468-.449l1.118.074a1.53 1.53 0 0 1-.349.704 1.752 1.752 0 0 1-.675.466 2.55 2.55 0 0 1-.951.165ZM176.824 5.244l-1.107.069a.568.568 0 0 0-.122-.256.639.639 0 0 0-.247-.185.835.835 0 0 0-.36-.07.887.887 0 0 0-.474.118c-.128.078-.193.182-.193.313 0 .104.042.192.125.264.083.072.226.13.429.173l.788.16c.424.087.74.227.948.42.208.193.312.447.312.761 0 .286-.084.537-.252.753a1.639 1.639 0 0 1-.687.506 2.61 2.61 0 0 1-1.002.179c-.577 0-1.036-.12-1.379-.36a1.41 1.41 0 0 1-.599-.99l1.19-.062c.035.176.122.31.261.403.138.091.315.137.53.137.212 0 .382-.041.511-.122.131-.084.197-.19.199-.321a.337.337 0 0 0-.139-.27c-.091-.072-.231-.127-.42-.165l-.755-.15c-.426-.086-.743-.234-.951-.444-.206-.21-.309-.478-.309-.804 0-.28.076-.522.227-.724a1.46 1.46 0 0 1 .644-.469 2.65 2.65 0 0 1 .976-.165c.551 0 .984.117 1.3.35.318.233.503.55.556.951ZM180.003 4v.91h-2.625V4h2.625Zm-2.029-1.045h1.209v4.068c0 .111.017.199.051.261a.28.28 0 0 0 .142.128.583.583 0 0 0 .216.037c.056 0 .113-.005.17-.014l.13-.026.191.9c-.061.02-.146.041-.256.066-.11.027-.243.043-.4.048a1.834 1.834 0 0 1-.766-.116 1.067 1.067 0 0 1-.508-.415c-.121-.187-.181-.424-.179-.71V2.955ZM187.791 4.582h-1.243a1.224 1.224 0 0 0-.139-.429 1.088 1.088 0 0 0-.27-.323 1.185 1.185 0 0 0-.38-.205 1.454 1.454 0 0 0-.463-.071c-.3 0-.562.075-.786.224a1.435 1.435 0 0 0-.519.648c-.123.282-.184.625-.184 1.029 0 .414.061.763.184 1.045.125.282.299.495.522.64.223.143.482.215.775.215.164 0 .317-.022.457-.065a1.096 1.096 0 0 0 .65-.5c.073-.121.124-.26.153-.415l1.243.006a2.322 2.322 0 0 1-.755 1.435 2.419 2.419 0 0 1-.766.46 2.813 2.813 0 0 1-1.002.167c-.518 0-.982-.117-1.391-.352a2.5 2.5 0 0 1-.964-1.02c-.235-.445-.352-.984-.352-1.616 0-.635.119-1.175.357-1.62.239-.445.562-.784.971-1.017a2.715 2.715 0 0 1 1.379-.352c.337 0 .649.047.936.142.29.095.546.233.769.415.224.18.405.4.545.662.142.261.233.56.273.897ZM190.619 8.449c-.441 0-.822-.094-1.144-.281a1.922 1.922 0 0 1-.741-.79 2.547 2.547 0 0 1-.261-1.18c0-.45.087-.844.261-1.181a1.9 1.9 0 0 1 .741-.79c.322-.19.703-.284 1.144-.284.44 0 .821.095 1.14.284.322.188.57.451.744.79.174.337.261.731.261 1.182 0 .447-.087.84-.261 1.179-.174.337-.422.6-.744.79-.319.187-.7.28-1.14.28Zm.005-.938a.753.753 0 0 0 .503-.17c.134-.116.235-.273.303-.472.07-.199.105-.425.105-.679 0-.253-.035-.48-.105-.679a1.058 1.058 0 0 0-.303-.471.745.745 0 0 0-.503-.174.772.772 0 0 0-.511.174 1.067 1.067 0 0 0-.309.471 2.093 2.093 0 0 0-.102.68c0 .253.034.48.102.678.07.2.173.356.309.472a.78.78 0 0 0 .511.17ZM196.266 5.494v.96h-2.651v-.96h2.651ZM198.463 8.364 196.8 2.545h1.342l.962 4.043h.049l1.061-4.043h1.149l1.059 4.052h.051l.962-4.052h1.342l-1.663 5.819h-1.197L200.81 4.56h-.046l-1.104 3.804h-1.197ZM206.913 8.449c-.441 0-.822-.094-1.143-.281a1.922 1.922 0 0 1-.741-.79 2.547 2.547 0 0 1-.261-1.18c0-.45.087-.844.261-1.181a1.9 1.9 0 0 1 .741-.79c.321-.19.702-.284 1.143-.284.441 0 .821.095 1.141.284.322.188.569.451.743.79.174.337.262.731.262 1.182 0 .447-.088.84-.262 1.179-.174.337-.421.6-.743.79-.32.187-.7.28-1.141.28Zm.006-.938a.75.75 0 0 0 .502-.17 1.06 1.06 0 0 0 .304-.472c.07-.199.105-.425.105-.679 0-.253-.035-.48-.105-.679a1.06 1.06 0 0 0-.304-.471.743.743 0 0 0-.502-.174.769.769 0 0 0-.511.174 1.067 1.067 0 0 0-.309.471 2.093 2.093 0 0 0-.102.68c0 .253.034.48.102.678.07.2.173.356.309.472.138.114.308.17.511.17ZM209.845 8.364V4h1.172v.761h.045c.079-.27.213-.475.4-.613.187-.14.403-.21.647-.21a1.822 1.822 0 0 1 .38.042v1.074a2.11 2.11 0 0 0-.51-.065.967.967 0 0 0-.477.116.855.855 0 0 0-.329.318.915.915 0 0 0-.12.472v2.469h-1.208ZM214.21 7.108l.003-1.452h.176L215.785 4h1.387l-1.875 2.193h-.287l-.8.915Zm-1.096 1.256V2.545h1.209v5.819h-1.209Zm2.725 0-1.283-1.9.806-.856 1.893 2.756h-1.416ZM217.766 8.364V4h1.208v4.364h-1.208Zm.607-4.926a.658.658 0 0 1-.463-.18.583.583 0 0 1 0-.863.652.652 0 0 1 .463-.182c.18 0 .333.06.46.182a.579.579 0 0 1 0 .864.647.647 0 0 1-.46.179ZM221.152 5.84v2.524h-1.209V4h1.152v.77h.051a1.22 1.22 0 0 1 .485-.602 1.47 1.47 0 0 1 .826-.225c.303 0 .567.066.792.2.225.132.4.321.525.567a1.9 1.9 0 0 1 .187.875v2.779h-1.209V5.8c.002-.267-.066-.475-.204-.625-.138-.151-.328-.227-.57-.227a.868.868 0 0 0-.432.105.731.731 0 0 0-.289.307 1.067 1.067 0 0 0-.105.48ZM226.878 10.09c-.392 0-.728-.053-1.008-.161a1.675 1.675 0 0 1-.664-.435 1.34 1.34 0 0 1-.32-.619l1.118-.15a.742.742 0 0 0 .454.426c.123.047.272.07.448.07.263 0 .48-.064.65-.193.172-.126.258-.34.258-.639v-.798h-.051a1.148 1.148 0 0 1-.647.608 1.567 1.567 0 0 1-.596.102 1.79 1.79 0 0 1-.894-.227 1.626 1.626 0 0 1-.638-.702c-.157-.316-.236-.716-.236-1.199 0-.494.081-.907.241-1.238.161-.332.375-.58.642-.745.268-.164.563-.247.882-.247.244 0 .449.042.613.125.165.082.297.184.398.307.102.121.18.24.235.358h.045V4h1.201v4.406c0 .371-.091.682-.273.932-.181.25-.433.438-.754.563-.32.127-.688.19-1.104.19Zm.025-2.698c.195 0 .36-.048.494-.145a.922.922 0 0 0 .312-.42c.074-.184.111-.404.111-.66 0-.255-.036-.477-.108-.664a.974.974 0 0 0-.312-.44.794.794 0 0 0-.497-.157.783.783 0 0 0-.502.162.973.973 0 0 0-.309.443c-.07.19-.105.409-.105.657 0 .252.035.47.105.653a.943.943 0 0 0 .309.423.834.834 0 0 0 .502.148ZM166.314 14.219a.718.718 0 0 0-.293-.534c-.172-.127-.405-.19-.701-.19-.2 0-.369.028-.507.085a.706.706 0 0 0-.318.23.553.553 0 0 0-.108.335.48.48 0 0 0 .065.273.67.67 0 0 0 .202.201c.085.055.183.104.295.145.111.04.231.074.357.103l.522.124c.254.057.487.133.699.228.211.095.395.21.55.35.155.137.275.3.36.488.087.187.132.402.134.645a1.609 1.609 0 0 1-.273.926c-.177.26-.435.461-.771.605-.335.142-.739.213-1.212.213-.469 0-.878-.072-1.226-.216a1.799 1.799 0 0 1-.812-.64c-.193-.283-.294-.634-.303-1.053h1.189a.895.895 0 0 0 .167.489c.1.128.234.226.4.292.169.065.359.097.571.097.208 0 .388-.03.542-.091a.83.83 0 0 0 .36-.253.585.585 0 0 0 .128-.372c0-.13-.039-.24-.117-.33a.877.877 0 0 0-.334-.227 3.416 3.416 0 0 0-.537-.17l-.633-.16c-.49-.119-.877-.305-1.16-.56-.284-.253-.425-.595-.423-1.025-.002-.352.092-.66.281-.923.191-.263.453-.469.786-.617a2.771 2.771 0 0 1 1.135-.221c.431 0 .808.074 1.129.222.324.147.576.353.755.616.18.263.273.568.278.915h-1.177ZM168.375 20v-6h1.192v.733h.053a1.61 1.61 0 0 1 .23-.358 1.21 1.21 0 0 1 .398-.307c.164-.083.368-.125.613-.125.317 0 .611.084.879.25.269.165.484.414.644.747.161.332.242.748.242 1.248 0 .486-.079.897-.236 1.233a1.746 1.746 0 0 1-.636.758c-.266.17-.565.256-.896.256-.235 0-.434-.04-.599-.117a1.235 1.235 0 0 1-.4-.292 1.495 1.495 0 0 1-.239-.361h-.036V20h-1.209Zm1.183-3.818c0 .26.036.486.108.679.072.193.176.344.312.451.136.107.302.16.497.16a.78.78 0 0 0 .499-.162 1.01 1.01 0 0 0 .309-.455c.072-.195.108-.42.108-.673a1.93 1.93 0 0 0-.105-.665.991.991 0 0 0-.309-.449.783.783 0 0 0-.502-.162.798.798 0 0 0-.5.156.983.983 0 0 0-.309.444 1.918 1.918 0 0 0-.108.676ZM174.675 18.446c-.279 0-.526-.048-.744-.145a1.188 1.188 0 0 1-.516-.434c-.125-.194-.188-.434-.188-.722 0-.242.045-.446.134-.61.089-.166.21-.298.363-.399.153-.1.327-.176.522-.227.197-.051.403-.087.619-.108.253-.026.457-.051.613-.074a.864.864 0 0 0 .337-.108.237.237 0 0 0 .105-.21v-.017c0-.18-.056-.32-.17-.418-.112-.098-.27-.147-.477-.147-.217 0-.39.048-.519.145a.66.66 0 0 0-.255.358l-1.119-.091a1.53 1.53 0 0 1 .98-1.137c.264-.106.571-.159.919-.159.242 0 .474.029.695.085.223.057.421.145.593.265.174.119.312.272.412.46.1.185.15.408.15.668v2.943h-1.146v-.605h-.034c-.07.136-.164.256-.281.36a1.303 1.303 0 0 1-.423.242 1.749 1.749 0 0 1-.57.085Zm.346-.835c.178 0 .335-.035.471-.105a.83.83 0 0 0 .32-.29.745.745 0 0 0 .117-.412v-.463a.653.653 0 0 1-.156.068 2.908 2.908 0 0 1-.219.054c-.081.015-.162.03-.244.043l-.221.03c-.142.022-.266.055-.372.1a.597.597 0 0 0-.247.185.454.454 0 0 0-.088.284c0 .165.06.29.179.378a.78.78 0 0 0 .46.128ZM180.037 18.449c-.447 0-.831-.095-1.153-.284a1.922 1.922 0 0 1-.737-.796 2.564 2.564 0 0 1-.256-1.17c0-.447.086-.84.258-1.176.174-.34.421-.604.741-.793.32-.191.7-.287 1.141-.287.38 0 .713.07.999.208.285.138.511.332.678.582.166.25.258.543.275.88h-1.141a.881.881 0 0 0-.255-.525.73.73 0 0 0-.536-.202.808.808 0 0 0-.491.154.98.98 0 0 0-.324.44 1.897 1.897 0 0 0-.116.702c0 .278.038.515.113.71a.99.99 0 0 0 .327.446.81.81 0 0 0 .491.153.792.792 0 0 0 .371-.085.719.719 0 0 0 .276-.247.948.948 0 0 0 .144-.395h1.141a1.787 1.787 0 0 1-.272.88 1.646 1.646 0 0 1-.667.592c-.284.142-.62.213-1.007.213ZM184.744 18.449c-.449 0-.835-.091-1.158-.273a1.865 1.865 0 0 1-.744-.778c-.174-.337-.261-.736-.261-1.196 0-.45.087-.843.261-1.182a1.93 1.93 0 0 1 .735-.793c.318-.19.691-.284 1.118-.284.288 0 .556.047.804.14.249.09.467.228.652.411.188.184.333.415.437.694.104.276.156.6.156.971v.332h-3.68v-.75h2.542a.924.924 0 0 0-.113-.463.817.817 0 0 0-.315-.315.9.9 0 0 0-.463-.116.93.93 0 0 0-.488.127.893.893 0 0 0-.329.338.962.962 0 0 0-.122.47v.712c0 .216.04.403.119.56a.875.875 0 0 0 .344.364c.147.085.322.128.525.128.134 0 .257-.02.368-.057a.74.74 0 0 0 .469-.449l1.118.074a1.53 1.53 0 0 1-.349.704 1.748 1.748 0 0 1-.676.466c-.274.11-.591.165-.95.165ZM189.371 18.364v-.887l2.069-1.917c.176-.17.324-.324.443-.46.121-.137.213-.27.275-.401a.986.986 0 0 0 .094-.43.805.805 0 0 0-.117-.44.76.76 0 0 0-.317-.286.998.998 0 0 0-.457-.103.963.963 0 0 0-.466.108.746.746 0 0 0-.306.31 1.003 1.003 0 0 0-.108.48h-1.166c0-.38.086-.711.258-.991.172-.28.413-.498.724-.651.31-.153.667-.23 1.072-.23.416 0 .779.074 1.087.222.31.145.552.348.724.607.172.26.258.557.258.893 0 .22-.044.436-.131.65-.085.214-.237.452-.456.713-.22.26-.529.571-.928.935l-.849.832v.04h2.441v1.006h-4.144ZM196.684 18.491c-.488-.001-.908-.122-1.26-.36-.35-.239-.62-.585-.809-1.037-.187-.453-.28-.997-.278-1.634 0-.634.093-1.175.281-1.622.189-.447.459-.787.809-1.02.351-.235.77-.352 1.257-.352.486 0 .904.117 1.254.352.352.235.622.576.812 1.023.189.445.282.985.281 1.62 0 .638-.095 1.183-.284 1.636-.188.452-.456.798-.806 1.037-.35.238-.769.357-1.257.357Zm0-1.02c.333 0 .598-.167.797-.502.199-.335.297-.838.295-1.509 0-.441-.045-.809-.136-1.102-.089-.294-.216-.514-.38-.662a.83.83 0 0 0-.576-.222c-.331 0-.596.166-.795.498-.199.331-.299.827-.301 1.488 0 .447.045.82.134 1.12.09.297.218.52.383.67a.837.837 0 0 0 .579.222ZM199.907 18.364v-.887l2.068-1.917c.176-.17.324-.324.443-.46.121-.137.213-.27.275-.401a.986.986 0 0 0 .094-.43.77.77 0 0 0-.434-.727.995.995 0 0 0-.457-.102.956.956 0 0 0-.465.108.742.742 0 0 0-.307.31 1.003 1.003 0 0 0-.108.48h-1.166c0-.38.086-.711.258-.991.172-.28.414-.498.724-.651a2.39 2.39 0 0 1 1.072-.23c.417 0 .779.074 1.087.222.311.145.552.348.724.607.172.26.258.557.258.893 0 .22-.043.436-.13.65-.085.214-.238.452-.457.713-.22.26-.529.571-.928.935l-.849.832v.04h2.441v1.006h-4.143ZM207.088 18.443c-.423 0-.801-.073-1.132-.219a1.931 1.931 0 0 1-.78-.608 1.533 1.533 0 0 1-.293-.897h1.238a.643.643 0 0 0 .139.375.854.854 0 0 0 .346.247c.144.059.305.088.485.088.188 0 .353-.033.497-.1a.819.819 0 0 0 .338-.275.698.698 0 0 0 .122-.406.681.681 0 0 0-.131-.412.833.833 0 0 0-.369-.284 1.432 1.432 0 0 0-.567-.103h-.542v-.903h.542c.185 0 .349-.032.49-.097a.788.788 0 0 0 .335-.267.69.69 0 0 0 .12-.403.698.698 0 0 0-.395-.645.94.94 0 0 0-.431-.094c-.167 0-.319.03-.457.091a.797.797 0 0 0-.332.253.67.67 0 0 0-.134.386H205c.005-.335.101-.63.286-.886.186-.256.436-.455.75-.6a2.52 2.52 0 0 1 1.069-.218c.401 0 .752.073 1.053.219.301.146.535.342.701.59.169.247.252.523.25.83.002.326-.099.598-.304.816a1.379 1.379 0 0 1-.791.414v.046c.427.055.752.203.976.446.225.24.336.541.335.903.001.332-.094.626-.287.884-.191.257-.455.46-.792.608a2.856 2.856 0 0 1-1.158.221Z"/><defs><clipPath id="a"><path fill="#fff" d="M131 0h23.974v20H131z"/></clipPath></defs></svg>