<svg xmlns="http://www.w3.org/2000/svg" width="107" height="20" fill="none"><g fill="#222" clip-path="url(#a)"><path d="M25.79.85h2.672v14.526h4.396v2.421H25.79V.85ZM37.906 18.039c-1.312 0-2.316-.371-3.012-1.114-.696-.742-1.044-1.791-1.044-3.147v-8.91c0-1.355.348-2.404 1.044-3.147.696-.742 1.7-1.113 3.012-1.113 1.311 0 2.315.37 3.011 1.113.696.743 1.044 1.792 1.044 3.148v8.909c0 1.356-.348 2.405-1.044 3.147-.696.743-1.7 1.114-3.011 1.114Zm0-2.421c.922 0 1.384-.557 1.384-1.67V4.698c0-1.113-.462-1.67-1.384-1.67-.923 0-1.385.557-1.385 1.67v9.248c0 1.114.462 1.67 1.385 1.67ZM47.557 18.039c-1.296 0-2.283-.363-2.963-1.09-.68-.742-1.02-1.8-1.02-3.171v-8.91c0-1.371.34-2.42 1.02-3.147C45.274.98 46.26.608 47.557.608c1.295 0 2.282.37 2.962 1.113.68.727 1.02 1.776 1.02 3.148V6.32h-2.525V4.7c0-1.113-.462-1.67-1.385-1.67-.922 0-1.384.557-1.384 1.67v9.273c0 1.097.462 1.646 1.384 1.646.923 0 1.385-.549 1.385-1.646v-3.317h-1.336V8.234h3.861v5.544c0 1.372-.34 2.43-1.02 3.171-.68.727-1.667 1.09-2.962 1.09ZM57.116 18.039c-1.311 0-2.315-.371-3.011-1.114-.697-.742-1.045-1.791-1.045-3.147v-8.91c0-1.355.348-2.404 1.045-3.147C54.8.98 55.805.608 57.116.608c1.312 0 2.315.37 3.011 1.113.697.743 1.045 1.792 1.045 3.148v8.909c0 1.356-.348 2.405-1.044 3.147-.697.743-1.7 1.114-3.012 1.114Zm0-2.421c.923 0 1.384-.557 1.384-1.67V4.698c0-1.113-.461-1.67-1.384-1.67-.923 0-1.384.557-1.384 1.67v9.248c0 1.114.461 1.67 1.384 1.67ZM62.983.85h2.672v16.947h-2.672V.85ZM67.656.85h3.934c1.327 0 2.323.355 2.987 1.065.664.71.996 1.751.996 3.123v1.67c0 1.373-.332 2.414-.996 3.124-.664.71-1.66 1.065-2.987 1.065h-1.263v6.9h-2.671V.85Zm3.934 7.626c.437 0 .76-.121.971-.363.227-.242.34-.654.34-1.235v-2.01c0-.58-.113-.992-.34-1.234-.21-.242-.534-.363-.971-.363h-1.263v5.205h1.263ZM80.591 18.039c-1.295 0-2.274-.363-2.938-1.09-.664-.742-.996-1.8-.996-3.171v-.969h2.526v1.163c0 1.097.461 1.646 1.384 1.646.453 0 .793-.13 1.02-.387.242-.275.364-.71.364-1.308 0-.71-.162-1.331-.485-1.864-.324-.549-.923-1.202-1.798-1.961-1.1-.968-1.87-1.84-2.307-2.615-.437-.79-.655-1.678-.655-2.663 0-1.34.34-2.372 1.02-3.099.68-.742 1.667-1.113 2.963-1.113 1.278 0 2.242.37 2.89 1.113.663.727.995 1.776.995 3.148v.702h-2.526v-.872c0-.58-.113-1-.34-1.259-.226-.274-.558-.411-.995-.411-.891 0-1.336.54-1.336 1.622 0 .613.162 1.186.486 1.719.34.532.947 1.178 1.821 1.936 1.117.969 1.886 1.849 2.308 2.64.42.79.63 1.718.63 2.784 0 1.388-.347 2.453-1.044 3.195-.68.743-1.676 1.114-2.987 1.114ZM90.04 18.039c-1.295 0-2.283-.363-2.963-1.09-.68-.742-1.02-1.799-1.02-3.171V.85h2.672v13.122c0 .58.113 1 .34 1.259.242.258.583.387 1.02.387.437 0 .769-.13.995-.387.243-.259.365-.678.365-1.26V.85h2.574v12.928c0 1.372-.34 2.43-1.02 3.172-.68.726-1.668 1.089-2.963 1.089ZM95.925.85h3.814l1.7 12.13h.048l1.7-12.13H107v16.947h-2.526V4.966h-.048l-1.943 12.831h-2.235L98.306 4.966h-.049v12.831h-2.332V.85ZM0 17.797c3.287 0 5.95-2.656 5.95-5.932 0-3.277-2.663-5.933-5.95-5.933v4.153c.986 0 1.785.797 1.785 1.78 0 .982-.799 1.78-1.785 1.78v4.152ZM19.836 7.91a10.688 10.688 0 0 0-3.223-.495c-5.889 0-10.662 4.759-10.662 10.629 0 .59.048 1.167.14 1.73h6.625a4.227 4.227 0 0 1-.368-1.73 4.258 4.258 0 0 1 4.265-4.252 4.26 4.26 0 0 1 3.223 1.468V7.91ZM1.046 0c.494 4.45 4.278 7.91 8.872 7.91 4.595 0 8.379-3.46 8.872-7.91h-6.384a2.679 2.679 0 0 1-2.488 1.68A2.679 2.679 0 0 1 7.43 0H1.046Z"/></g><defs><clipPath id="a"><path fill="#fff" d="M0 0h107v20H0z"/></clipPath></defs></svg>