<svg xmlns="http://www.w3.org/2000/svg" width="120" height="120" fill="none"><g fill="#fff"><path fill-rule="evenodd" d="M60.045 25.736c18.67 0 33.807 15.295 33.807 34.162 0 18.867-15.137 34.162-33.807 34.162S26.24 78.765 26.24 59.898c0-18.867 15.136-34.162 33.806-34.162Zm-1.222 2.556c-3.856.548-7.529 3.68-10.38 8.918a35.735 35.735 0 0 0-2.223 5.01c3.877-.985 8.135-1.565 12.603-1.655V28.292ZM43.363 43.04c.809-2.564 1.798-4.923 2.94-7.02 1.412-2.597 3.09-4.839 4.979-6.561-10.275 3.015-18.374 11.2-21.358 21.583 1.704-1.909 3.922-3.604 6.492-5.032 2.075-1.153 4.41-2.153 6.947-2.97Zm-.812 2.887c-.974 3.917-1.548 8.22-1.637 12.736H28.77c.543-3.897 3.642-7.608 8.825-10.489a35.013 35.013 0 0 1 4.957-2.247Zm.807 12.736c.101-4.928.803-9.555 1.965-13.642 4.045-1.174 8.624-1.884 13.5-1.986v5.335c-1.819 4.706-5.53 8.455-10.187 10.293h-5.278Zm-2.444 2.47H28.77c.543 3.897 3.642 7.608 8.825 10.489a35.013 35.013 0 0 0 4.957 2.246c-.974-3.917-1.548-8.22-1.637-12.735Zm4.41 13.642c-1.163-4.088-1.865-8.714-1.966-13.642h5.278c4.657 1.837 8.368 5.587 10.187 10.293v5.335c-4.876-.102-9.455-.812-13.5-1.986Zm-1.96 1.98c-2.538-.816-4.873-1.816-6.948-2.97-2.57-1.427-4.788-3.122-6.492-5.032 2.984 10.384 11.083 18.568 21.358 21.584-1.89-1.722-3.567-3.964-4.98-6.56-1.141-2.098-2.13-4.457-2.939-7.021Zm15.46 14.749c-3.857-.549-7.53-3.68-10.38-8.918a35.739 35.739 0 0 1-2.224-5.01c3.877.984 8.135 1.565 12.603 1.655v12.273Zm9.984-1.167c1.89-1.722 3.567-3.964 4.98-6.56 1.14-2.098 2.131-4.457 2.94-7.021 2.537-.817 4.87-1.817 6.947-2.97 2.569-1.428 4.788-3.123 6.492-5.033-2.985 10.384-11.083 18.568-21.359 21.584Zm5.063-12.76a35.845 35.845 0 0 1-2.225 5.01c-2.85 5.237-6.522 8.368-10.379 8.917V79.23c4.469-.09 8.727-.67 12.604-1.655Zm3.668-3.709a34.977 34.977 0 0 0 4.957-2.246c5.184-2.88 8.283-6.592 8.825-10.49H79.177c-.09 4.516-.665 8.82-1.638 12.736Zm-.807-12.735c-.101 4.928-.802 9.554-1.965 13.642-4.045 1.174-8.623 1.884-13.5 1.986v-5.33c1.819-4.709 5.53-8.46 10.189-10.298h5.276Zm2.445-2.47H91.32c-.542-3.897-3.64-7.608-8.825-10.489a34.977 34.977 0 0 0-4.957-2.247c.973 3.917 1.548 8.22 1.638 12.736Zm-4.41-13.642c1.163 4.087 1.864 8.714 1.965 13.642h-5.276c-4.659-1.838-8.37-5.59-10.189-10.297v-5.33c4.877.101 9.455.81 13.5 1.985Zm1.96-1.98c2.537.816 4.872 1.816 6.947 2.97 2.57 1.427 4.79 3.122 6.493 5.031C87.182 40.66 79.084 32.474 68.808 29.46c1.89 1.722 3.567 3.964 4.98 6.56 1.14 2.098 2.131 4.457 2.94 7.021Zm-15.46-14.749c3.857.548 7.53 3.68 10.38 8.918a35.841 35.841 0 0 1 2.224 5.01c-3.877-.985-8.135-1.565-12.604-1.655V28.292Z" clip-rule="evenodd"/><path d="M46.395 112.359 46.357 120l-1.311-.447.06-6.9.652.222-4.162 5.504-1.166-.397.042-6.907.632.215-4.133 5.514-1.205-.41 4.547-6.106 1.34.457-.013 6.238-.35-.119 3.755-4.965 1.35.46ZM31.273 105.333c.469.31.85.674 1.144 1.091.294.417.496.86.608 1.331.109.476.121.955.038 1.436a3.804 3.804 0 0 1-.568 1.408c-.292.45-.64.811-1.043 1.08a3.402 3.402 0 0 1-1.318.541c-.475.09-.96.083-1.456-.022a4.17 4.17 0 0 1-1.439-.617 4.151 4.151 0 0 1-1.135-1.085 3.761 3.761 0 0 1-.603-1.34 3.493 3.493 0 0 1-.038-1.437 3.73 3.73 0 0 1 .563-1.398 3.768 3.768 0 0 1 1.049-1.09 3.4 3.4 0 0 1 1.317-.54 3.74 3.74 0 0 1 1.451.031c.49.101.967.304 1.43.611Zm-.631.994a2.654 2.654 0 0 0-.942-.4 2.33 2.33 0 0 0-.956 0c-.316.071-.608.2-.875.386a2.613 2.613 0 0 0-.72.751 2.55 2.55 0 0 0-.386.957c-.066.329-.066.65 0 .966.06.321.186.619.377.893.19.275.436.512.74.712.302.201.616.334.941.4.32.063.64.06.961-.008.313-.066.607-.193.884-.381.268-.186.503-.436.705-.748a2.72 2.72 0 0 0 .396-.951c.06-.332.059-.659-.003-.98a2.388 2.388 0 0 0-.383-.885 2.69 2.69 0 0 0-.74-.712ZM24.414 100.215l-5.11 5.092-2.074-2.125c-.446-.458-.755-.921-.925-1.392a2.415 2.415 0 0 1-.114-1.385c.1-.449.337-.86.712-1.233.375-.374.785-.608 1.23-.702.44-.09.895-.043 1.362.141.458.184.91.505 1.357.963l1.555 1.593-.849.002 1.92-1.914.936.96Zm-3.297-3.38-.58 3.154-1-1.026.573-3.16 1.007 1.032Zm.543 4.232-.035.879-1.512-1.55c-.412-.423-.812-.65-1.198-.682-.392-.037-.748.104-1.069.424-.326.325-.471.683-.435 1.074.03.386.253.791.665 1.214l1.512 1.549-.885.038 2.957-2.946ZM15.243 92.154l-1.284.931-5.327-1.033-.817-1.268 4.49.817 1.082.179 1.856.374Zm2.067.074-6.015 3.957-.727-1.128 6.015-3.958.727 1.129Zm-2.73-4.237-1.242 4.13-1.297-.21 1.689-5.24.85 1.32ZM11.207 80.83c.208.525.335 1.058.38 1.598.04.543-.002 1.002-.125 1.38l-1.133-.043c.102-.354.144-.758.126-1.212a3.942 3.942 0 0 0-.276-1.306c-.14-.353-.292-.623-.454-.81-.163-.187-.328-.306-.496-.357a.768.768 0 0 0-.508.028.647.647 0 0 0-.397.418c-.069.199-.09.43-.066.696.015.262.049.55.1.864.049.308.09.623.121.945.024.318.016.622-.023.913a1.893 1.893 0 0 1-.327.792c-.17.24-.432.432-.787.576-.362.147-.73.185-1.104.113-.384-.075-.743-.275-1.079-.6-.344-.33-.639-.802-.883-1.417a5.206 5.206 0 0 1-.326-1.264 3.786 3.786 0 0 1 .025-1.216l1.118.004a3.892 3.892 0 0 0-.02 1.091c.04.357.117.683.234.977.138.347.291.612.46.796.167.178.337.292.51.34a.817.817 0 0 0 .515-.041.69.69 0 0 0 .41-.412c.062-.197.082-.424.06-.684-.024-.265-.059-.556-.103-.873a14.02 14.02 0 0 1-.122-.944 3.731 3.731 0 0 1 .014-.91 1.68 1.68 0 0 1 .317-.788c.17-.24.43-.43.778-.572a1.909 1.909 0 0 1 1.108-.104c.375.071.734.272 1.079.6.338.333.629.806.874 1.422ZM8.633 73.423 1.58 74.77l-.548-2.932c-.118-.632-.118-1.19 0-1.677.116-.493.34-.898.67-1.214.33-.316.755-.523 1.272-.622.517-.099.987-.062 1.408.11.422.173.776.468 1.063.884.285.41.487.93.605 1.561l.41 2.2-.725-.474 2.65-.505.248 1.323Zm-2.756-.845-.525.712-.4-2.138c-.108-.584-.311-.999-.607-1.244-.305-.252-.679-.335-1.122-.25-.45.086-.768.3-.954.646-.187.338-.226.799-.117 1.382l.4 2.138-.756-.467 4.08-.779ZM7.13 63.816 0 60.446l.02-1.325 7.223-3.169-.02 1.41-6.51 2.712.008-.539 6.428 2.893-.02 1.388Zm-1.64-1.527-1.04-.378.056-3.916 1.051-.347-.067 4.641ZM8.6 48.814a4.368 4.368 0 0 1-.587 1.45c-.28.42-.617.765-1.012 1.038-.4.265-.842.444-1.323.535-.482.091-.983.08-1.504-.036a3.723 3.723 0 0 1-1.381-.603 3.443 3.443 0 0 1-.968-1.053 3.655 3.655 0 0 1-.49-1.37 4.19 4.19 0 0 1 .056-1.568c.126-.58.341-1.088.646-1.523a3.153 3.153 0 0 1 1.134-1.021l.607 1.025c-.33.196-.595.438-.797.725a2.574 2.574 0 0 0-.435.986c-.08.371-.094.725-.041 1.062.054.33.167.635.337.913a2.5 2.5 0 0 0 .667.7c.274.187.592.321.952.4.361.08.705.093 1.031.038a2.47 2.47 0 0 0 .896-.353c.27-.18.498-.41.684-.686.188-.284.322-.611.402-.983.08-.37.088-.73.024-1.076a2.65 2.65 0 0 0-.445-1l.986-.673c.309.415.511.884.608 1.407.096.524.08 1.08-.047 1.666ZM7.206 38.865l1.425-3.306 1.006.443-1.426 3.306-1.005-.443Zm2.86 1.147 1.618-3.752 1.025.451-2.15 4.987-6.58-2.898 2.093-4.854 1.025.451-1.561 3.62 4.53 1.995ZM19.56 26.142l-6.821-3.296.96-1.008 6.148 3.001-.476.5-3.149-6.152.853-.896 6.163 2.987-.462.485-3.17-6.13.881-.926 3.523 6.76-.98 1.031-5.578-2.675.256-.27 2.84 5.551-.988 1.038ZM32.303 15.322c-.477.297-.965.49-1.464.58a3.75 3.75 0 0 1-1.45-.012 3.537 3.537 0 0 1-1.302-.579c-.4-.287-.738-.66-1.017-1.12a3.73 3.73 0 0 1-.522-1.415 3.49 3.49 0 0 1 .079-1.434c.122-.473.336-.914.641-1.322a4.2 4.2 0 0 1 1.166-1.051 4.107 4.107 0 0 1 1.456-.574c.498-.09.984-.084 1.456.02.469.1.903.292 1.302.58.395.281.732.651 1.011 1.11.28.46.455.934.528 1.424.073.49.046.968-.08 1.435a3.844 3.844 0 0 1-.646 1.313c-.3.404-.685.753-1.157 1.045Zm-.62-1.001c.31-.191.563-.421.76-.69.198-.268.334-.56.409-.873a2.627 2.627 0 0 0-.337-1.942 2.527 2.527 0 0 0-.692-.763 2.342 2.342 0 0 0-.864-.413 2.259 2.259 0 0 0-.96-.036c-.327.056-.645.18-.953.372a2.692 2.692 0 0 0-.76.69 2.45 2.45 0 0 0-.403.882 2.538 2.538 0 0 0-.037.97c.053.324.175.645.369.963.189.312.417.568.682.768.272.197.565.335.878.416.31.075.629.085.956.028.326-.057.644-.18.952-.372ZM39.812 11.24l-2.375-6.845 2.786-.987c.6-.213 1.147-.297 1.64-.252.5.043.93.205 1.289.488.359.283.625.675.8 1.177.174.502.208.976.102 1.424-.108.44-.344.835-.708 1.184-.36.34-.84.616-1.44.829l-2.09.74.361-.776.892 2.572-1.257.446Zm4.431-1.57L41.67 7.792l1.345-.477 2.584 1.873-1.355.48Zm-4.018-1.31-.772-.408 2.032-.72c.555-.197.929-.465 1.123-.804.2-.342.225-.728.076-1.158-.152-.437-.41-.722-.775-.856-.36-.137-.816-.107-1.37.09l-2.033.72.344-.825 1.375 3.96ZM50.94 6.3l-.285-1.571L53.853.302l1.483-.205-2.648 3.754-.621.913L50.94 6.3Zm-.949 1.857L49.017.97l1.32-.183.975 7.186-1.32.183Zm4.958-.686-3.167-2.898.742-1.096 3.969 3.78-1.544.214ZM62.797 7.445a5.41 5.41 0 0 1-1.593-.334c-.502-.196-.896-.43-1.181-.704l.522-1.017c.273.245.617.456 1.03.633.415.177.844.278 1.287.305.376.022.682 0 .919-.07.236-.069.414-.169.53-.3a.788.788 0 0 0 .193-.476.653.653 0 0 0-.205-.542 1.63 1.63 0 0 0-.595-.357 8.346 8.346 0 0 0-.816-.277 16.202 16.202 0 0 1-.896-.293 4.33 4.33 0 0 1-.808-.412 1.875 1.875 0 0 1-.57-.636c-.142-.257-.201-.58-.179-.965.023-.393.147-.746.37-1.058.231-.318.564-.56.998-.729.442-.174.99-.241 1.645-.202.43.026.854.106 1.27.242.417.136.776.316 1.078.542l-.481 1.02a3.797 3.797 0 0 0-.968-.484 3.616 3.616 0 0 0-.974-.204c-.369-.022-.672.005-.909.08-.23.077-.404.184-.522.322a.84.84 0 0 0-.183.488.698.698 0 0 0 .194.551c.15.14.344.256.586.346.248.091.523.184.826.278.303.088.602.185.897.293.301.108.57.241.808.401.244.16.434.368.57.626.142.257.202.576.18.955a1.96 1.96 0 0 1-.38 1.057c-.224.312-.557.555-.999.729-.44.167-.99.231-1.644.192ZM70.524 8.254l1.806-7.02 2.858.752c.615.162 1.115.4 1.5.715.392.317.659.694.8 1.131.142.437.147.913.015 1.428-.133.515-.366.928-.7 1.24-.335.312-.75.51-1.245.594-.488.085-1.04.047-1.655-.114l-2.144-.564.733-.46-.678 2.637-1.29-.339Zm1.932-2.158-.413-.783 2.084.548c.57.15 1.027.141 1.373-.025.355-.17.59-.476.703-.918.115-.448.058-.83-.171-1.147-.223-.316-.618-.548-1.187-.698l-2.084-.547.74-.49-1.045 4.06ZM79.763 10.982l6.058-5.077L87 6.49l-.249 7.954-1.252-.62.352-7.107.478.237-5.332 4.64-1.234-.61Zm2.066-.846.782-.79 3.48 1.724-.137 1.108-4.125-2.042ZM92.56 18.73a4.325 4.325 0 0 1-1.047-1.156 3.88 3.88 0 0 1-.497-1.368 3.68 3.68 0 0 1 .087-1.437c.124-.48.348-.932.674-1.359a3.753 3.753 0 0 1 1.129-1.005 3.395 3.395 0 0 1 1.355-.435c.48-.053.96-.007 1.436.137.48.14.94.38 1.379.721.465.363.828.776 1.087 1.24a3.2 3.2 0 0 1 .43 1.473l-1.177.117a2.59 2.59 0 0 0-.309-1.039 2.553 2.553 0 0 0-.696-.817 2.809 2.809 0 0 0-.933-.492 2.441 2.441 0 0 0-.961-.08c-.316.04-.62.144-.91.31-.286.17-.541.403-.766.699a2.746 2.746 0 0 0-.474.926c-.085.326-.107.65-.066.969.046.324.153.63.322.918.174.293.41.555.707.787.298.232.616.392.954.481.342.084.703.09 1.084.021l.182 1.188c-.503.105-1.01.09-1.52-.046-.509-.135-1-.386-1.47-.753ZM102.059 21.703l2.349 2.713-.826.73-2.349-2.713.826-.73Zm-2.248 2.124 2.667 3.08-.841.744-3.545-4.094 5.402-4.775 3.45 3.984-.841.744-2.572-2.971-3.72 3.288ZM108.17 38.424l5.862-4.827.492 1.307-5.311 4.338-.244-.649 6.85-.25.438 1.161-5.304 4.357-.237-.63 6.839-.28.453 1.201-7.555.334-.503-1.337 4.775-3.954.131.349-6.179.226-.507-1.346ZM112.413 54.688a4.304 4.304 0 0 1 .106-1.586c.132-.494.342-.934.63-1.32a3.566 3.566 0 0 1 1.074-.943 3.707 3.707 0 0 1 1.436-.451 3.63 3.63 0 0 1 1.489.127c.469.142.886.37 1.25.684.371.314.674.697.909 1.15.235.454.383.959.443 1.515a4.216 4.216 0 0 1-.108 1.575 3.754 3.754 0 0 1-.64 1.322c-.288.386-.646.7-1.074.943-.42.24-.896.39-1.426.45a3.704 3.704 0 0 1-1.499-.126 3.409 3.409 0 0 1-1.25-.685 3.829 3.829 0 0 1-.899-1.151 4.175 4.175 0 0 1-.441-1.504Zm1.16-.14c.04.364.138.694.293.99.156.295.359.544.607.745a2.554 2.554 0 0 0 1.883.521c.367-.04.693-.143.977-.306.293-.158.539-.362.738-.613a2.31 2.31 0 0 0 .443-.863c.089-.322.114-.665.074-1.03a2.717 2.717 0 0 0-.293-.988 2.435 2.435 0 0 0-.617-.745 2.475 2.475 0 0 0-.853-.447 2.606 2.606 0 0 0-1.019-.075c-.36.04-.687.139-.979.296a2.603 2.603 0 0 0-.747.625c-.2.251-.344.538-.433.86a2.763 2.763 0 0 0-.074 1.03ZM112.861 63.291l7.139.752-.306 2.968c-.066.639-.224 1.174-.475 1.606-.251.439-.58.762-.986.97-.406.207-.871.283-1.395.228-.523-.055-.963-.227-1.318-.514-.348-.287-.601-.671-.757-1.153-.151-.474-.193-1.03-.127-1.67l.229-2.226.54.662-2.682-.283.138-1.34Zm-.486 4.72 2.778-1.551-.147 1.432-2.78 1.562.149-1.442Zm2.888-3.112.693-.532-.223 2.164c-.06.591.02 1.048.241 1.37.22.328.555.516 1.003.564.456.047.822-.067 1.098-.343.275-.27.443-.7.504-1.291l.223-2.164.591.666-4.13-.434ZM112.531 75.57l1.528.41 2.596 4.812-.449 1.443-2.23-4.022-.551-.958-.894-1.685Zm-1.257-1.66 6.847 2.178-.401 1.284-6.846-2.177.4-1.285Zm-1.502 4.823 3.945-1.656.664 1.145-5.077 2.013.468-1.502ZM106.445 85.916c.269-.497.595-.934.979-1.313.39-.375.768-.635 1.134-.779l.687.911c-.335.146-.671.37-1.006.673a3.901 3.901 0 0 0-.822 1.045c-.181.333-.291.623-.33.869-.039.245-.025.45.042.613a.782.782 0 0 0 .344.38c.192.105.383.12.572.044.196-.073.387-.204.574-.392.19-.178.389-.387.596-.627.205-.234.419-.465.645-.695.228-.22.466-.408.713-.562a1.85 1.85 0 0 1 .812-.248c.292-.02.605.062.941.248.342.188.605.452.788.79.186.346.262.754.227 1.222-.033.478-.207 1.008-.521 1.59-.207.382-.46.734-.759 1.057a3.708 3.708 0 0 1-.945.753l-.707-.874c.322-.192.604-.418.846-.678.248-.257.447-.525.598-.804.177-.327.282-.615.316-.864.03-.244.008-.448-.065-.615a.832.832 0 0 0-.358-.375.68.68 0 0 0-.576-.058c-.19.076-.376.205-.56.387-.188.188-.388.4-.602.636-.207.24-.422.472-.644.695-.226.23-.46.42-.704.568a1.645 1.645 0 0 1-.803.253c-.292.02-.602-.061-.932-.243a1.944 1.944 0 0 1-.784-.799c-.183-.337-.259-.745-.226-1.223.039-.475.215-1.003.53-1.585ZM102.423 92.632l5.51 4.647-1.892 2.29c-.408.494-.834.849-1.281 1.066-.451.223-.902.306-1.354.249-.451-.057-.879-.256-1.283-.597-.404-.34-.674-.73-.811-1.17a2.418 2.418 0 0 1 0-1.39c.132-.482.401-.97.809-1.463l1.419-1.719.099.867-2.071-1.746.855-1.034Zm1.106 2.687.877-.043-1.38 1.67c-.377.456-.565.878-.564 1.265.001.398.175.742.522 1.034.351.297.718.408 1.099.334.378-.069.755-.331 1.131-.787l1.38-1.67.123.886-3.188-2.69ZM96.037 99.91l1.957 7.704-1.025.828-7.011-3.623 1.089-.88 6.21 3.355-.417.337-1.876-6.854 1.073-.867Zm-.124 2.249.372 1.052-3.028 2.445-.933-.599 3.589-2.898ZM83.641 108.297c.487-.252.98-.406 1.482-.463a3.769 3.769 0 0 1 1.436.13c.457.144.873.375 1.25.692.375.318.684.717.927 1.196.243.48.382.967.417 1.461a3.49 3.49 0 0 1-.188 1.424 3.64 3.64 0 0 1-.736 1.254 4.11 4.11 0 0 1-1.234.952 4.074 4.074 0 0 1-1.573.464 3.106 3.106 0 0 1-1.502-.236l.398-1.125c.359.132.712.186 1.06.161a2.502 2.502 0 0 0 1.03-.287c.334-.173.614-.388.837-.643.218-.252.38-.533.483-.843.098-.307.135-.629.11-.965a2.756 2.756 0 0 0-.297-.998 2.75 2.75 0 0 0-.627-.829 2.508 2.508 0 0 0-.84-.474 2.437 2.437 0 0 0-.958-.097 2.778 2.778 0 0 0-1.006.311 2.656 2.656 0 0 0-.838.665c-.22.277-.381.605-.482.983l-1.14-.342c.12-.504.35-.961.69-1.369a4.144 4.144 0 0 1 1.301-1.022ZM76.926 115.709l-3.431.988-.301-1.066 3.431-.989.301 1.067Zm-.942-2.961-3.894 1.122-.307-1.086 5.177-1.492 1.967 6.975-5.038 1.452-.307-1.086 3.757-1.082-1.355-4.803Z"/></g></svg>