<svg width="18" height="18" viewBox="0 0 18 18" fill="none" xmlns="http://www.w3.org/2000/svg">
<g clip-path="url(#clip0_27_773)">
<path d="M11.6634 9.74707L10.1559 11.2597C9.54454 11.8732 8.4689 11.8864 7.84435 11.2597L6.33674 9.74707L0.922119 15.1793C1.12367 15.2725 1.34589 15.3281 1.58214 15.3281H16.4181C16.6543 15.3281 16.8765 15.2725 17.078 15.1793L11.6634 9.74707Z" fill="#222222"/>
<path d="M16.418 2.67188H1.58207C1.34582 2.67188 1.1236 2.72749 0.922119 2.82069L6.70803 8.6258C6.70842 8.62618 6.70887 8.62625 6.70926 8.62664C6.70965 8.62703 6.70972 8.62755 6.70972 8.62755L8.59103 10.5151C8.79086 10.7149 9.20929 10.7149 9.40912 10.5151L11.29 8.62787C11.29 8.62787 11.2905 8.62703 11.2909 8.62664C11.2909 8.62664 11.2917 8.62618 11.2921 8.6258L17.0779 2.82066C16.8764 2.72742 16.6543 2.67188 16.418 2.67188Z" fill="#222222"/>
<path d="M0.168258 3.55811C0.0639844 3.76897 0 4.00304 0 4.25378V13.746C0 13.9967 0.0639141 14.2308 0.168223 14.4416L5.59223 9.00005L0.168258 3.55811Z" fill="#222222"/>
<path d="M17.8317 3.55811L12.4077 9.00012L17.8317 14.4418C17.9359 14.2309 17.9999 13.9968 17.9999 13.746V4.25385C17.9999 4.00304 17.9359 3.76897 17.8317 3.55811Z" fill="#222222"/>
</g>
<defs>
<clipPath id="clip0_27_773">
<rect width="18" height="18" fill="white"/>
</clipPath>
</defs>
</svg>
