<svg width="16" height="16" viewBox="0 0 16 16" fill="none" xmlns="http://www.w3.org/2000/svg">
<path fill-rule="evenodd" clip-rule="evenodd" d="M7.93601 0C12.3189 0 15.872 3.58172 15.872 8C15.872 12.4183 12.3189 16 7.93601 16C3.55307 16 0 12.4183 0 8C0 3.58172 3.55307 0 7.93601 0ZM7.64916 0.598636C6.74382 0.727076 5.88173 1.46043 5.21253 2.68696C5.01841 3.04273 4.84326 3.43578 4.69061 3.86018C5.60056 3.62967 6.60014 3.49377 7.64916 3.47275V0.598636ZM4.0199 4.05232C4.20969 3.45183 4.4419 2.89936 4.70986 2.40826C5.04158 1.80024 5.43529 1.27518 5.87887 0.871908C3.46676 1.57809 1.56547 3.49472 0.864937 5.92628C1.26498 5.47912 1.78584 5.08224 2.389 4.74784C2.87617 4.47772 3.42422 4.24364 4.0199 4.05232ZM3.82928 4.72844C3.60063 5.64572 3.46582 6.65336 3.44497 7.71084H0.593845C0.721262 6.79816 1.44875 5.92912 2.66547 5.25456C3.01839 5.05888 3.4083 4.88232 3.82928 4.72844ZM4.01879 7.71084C4.04248 6.5568 4.20727 5.47336 4.47995 4.51608C5.42958 4.2412 6.50439 4.07504 7.64916 4.05116V5.30032C7.22208 6.40248 6.35103 7.28048 5.25764 7.71084H4.01879ZM3.44497 8.28916H0.593845C0.721262 9.20184 1.44875 10.0708 2.66547 10.7454C3.01839 10.9411 3.4083 11.1177 3.82928 11.2716C3.60063 10.3543 3.46582 9.34664 3.44497 8.28916ZM4.47995 11.4839C4.20727 10.5266 4.04248 9.4432 4.01879 8.28916H5.25764C6.35103 8.71952 7.22212 9.59752 7.64916 10.6997V11.9488C6.50439 11.925 5.42958 11.7588 4.47995 11.4839ZM4.0199 11.9477C3.42422 11.7564 2.87617 11.5223 2.389 11.2522C1.78584 10.9178 1.26498 10.5209 0.864937 10.0737C1.56547 12.5053 3.46676 14.4219 5.87887 15.1281C5.43529 14.7248 5.04158 14.1998 4.70986 13.5917C4.4419 13.1006 4.20969 12.5482 4.0199 11.9477ZM7.64916 15.4014C6.74382 15.2729 5.88173 14.5396 5.21253 13.313C5.01841 12.9573 4.84326 12.5642 4.69061 12.1398C5.60056 12.3703 6.60014 12.5062 7.64916 12.5272V15.4014ZM9.99314 15.1281C10.4367 14.7248 10.8304 14.1998 11.1622 13.5917C11.4301 13.1006 11.6623 12.5482 11.8521 11.9477C12.4478 11.7564 12.9958 11.5223 13.483 11.2522C14.0862 10.9178 14.6071 10.5209 15.0071 10.0737C14.3066 12.5053 12.4052 14.4219 9.99314 15.1281ZM11.1814 12.1398C11.0287 12.5642 10.8536 12.9573 10.6595 13.313C9.99032 14.5396 9.12823 15.2729 8.22285 15.4014V12.5272C9.27187 12.5062 10.2715 12.3703 11.1814 12.1398ZM12.0427 11.2716C12.4637 11.1177 12.8536 10.9411 13.2065 10.7454C14.4233 10.0708 15.1507 9.20184 15.2782 8.28916H12.427C12.4062 9.34664 12.2714 10.3543 12.0427 11.2716ZM11.8533 8.28916C11.8296 9.4432 11.6647 10.5266 11.3921 11.4839C10.4424 11.7588 9.36766 11.925 8.22285 11.9488V10.7006C8.64977 9.59804 9.52103 8.71964 10.6147 8.28916H11.8533ZM12.427 7.71084H15.2782C15.1507 6.79816 14.4233 5.92912 13.2065 5.25456C12.8536 5.05888 12.4637 4.88232 12.0427 4.72844C12.2714 5.64572 12.4062 6.65336 12.427 7.71084ZM11.3921 4.51608C11.6647 5.47336 11.8296 6.5568 11.8533 7.71084H10.6147C9.52103 7.28036 8.64977 6.40196 8.22285 5.2994V4.05116C9.36766 4.07504 10.4424 4.2412 11.3921 4.51608ZM11.8521 4.05232C12.4478 4.24364 12.9958 4.47772 13.483 4.74784C14.0862 5.08224 14.6071 5.47912 15.0071 5.92628C14.3066 3.49472 12.4052 1.57809 9.99314 0.871908C10.4367 1.27518 10.8304 1.80024 11.1622 2.40826C11.4301 2.89936 11.6623 3.45183 11.8521 4.05232ZM8.22285 0.598636C9.12823 0.727076 9.99032 1.46043 10.6595 2.68696C10.8536 3.04274 11.0287 3.43578 11.1814 3.86018C10.2715 3.62967 9.27187 3.49377 8.22285 3.47275V0.598636Z" fill="#222222"/>
</svg>
