<svg width="16" height="16" viewBox="0 0 16 16" fill="none" xmlns="http://www.w3.org/2000/svg">
<path d="M8.00009 0C5.05934 0 2.66675 2.39259 2.66675 5.33334C2.66675 6.21616 2.88747 7.09147 3.30706 7.86784L7.70844 15.8281C7.76703 15.9342 7.87869 16 8.00009 16C8.1215 16 8.23315 15.9342 8.29175 15.8281L12.6947 7.86522C13.1127 7.09147 13.3334 6.21613 13.3334 5.33331C13.3334 2.39259 10.9408 0 8.00009 0ZM8.00009 8C6.52972 8 5.33344 6.80372 5.33344 5.33334C5.33344 3.86297 6.52972 2.66669 8.00009 2.66669C9.47047 2.66669 10.6667 3.86297 10.6667 5.33334C10.6667 6.80372 9.47047 8 8.00009 8Z" fill="#222222"/>
</svg>
