<svg width="229" height="20" viewBox="0 0 229 20" fill="none" xmlns="http://www.w3.org/2000/svg">
<path fill-rule="evenodd" clip-rule="evenodd" d="M28.3982 2C32.7811 2 36.3342 5.58172 36.3342 10C36.3342 14.4183 32.7811 18 28.3982 18C24.0153 18 20.4622 14.4183 20.4622 10C20.4622 5.58172 24.0153 2 28.3982 2ZM28.1114 2.59864C27.206 2.72708 26.3439 3.46043 25.6747 4.68696C25.4806 5.04273 25.3055 5.43578 25.1528 5.86018C26.0628 5.62967 27.0623 5.49377 28.1114 5.47275V2.59864ZM24.4821 6.05232C24.6719 5.45183 24.9041 4.89936 25.1721 4.40826C25.5038 3.80024 25.8975 3.27518 26.3411 2.87191C23.929 3.57809 22.0277 5.49472 21.3271 7.92628C21.7272 7.47912 22.248 7.08224 22.8512 6.74784C23.3384 6.47772 23.8864 6.24364 24.4821 6.05232ZM24.2915 6.72844C24.0628 7.64572 23.928 8.65336 23.9072 9.71084H21.056C21.1835 8.79816 21.9109 7.92912 23.1277 7.25456C23.4806 7.05888 23.8705 6.88232 24.2915 6.72844ZM24.481 9.71084C24.5047 8.5568 24.6695 7.47336 24.9422 6.51608C25.8918 6.2412 26.9666 6.07504 28.1114 6.05116V7.30032C27.6843 8.40248 26.8132 9.28048 25.7198 9.71084H24.481ZM23.9072 10.2892H21.056C21.1835 11.2018 21.9109 12.0708 23.1277 12.7454C23.4806 12.9411 23.8705 13.1177 24.2915 13.2716C24.0628 12.3543 23.928 11.3466 23.9072 10.2892ZM24.9422 13.4839C24.6695 12.5266 24.5047 11.4432 24.481 10.2892H25.7198C26.8132 10.7195 27.6843 11.5975 28.1114 12.6997V13.9488C26.9666 13.925 25.8918 13.7588 24.9422 13.4839ZM24.4821 13.9477C23.8864 13.7564 23.3384 13.5223 22.8512 13.2522C22.248 12.9178 21.7272 12.5209 21.3271 12.0737C22.0277 14.5053 23.929 16.4219 26.3411 17.1281C25.8975 16.7248 25.5038 16.1998 25.1721 15.5917C24.9041 15.1006 24.6719 14.5482 24.4821 13.9477ZM28.1114 17.4014C27.206 17.2729 26.3439 16.5396 25.6747 15.313C25.4806 14.9573 25.3055 14.5642 25.1528 14.1398C26.0628 14.3703 27.0623 14.5062 28.1114 14.5272V17.4014ZM30.4553 17.1281C30.8989 16.7248 31.2926 16.1998 31.6244 15.5917C31.8923 15.1006 32.1245 14.5482 32.3143 13.9477C32.91 13.7564 33.458 13.5223 33.9452 13.2522C34.5484 12.9178 35.0693 12.5209 35.4693 12.0737C34.7688 14.5053 32.8674 16.4219 30.4553 17.1281ZM31.6436 14.1398C31.4909 14.5642 31.3158 14.9573 31.1217 15.313C30.4525 16.5396 29.5904 17.2729 28.685 17.4014V14.5272C29.7341 14.5062 30.7337 14.3703 31.6436 14.1398ZM32.5049 13.2716C32.9259 13.1177 33.3158 12.9411 33.6687 12.7454C34.8855 12.0708 35.6129 11.2018 35.7404 10.2892H32.8892C32.8684 11.3466 32.7336 12.3543 32.5049 13.2716ZM32.3155 10.2892C32.2918 11.4432 32.1269 12.5266 31.8543 13.4839C30.9046 13.7588 29.8299 13.925 28.685 13.9488V12.7006C29.112 11.598 29.9832 10.7196 31.0769 10.2892H32.3155ZM32.8892 9.71084H35.7404C35.6129 8.79816 34.8855 7.92912 33.6687 7.25456C33.3158 7.05888 32.9259 6.88232 32.5049 6.72844C32.7336 7.64572 32.8684 8.65336 32.8892 9.71084ZM31.8543 6.51608C32.1269 7.47336 32.2918 8.5568 32.3155 9.71084H31.0769C29.9832 9.28036 29.112 8.40196 28.685 7.2994V6.05116C29.8299 6.07504 30.9046 6.2412 31.8543 6.51608ZM32.3143 6.05232C32.91 6.24364 33.458 6.47772 33.9452 6.74784C34.5484 7.08224 35.0693 7.47912 35.4693 7.92628C34.7688 5.49472 32.8674 3.57809 30.4553 2.87191C30.8989 3.27518 31.2926 3.80024 31.6244 4.40826C31.8923 4.89936 32.1245 5.45183 32.3143 6.05232ZM28.685 2.59864C29.5904 2.72708 30.4525 3.46043 31.1217 4.68696C31.3158 5.04274 31.4909 5.43578 31.6436 5.86018C30.7337 5.62967 29.7341 5.49377 28.685 5.47275V2.59864Z" fill="#222222"/>
<path d="M6.3996 2.8448H8.01854L9.8089 7.5872L11.6183 2.8448H13.2373L10.8945 8.7776L13.2182 14.4032L17.7894 2.768H19.6559L13.9991 16.4H12.5135L9.82795 9.968L7.12336 16.4H5.63774L0 2.768H1.8475L6.43769 14.4032L8.7423 8.7776L6.3996 2.8448Z" fill="#222222"/>
<path d="M38.7468 16.4V2.768H44.5369C45.1337 2.768 45.6796 2.896 46.1749 3.152C46.6701 3.3952 47.1018 3.728 47.47 4.1504C47.8382 4.56 48.1239 5.0272 48.3271 5.552C48.5303 6.064 48.6318 6.5888 48.6318 7.1264C48.6318 7.7536 48.5112 8.3488 48.27 8.912C48.0414 9.4752 47.7113 9.9552 47.2795 10.352C46.8605 10.7488 46.3653 11.024 45.7939 11.1776L49.0699 16.4H47.1272L44.0417 11.504H40.4609V16.4H38.7468ZM40.4609 9.968H44.5559C45.0257 9.968 45.432 9.84 45.7749 9.584C46.1304 9.3152 46.4034 8.9632 46.5939 8.528C46.797 8.0928 46.8986 7.6256 46.8986 7.1264C46.8986 6.6144 46.7843 6.1472 46.5558 5.7248C46.3272 5.2896 46.0288 4.944 45.6606 4.688C45.2924 4.432 44.886 4.304 44.4416 4.304H40.4609V9.968Z" fill="#222222"/>
<path d="M51.2646 16.4V2.7872H52.9787V10.3136L59.9497 2.768H61.7972L56.369 8.7776L62.102 16.4H60.1783L55.2834 9.8144L52.9787 12.2336V16.4H51.2646Z" fill="#222222"/>
<path d="M71.6317 5.6288C71.4794 5.4496 71.2762 5.2768 71.0222 5.1104C70.7683 4.944 70.4826 4.7968 70.1652 4.6688C69.8477 4.528 69.4985 4.4192 69.1176 4.3424C68.7494 4.2528 68.3621 4.208 67.9558 4.208C66.9146 4.208 66.1464 4.4064 65.6512 4.8032C65.1559 5.2 64.9083 5.744 64.9083 6.4352C64.9083 6.9216 65.0353 7.3056 65.2893 7.5872C65.5432 7.8688 65.9305 8.0992 66.4511 8.2784C66.9844 8.4576 67.6574 8.6432 68.47 8.8352C69.4096 9.04 70.2223 9.2896 70.908 9.584C71.5936 9.8784 72.1206 10.2752 72.4888 10.7744C72.857 11.2608 73.0412 11.9136 73.0412 12.7328C73.0412 13.3856 72.9142 13.9552 72.6602 14.4416C72.419 14.9152 72.0761 15.312 71.6317 15.632C71.1873 15.9392 70.6667 16.1696 70.0699 16.3232C69.4731 16.464 68.8256 16.5344 68.1272 16.5344C67.4415 16.5344 66.7685 16.464 66.1083 16.3232C65.4607 16.1696 64.8449 15.952 64.2608 15.6704C63.6767 15.3888 63.1307 15.0368 62.6228 14.6144L63.4418 13.1552C63.6449 13.3728 63.9052 13.5904 64.2227 13.808C64.5528 14.0128 64.921 14.2048 65.3274 14.384C65.7464 14.5632 66.1972 14.7104 66.6797 14.8256C67.1622 14.928 67.6574 14.9792 68.1653 14.9792C69.1303 14.9792 69.8795 14.8064 70.4128 14.4608C70.9461 14.1024 71.2127 13.584 71.2127 12.9056C71.2127 12.3936 71.0603 11.984 70.7556 11.6768C70.4635 11.3696 70.0255 11.1136 69.4414 10.9088C68.8573 10.704 68.1462 10.4992 67.3082 10.2944C66.394 10.064 65.6258 9.8144 65.0036 9.5456C64.3814 9.264 63.9116 8.8992 63.5941 8.4512C63.2894 8.0032 63.137 7.4208 63.137 6.704C63.137 5.8336 63.3465 5.0976 63.7656 4.496C64.1846 3.8944 64.7623 3.44 65.4988 3.1328C66.2352 2.8256 67.0669 2.672 67.9939 2.672C68.6033 2.672 69.1684 2.736 69.689 2.864C70.2223 2.992 70.7175 3.1712 71.1746 3.4016C71.6317 3.632 72.0508 3.9072 72.4317 4.2272L71.6317 5.6288Z" fill="#222222"/>
<path d="M75.2958 16.4V2.768H80.9335C81.5303 2.768 82.0763 2.896 82.5715 3.152C83.0667 3.3952 83.4984 3.728 83.8667 4.1504C84.2349 4.56 84.5206 5.0272 84.7238 5.552C84.9269 6.064 85.0285 6.5888 85.0285 7.1264C85.0285 7.8688 84.8634 8.5792 84.5333 9.2576C84.2032 9.9232 83.7397 10.4672 83.1429 10.8896C82.5461 11.2992 81.8477 11.504 81.0478 11.504H77.01V16.4H75.2958ZM77.01 9.968H80.9526C81.4224 9.968 81.8287 9.84 82.1715 9.584C82.5271 9.328 82.8001 8.9824 82.9905 8.5472C83.1937 8.112 83.2953 7.6384 83.2953 7.1264C83.2953 6.5888 83.181 6.1088 82.9524 5.6864C82.7239 5.2512 82.4255 4.912 82.0573 4.6688C81.689 4.4256 81.2827 4.304 80.8383 4.304H77.01V9.968Z" fill="#222222"/>
<path d="M86.2865 9.488C86.2865 8.656 86.4261 7.8432 86.7055 7.0496C86.9975 6.2432 87.4165 5.5136 87.9625 4.8608C88.5212 4.1952 89.2006 3.6704 90.0005 3.2864C90.8005 2.8896 91.7083 2.6912 92.7241 2.6912C93.9304 2.6912 94.9653 2.9728 95.8287 3.536C96.6921 4.0864 97.3334 4.7968 97.7524 5.6672L96.4001 6.5504C96.1335 5.9744 95.7906 5.52 95.3716 5.1872C94.9653 4.8416 94.5209 4.5984 94.0383 4.4576C93.5685 4.3168 93.1051 4.2464 92.648 4.2464C91.8988 4.2464 91.2322 4.4 90.6481 4.7072C90.0767 5.0144 89.5942 5.424 89.2006 5.936C88.8069 6.448 88.5085 7.024 88.3054 7.664C88.1149 8.2912 88.0197 8.9248 88.0197 9.5648C88.0197 10.2688 88.134 10.9472 88.3625 11.6C88.6038 12.2528 88.9339 12.8288 89.3529 13.328C89.7719 13.8272 90.2672 14.224 90.8385 14.5184C91.4099 14.8128 92.0321 14.96 92.7051 14.96C93.1749 14.96 93.6574 14.8768 94.1526 14.7104C94.6478 14.544 95.1113 14.288 95.543 13.9424C95.9747 13.584 96.3176 13.1232 96.5715 12.56L98 13.3472C97.7206 14.0256 97.2889 14.6016 96.7048 15.0752C96.1208 15.5488 95.4668 15.9072 94.7431 16.1504C94.032 16.3936 93.3273 16.5152 92.6289 16.5152C91.702 16.5152 90.8512 16.3168 90.0767 15.92C89.3021 15.5104 88.6292 14.9728 88.0578 14.3072C87.4991 13.6288 87.061 12.8736 86.7436 12.0416C86.4388 11.1968 86.2865 10.3456 86.2865 9.488Z" fill="#222222"/>
<rect opacity="0.25" x="114" width="1" height="20" fill="#222222"/>
<g clip-path="url(#clip0_1_1207)">
<path d="M138.952 6.87367C138.952 6.82287 138.952 6.08377 138.952 6.08377H138.525C138.525 6.08377 138.525 6.8114 138.525 6.83437C138.525 6.96874 138.404 7.05887 138.2 7.05887C137.987 7.05887 137.871 6.972 137.871 6.8327C137.871 6.80977 137.871 6.08377 137.871 6.08377H137.439C137.439 6.08377 137.439 6.7737 137.439 6.8327C137.439 7.22274 137.75 7.38827 138.183 7.38827C138.646 7.38827 138.952 7.2211 138.952 6.87367Z" fill="#222222"/>
<path d="M140.39 7.37024V7.02774H139.628V6.08377H139.197V7.37024H140.39Z" fill="#222222"/>
<path d="M141.672 6.40664V6.08377H140.18V6.40664H140.707V7.37024H141.144V6.40664H141.672Z" fill="#222222"/>
<path d="M142.247 7.37024V6.08377H141.808V7.37024H142.247Z" fill="#222222"/>
<path d="M144.256 7.37024V6.08377H143.716L143.375 6.85567L143.05 6.08377H142.493V7.37024H142.899V6.6754L143.192 7.37024H143.555L143.851 6.6754V7.37024H144.256Z" fill="#222222"/>
<path d="M144.932 7.1326H145.608L145.718 7.37024H146.178L145.547 6.08377H145.033L144.365 7.37024H144.816L144.932 7.1326ZM145.472 6.84417H145.072L145.23 6.53444L145.278 6.41647L145.322 6.5328L145.472 6.84417Z" fill="#222222"/>
<path d="M147.532 6.40664V6.08377H146.039V6.40664H146.566V7.37024H147.003V6.40664H147.532Z" fill="#222222"/>
<path d="M148.983 7.37024V7.05067H148.087V6.8835H148.947V6.5705H148.087V6.40497H148.972V6.08377H147.666V7.37024H148.983Z" fill="#222222"/>
<path d="M140.694 8.05411H140.282C140.282 8.05411 140.012 8.86367 140.012 8.88334C140.012 8.86367 139.761 8.05411 139.761 8.05411H139.313C139.313 8.05411 139.063 8.86367 139.063 8.88334C139.063 8.86367 138.792 8.05411 138.792 8.05411H138.329L138.797 9.34057H139.264C139.264 9.34057 139.515 8.57197 139.517 8.55067C139.519 8.57197 139.769 9.34057 139.769 9.34057H140.237L140.694 8.05411Z" fill="#222222"/>
<path d="M141.259 9.34057V8.05411H140.821V9.34057H141.259Z" fill="#222222"/>
<path d="M142.962 9.34057V8.05411H142.555V8.75387L141.954 8.05411H141.505V9.34057H141.916V8.62441L142.535 9.34057H142.962Z" fill="#222222"/>
<path d="M144.669 9.34057V8.05411H144.261V8.75387L143.66 8.05411H143.211V9.34057H143.622V8.62441L144.242 9.34057H144.669Z" fill="#222222"/>
<path d="M146.235 9.34057V9.02101H145.338V8.85384H146.198V8.54084H145.338V8.37531H146.224V8.05411H144.917V9.34057H146.235Z" fill="#222222"/>
<path d="M147.919 8.44577C147.919 8.32944 147.891 8.24584 147.834 8.18521C147.759 8.10327 147.63 8.05411 147.433 8.05411H146.437V9.34057H146.863V8.88664H147.25L147.56 9.34057H148.035L147.657 8.81614C147.742 8.80304 147.81 8.75061 147.855 8.68834C147.895 8.63097 147.919 8.54574 147.919 8.44577ZM147.505 8.48674C147.505 8.50807 147.501 8.53427 147.49 8.55394C147.474 8.58671 147.433 8.59984 147.364 8.59984H146.864V8.36547H147.356C147.423 8.36547 147.468 8.37694 147.49 8.41957C147.501 8.43594 147.505 8.46217 147.505 8.48674Z" fill="#222222"/>
<path d="M139.132 10.6062C139.132 10.5852 139.132 9.9776 139.132 9.9776H138.982C138.982 9.9776 138.982 10.5827 138.982 10.5963C138.982 10.7423 138.849 10.8253 138.656 10.8253C138.429 10.8253 138.317 10.7362 138.317 10.5951C138.317 10.5815 138.317 9.9776 138.317 9.9776H138.167C138.167 9.9776 138.167 10.5666 138.167 10.5901C138.167 10.8475 138.362 10.9614 138.65 10.9614C138.949 10.9614 139.132 10.8401 139.132 10.6062Z" fill="#222222"/>
<path d="M140.202 10.949V10.8067H139.551V9.9776H139.401V10.949H140.202Z" fill="#222222"/>
<path d="M141.056 10.1187V9.9776H140.053V10.1187H140.478V10.949H140.63V10.1187H141.056Z" fill="#222222"/>
<path d="M142.125 10.2523C142.125 10.183 142.11 10.1323 142.085 10.0914C142.041 10.0234 141.955 9.9776 141.813 9.9776H141.202V10.949H141.35V10.5394H141.781L142.044 10.949H142.217L141.932 10.5134C142.005 10.5048 142.061 10.4627 142.091 10.4082C142.113 10.3711 142.125 10.3167 142.125 10.2523ZM141.976 10.2647C141.976 10.2919 141.97 10.3253 141.959 10.3476C141.94 10.3835 141.895 10.402 141.823 10.4033H141.352C141.352 10.4008 141.352 10.1162 141.352 10.1162H141.795C141.886 10.1162 141.934 10.1385 141.959 10.1805C141.97 10.2003 141.976 10.2337 141.976 10.2647Z" fill="#222222"/>
<path d="M142.553 10.7089H143.141L143.261 10.949H143.422L142.944 9.9776H142.767L142.273 10.949H142.43L142.553 10.7089ZM143.079 10.5716H142.618L142.809 10.1991L142.851 10.1088L142.893 10.1991L143.079 10.5716Z" fill="#222222"/>
<path d="M144.948 10.8562C144.985 10.8116 145.002 10.7485 145.002 10.6805C145.002 10.6161 144.984 10.5518 144.947 10.5122C144.909 10.4751 144.849 10.4441 144.783 10.4379C144.821 10.4317 144.852 10.407 144.872 10.381C144.904 10.3426 144.924 10.2808 144.924 10.2189C144.924 10.1533 144.904 10.0939 144.864 10.0531C144.819 10.0073 144.743 9.9776 144.637 9.9776H144.002V10.949H144.684C144.812 10.949 144.901 10.9156 144.948 10.8562ZM144.769 10.2498C144.769 10.2931 144.755 10.3315 144.733 10.3538C144.71 10.3798 144.671 10.3909 144.63 10.3909H144.149V10.1112H144.603C144.658 10.1112 144.7 10.1224 144.729 10.1496C144.754 10.1743 144.769 10.2102 144.769 10.2498ZM144.817 10.7621C144.787 10.7968 144.735 10.8141 144.659 10.8141H144.149V10.5258H144.663C144.733 10.5258 144.781 10.5406 144.809 10.5691C144.836 10.5951 144.847 10.6285 144.847 10.6669C144.847 10.7065 144.838 10.7399 144.817 10.7621Z" fill="#222222"/>
<path d="M146.095 10.949V10.8067H145.36V10.5295H146.066V10.3884H145.36V10.1187H146.086V9.9776H145.213V10.949H146.095Z" fill="#222222"/>
<path d="M147.269 10.6619C147.269 10.5035 147.167 10.4218 146.915 10.3921C146.873 10.386 146.782 10.3761 146.732 10.3699C146.499 10.3414 146.428 10.3092 146.428 10.2263C146.428 10.1459 146.506 10.1001 146.742 10.1001C146.925 10.1001 147.019 10.1372 147.066 10.204C147.079 10.2226 147.086 10.2449 147.09 10.2622H147.251C147.246 10.2337 147.235 10.1941 147.218 10.162C147.153 10.0469 147.02 9.96397 146.742 9.96397C146.41 9.96273 146.273 10.0865 146.273 10.2399C146.273 10.3934 146.38 10.4713 146.658 10.5048C146.706 10.5109 146.791 10.5208 146.833 10.5258C147.049 10.553 147.116 10.5864 147.116 10.6792C147.116 10.7646 147.039 10.8265 146.793 10.8265C146.59 10.8265 146.482 10.7894 146.439 10.7176C146.426 10.6978 146.417 10.6669 146.416 10.6458H146.257C146.261 10.6904 146.273 10.7386 146.295 10.777C146.357 10.8946 146.504 10.9626 146.788 10.9626C147.127 10.9626 147.269 10.85 147.269 10.6619Z" fill="#222222"/>
<path d="M148.347 10.1187V9.9776H147.344V10.1187H147.77V10.949H147.922V10.1187H148.347Z" fill="#222222"/>
<path d="M137.741 11.7933C137.741 11.6943 137.722 11.6275 137.69 11.5768C137.644 11.5037 137.555 11.4654 137.4 11.4654H136.803V12.4368H136.952V12.12C136.952 12.12 137.373 12.12 137.394 12.12C137.539 12.1188 137.639 12.0841 137.692 12.0049C137.726 11.9567 137.741 11.8874 137.741 11.7933ZM137.59 11.7933C137.59 11.8428 137.585 11.8799 137.569 11.9047C137.542 11.9505 137.485 11.9789 137.368 11.9789C137.358 11.9789 136.952 11.9789 136.952 11.9789V11.604H137.373C137.483 11.604 137.539 11.63 137.569 11.6807C137.584 11.703 137.59 11.7438 137.59 11.7933Z" fill="#222222"/>
<path d="M138.831 12.4368V12.2945H138.097V12.0173H138.802V11.8762H138.097V11.6065H138.823V11.4654H137.95V12.4368H138.831Z" fill="#222222"/>
<path d="M139.977 11.7401C139.977 11.6708 139.963 11.6201 139.937 11.5792C139.893 11.5112 139.808 11.4654 139.666 11.4654H139.055V12.4368H139.203V12.0272H139.633L139.897 12.4368H140.07L139.785 12.0012C139.857 11.9926 139.913 11.9505 139.943 11.896C139.965 11.8589 139.977 11.8045 139.977 11.7401ZM139.828 11.7525C139.828 11.7797 139.822 11.8131 139.811 11.8354C139.792 11.8713 139.747 11.8898 139.675 11.8911H139.204C139.204 11.8886 139.204 11.604 139.204 11.604H139.648C139.738 11.604 139.786 11.6263 139.811 11.6683C139.822 11.6881 139.828 11.7215 139.828 11.7525Z" fill="#222222"/>
<path d="M141.093 11.6065V11.4654H140.253V12.4368H140.402V12.0235H141.062V11.8787H140.402V11.6065H141.093Z" fill="#222222"/>
<path d="M141.777 11.4481C141.576 11.4481 141.438 11.4988 141.339 11.6052C141.256 11.6881 141.22 11.8032 141.22 11.948C141.22 12.1064 141.267 12.2252 141.353 12.3056C141.446 12.4009 141.588 12.4504 141.777 12.4504C141.972 12.4504 142.123 12.4009 142.213 12.3007C142.292 12.219 142.332 12.1027 142.332 11.9468C142.332 11.7958 142.298 11.6807 142.215 11.599C142.12 11.4976 141.978 11.4481 141.777 11.4481ZM141.777 12.3118C141.645 12.3118 141.551 12.2821 141.48 12.2227C141.408 12.1621 141.373 12.0693 141.373 11.9505C141.373 11.8391 141.403 11.7463 141.461 11.6906C141.527 11.6263 141.628 11.5879 141.776 11.5879C141.928 11.5879 142.023 11.625 142.094 11.6894C142.154 11.7438 142.181 11.8403 142.181 11.9492C142.181 12.0594 142.153 12.1534 142.092 12.2103C142.021 12.2784 141.921 12.3118 141.777 12.3118Z" fill="#222222"/>
<path d="M143.461 11.7401C143.461 11.6708 143.446 11.6201 143.421 11.5792C143.377 11.5112 143.291 11.4654 143.149 11.4654H142.538V12.4368H142.686V12.0272H143.117L143.38 12.4368H143.553L143.268 12.0012C143.341 11.9926 143.397 11.9505 143.427 11.896C143.449 11.8589 143.461 11.8045 143.461 11.7401ZM143.312 11.7525C143.312 11.7797 143.306 11.8131 143.295 11.8354C143.276 11.8713 143.231 11.8898 143.159 11.8911H142.687C142.687 11.8886 142.687 11.604 142.687 11.604H143.131C143.221 11.604 143.27 11.6263 143.295 11.6683C143.306 11.6881 143.312 11.7215 143.312 11.7525Z" fill="#222222"/>
<path d="M144.899 12.4368V11.4654H144.705L144.316 12.2648L143.935 11.4654H143.736V12.4368H143.879V11.6894L144.235 12.4368H144.392L144.756 11.6894V12.4368H144.899Z" fill="#222222"/>
<path d="M145.322 12.1967H145.91L146.03 12.4368H146.191L145.713 11.4654H145.536L145.042 12.4368H145.199L145.322 12.1967ZM145.847 12.0594H145.387L145.578 11.6869L145.62 11.5966L145.662 11.6869L145.847 12.0594Z" fill="#222222"/>
<path d="M147.275 12.4368V11.4654H147.132V12.2202L146.506 11.4654H146.337V12.4368H146.482V11.677L147.112 12.4368H147.275Z" fill="#222222"/>
<path d="M148.572 12.0742H148.416C148.411 12.1188 148.394 12.1633 148.364 12.1967C148.299 12.2747 148.196 12.3081 148.037 12.3081C147.904 12.3081 147.76 12.2697 147.692 12.1695C147.656 12.1225 147.633 12.0532 147.633 11.9492C147.633 11.8564 147.649 11.7871 147.683 11.7401C147.741 11.6448 147.862 11.5953 148.033 11.5953C148.199 11.5953 148.304 11.6423 148.359 11.7079C148.39 11.7426 148.409 11.7834 148.414 11.8317H148.571C148.566 11.7772 148.549 11.7129 148.513 11.6584C148.436 11.5409 148.294 11.4481 148.034 11.4481C147.787 11.4481 147.639 11.5297 147.557 11.6522C147.504 11.7228 147.478 11.8218 147.478 11.948C147.478 12.0891 147.51 12.193 147.567 12.266C147.649 12.3811 147.806 12.4504 148.044 12.4504C148.288 12.4504 148.434 12.3749 148.506 12.2549C148.547 12.1967 148.567 12.1274 148.572 12.0742Z" fill="#222222"/>
<path d="M149.65 12.4368V12.2945H148.915V12.0173H149.621V11.8762H148.915V11.6065H149.641V11.4654H148.768V12.4368H149.65Z" fill="#222222"/>
<path d="M138.649 13.4018L138.829 13.9714H139.411L138.94 14.3234L139.12 14.893L138.649 14.541L138.178 14.893L138.358 14.3234L137.887 13.9714H138.47L138.649 13.4018Z" fill="#222222"/>
<path d="M140.726 13.4018L140.91 13.9714H141.503L141.023 14.3234L141.206 14.893L140.726 14.541L140.245 14.893L140.429 14.3234L139.948 13.9714H140.542L140.726 13.4018Z" fill="#222222"/>
<path d="M142.786 13.4018L142.97 13.9714H143.564L143.083 14.3234L143.267 14.893L142.786 14.541L142.306 14.893L142.489 14.3234L142.009 13.9714H142.603L142.786 13.4018Z" fill="#222222"/>
<path d="M144.846 13.4018L145.03 13.9714H145.624L145.143 14.3234L145.327 14.893L144.846 14.541L144.366 14.893L144.549 14.3234L144.069 13.9714H144.663L144.846 13.4018Z" fill="#222222"/>
<path d="M146.923 13.4018L147.102 13.9714H147.685L147.214 14.3234L147.393 14.893L146.923 14.541L146.452 14.893L146.632 14.3234L146.161 13.9714H146.743L146.923 13.4018Z" fill="#222222"/>
<path d="M139.658 3.79205L139.794 4.22272H140.234L139.878 4.48889L140.014 4.91952L139.658 4.65339L139.302 4.91952L139.438 4.48889L139.082 4.22272H139.522L139.658 3.79205Z" fill="#222222"/>
<path d="M141.228 3.79147L141.367 4.22214H141.816L141.453 4.48831L141.592 4.91894L141.228 4.65277L140.865 4.91894L141.004 4.48831L140.641 4.22214H141.09L141.228 3.79147Z" fill="#222222"/>
<path d="M142.786 3.79147L142.925 4.22214H143.374L143.01 4.48831L143.149 4.91894L142.786 4.65277L142.423 4.91894L142.561 4.48831L142.198 4.22214H142.647L142.786 3.79147Z" fill="#222222"/>
<path d="M144.344 3.79147L144.482 4.22214H144.932L144.568 4.48831L144.707 4.91894L144.344 4.65277L143.98 4.91894L144.119 4.48831L143.756 4.22214H144.205L144.344 3.79147Z" fill="#222222"/>
<path d="M145.913 3.79147L146.049 4.22214H146.49L146.134 4.48831L146.27 4.91894L145.913 4.65277L145.557 4.91894L145.693 4.48831L145.337 4.22214H145.777L145.913 3.79147Z" fill="#222222"/>
<path fill-rule="evenodd" clip-rule="evenodd" d="M133.39 11.5435C132.79 7.67983 134.541 3.85723 138.048 2.2157L138.08 2.2889C134.609 3.9139 132.872 7.6991 133.467 11.5308C134.126 15.7699 137.449 18.3122 141.519 18.4348L141.517 18.5152C137.415 18.3916 134.055 15.8263 133.39 11.5435Z" fill="#222222"/>
<path d="M137.288 3.20172C136.64 3.21692 135.881 3.59292 135.434 4.13905C135.792 4.48195 136.37 4.35519 136.785 4.28505C137.379 4.18499 138.009 3.99112 138.569 3.71669C138.339 3.21269 137.719 3.19162 137.288 3.20172Z" fill="#222222"/>
<path d="M136.778 2.37921C136.394 2.99441 135.937 3.60584 135.439 4.14428C135.022 3.74201 135.274 3.07258 135.444 2.65628C135.752 1.90194 136.49 1.25144 137.262 0.91861C137.474 1.41451 137.014 2.00161 136.778 2.37921Z" fill="#222222"/>
<path d="M135.412 4.92688C134.805 5.14882 134.284 5.77355 134.022 6.40075C134.459 6.60948 134.955 6.30805 135.317 6.10735C135.816 5.83175 136.324 5.45149 136.724 5.01142C136.363 4.61908 135.814 4.78002 135.412 4.92688Z" fill="#222222"/>
<path d="M134.677 4.31218C134.544 5.01385 134.321 5.74111 134.029 6.40398C133.518 6.15625 133.538 5.44671 133.559 4.99518C133.597 4.22448 134.016 3.34561 134.599 2.78708C134.956 3.18108 134.761 3.86521 134.677 4.31218Z" fill="#222222"/>
<path d="M134.245 7.15417C133.739 7.56457 133.433 8.32513 133.362 9.0043C133.84 9.0608 134.222 8.61293 134.507 8.30567C134.894 7.8873 135.261 7.36257 135.493 6.8136C135.037 6.55767 134.574 6.88683 134.245 7.15417Z" fill="#222222"/>
<path d="M133.369 6.80771C133.459 7.51628 133.459 8.28284 133.369 9.00524C132.813 8.93494 132.628 8.24774 132.519 7.81664C132.331 7.07251 132.457 6.11131 132.824 5.38791C133.282 5.64881 133.311 6.35481 133.369 6.80771Z" fill="#222222"/>
<path d="M133.848 9.58532C133.448 10.1884 133.307 11.1334 133.487 11.893C134.016 11.7642 134.278 11.1483 134.488 10.7133C134.768 10.1352 135.004 9.46078 135.089 8.79908C134.516 8.67628 134.111 9.18805 133.848 9.58532Z" fill="#222222"/>
<path d="M132.798 9.52437C133.109 10.2669 133.352 11.0842 133.495 11.8912C132.888 12.0252 132.452 11.3701 132.199 10.9357C131.747 10.1624 131.616 9.09044 131.781 8.16537C132.336 8.27987 132.608 9.07204 132.798 9.52437Z" fill="#222222"/>
<path d="M134.128 12.209C133.913 12.9406 134.062 13.9351 134.497 14.6228C134.975 14.3026 135.041 13.5979 135.109 13.0926C135.198 12.4258 135.24 11.6871 135.129 10.9957C134.518 11.076 134.271 11.7203 134.128 12.209Z" fill="#222222"/>
<path d="M133.065 12.5222C133.602 13.1554 134.096 13.8774 134.505 14.6181C133.951 14.9735 133.302 14.4879 132.908 14.1442C132.209 13.5346 131.756 12.4984 131.648 11.5216C132.229 11.4412 132.742 12.1402 133.065 12.5222Z" fill="#222222"/>
<path d="M135.255 14.6989C135.301 15.5504 135.84 16.4439 136.557 16.9525C136.904 16.4644 136.687 15.7167 136.568 15.1947C136.409 14.4919 136.189 13.7601 135.862 13.1108C135.291 13.4211 135.225 14.1381 135.255 14.6989Z" fill="#222222"/>
<path d="M134.29 15.4182C135.067 15.8625 135.842 16.3869 136.563 16.9449C136.131 17.5295 135.269 17.2964 134.734 17.1085C133.792 16.7773 132.952 15.9043 132.513 14.9344C133.069 14.6396 133.831 15.1557 134.29 15.4182Z" fill="#222222"/>
<path d="M137.469 16.7791C137.935 17.6551 138.998 18.2265 139.999 18.3641C140.107 17.7273 139.437 17.0968 139.072 16.6843C138.553 16.0971 138.011 15.4877 137.404 14.9799C136.95 15.5232 137.19 16.2562 137.469 16.7791Z" fill="#222222"/>
<path d="M136.802 17.8893C137.863 18.0027 138.941 18.166 140.001 18.3543C139.9 19.1578 138.661 19.2874 138.098 19.3349C136.944 19.4321 135.661 18.9551 134.768 18.1519C135.212 17.6147 136.238 17.8289 136.802 17.8893Z" fill="#222222"/>
<path d="M138.845 1.54134C138.133 1.7503 137.3 2.14674 136.888 2.87854C137.635 2.79474 138.37 2.52117 139.088 2.31274C139.892 2.07924 140.739 1.9046 141.518 1.5823C140.665 1.23117 139.66 1.30214 138.845 1.54134Z" fill="#222222"/>
<path fill-rule="evenodd" clip-rule="evenodd" d="M152.618 11.5308C153.213 7.6991 151.476 3.91396 148.004 2.2889L148.037 2.2157C151.543 3.85726 153.295 7.67983 152.695 11.5435C152.03 15.8263 148.67 18.3916 144.568 18.5152L144.565 18.4348C148.636 18.3122 151.959 15.7699 152.618 11.5308Z" fill="#222222"/>
<path d="M148.797 3.20172C149.445 3.21692 150.204 3.59292 150.651 4.13905C150.292 4.48195 149.715 4.35519 149.299 4.28505C148.706 4.18499 148.075 3.99112 147.516 3.71669C147.746 3.21269 148.366 3.19162 148.797 3.20172Z" fill="#222222"/>
<path d="M149.307 2.37921C149.691 2.99441 150.148 3.60584 150.646 4.14428C151.062 3.74201 150.811 3.07258 150.641 2.65628C150.333 1.90194 149.595 1.25144 148.823 0.91861C148.611 1.41451 149.071 2.00161 149.307 2.37921Z" fill="#222222"/>
<path d="M150.673 4.92688C151.279 5.14882 151.801 5.77355 152.062 6.40075C151.626 6.60948 151.13 6.30805 150.767 6.10735C150.269 5.83175 149.761 5.45149 149.361 5.01142C149.722 4.61908 150.271 4.78002 150.673 4.92688Z" fill="#222222"/>
<path d="M151.408 4.31218C151.541 5.01385 151.763 5.74111 152.056 6.40398C152.567 6.15625 152.547 5.44671 152.525 4.99518C152.488 4.22448 152.069 3.34561 151.486 2.78708C151.128 3.18108 151.324 3.86521 151.408 4.31218Z" fill="#222222"/>
<path d="M151.84 7.15417C152.346 7.56457 152.652 8.32513 152.723 9.0043C152.245 9.0608 151.863 8.61293 151.578 8.30567C151.191 7.8873 150.824 7.36257 150.591 6.8136C151.047 6.55767 151.511 6.88683 151.84 7.15417Z" fill="#222222"/>
<path d="M152.716 6.80771C152.626 7.51621 152.626 8.28284 152.716 9.00524C153.272 8.93494 153.457 8.24774 153.566 7.81664C153.754 7.07251 153.628 6.11131 153.261 5.38791C152.803 5.64881 152.774 6.35481 152.716 6.80771Z" fill="#222222"/>
<path d="M152.237 9.58532C152.637 10.1884 152.777 11.1334 152.598 11.893C152.069 11.7642 151.807 11.1483 151.596 10.7133C151.317 10.1352 151.08 9.46078 150.996 8.79908C151.569 8.67628 151.973 9.18805 152.237 9.58532Z" fill="#222222"/>
<path d="M153.287 9.52437C152.975 10.2669 152.732 11.0842 152.59 11.8912C153.196 12.0252 153.632 11.3701 153.886 10.9357C154.337 10.1624 154.469 9.09044 154.304 8.16537C153.749 8.27987 153.477 9.07204 153.287 9.52437Z" fill="#222222"/>
<path d="M151.957 12.209C152.172 12.9406 152.023 13.9351 151.588 14.6228C151.11 14.3026 151.043 13.5979 150.976 13.0926C150.887 12.4258 150.844 11.6871 150.955 10.9957C151.567 11.076 151.813 11.7203 151.957 12.209Z" fill="#222222"/>
<path d="M153.019 12.5222C152.483 13.1555 151.988 13.8774 151.58 14.6181C152.133 14.9735 152.783 14.4879 153.177 14.1442C153.875 13.5346 154.329 12.4984 154.437 11.5216C153.855 11.4412 153.343 12.1402 153.019 12.5222Z" fill="#222222"/>
<path d="M150.829 14.6989C150.783 15.5504 150.245 16.4439 149.527 16.9525C149.181 16.4644 149.398 15.7167 149.516 15.1947C149.675 14.4919 149.895 13.7601 150.223 13.1108C150.793 13.4211 150.86 14.1381 150.829 14.6989Z" fill="#222222"/>
<path d="M151.795 15.4182C151.017 15.8625 150.242 16.3869 149.522 16.9449C149.953 17.5295 150.816 17.2964 151.35 17.1085C152.293 16.7773 153.133 15.9043 153.572 14.9344C153.015 14.6396 152.254 15.1557 151.795 15.4182Z" fill="#222222"/>
<path d="M148.616 16.7791C148.149 17.6551 147.087 18.2265 146.085 18.3641C145.978 17.7273 146.647 17.0968 147.012 16.6843C147.532 16.0971 148.073 15.4877 148.68 14.9799C149.135 15.5232 148.894 16.2562 148.616 16.7791Z" fill="#222222"/>
<path d="M149.282 17.8893C148.222 18.0027 147.144 18.166 146.084 18.3543C146.185 19.1578 147.424 19.2874 147.987 19.3349C149.14 19.4321 150.424 18.9551 151.317 18.1519C150.873 17.6147 149.847 17.8289 149.282 17.8893Z" fill="#222222"/>
<path d="M147.24 1.54134C147.952 1.7503 148.785 2.14674 149.197 2.87854C148.45 2.79474 147.715 2.52117 146.997 2.31274C146.192 2.07924 145.345 1.9046 144.566 1.5823C145.419 1.23117 146.425 1.30214 147.24 1.54134Z" fill="#222222"/>
<path d="M143.505 1.16264L143.14 0.333344L142.782 1.14721L141.948 0.615477L142.484 1.77358H143.816L144.332 0.615477L143.505 1.16264Z" fill="#222222"/>
<path d="M143.807 1.95352H142.473V2.15609H143.807V1.95352Z" fill="#222222"/>
<path d="M143.235 17.6239L143.45 18.3047H144.146L143.583 18.7254L143.798 19.4061L143.235 18.9854L142.673 19.4061L142.888 18.7254L142.325 18.3047H143.02L143.235 17.6239Z" fill="#222222"/>
</g>
<path d="M163.161 8.36364V2.54546H165.488C165.915 2.54546 166.272 2.60891 166.558 2.7358C166.843 2.8627 167.058 3.03883 167.202 3.26421C167.346 3.4877 167.418 3.74527 167.418 4.03694C167.418 4.26421 167.372 4.46402 167.281 4.63637C167.191 4.80682 167.066 4.94698 166.907 5.05682C166.75 5.16478 166.57 5.24148 166.368 5.28694V5.34376C166.589 5.35323 166.796 5.41573 166.989 5.53126C167.184 5.64679 167.342 5.80872 167.463 6.01705C167.584 6.22349 167.645 6.4697 167.645 6.75569C167.645 7.0644 167.568 7.33997 167.415 7.58239C167.263 7.82292 167.039 8.01326 166.742 8.15341C166.445 8.29357 166.079 8.36364 165.644 8.36364H163.161ZM164.39 7.35796H165.391C165.734 7.35796 165.984 7.29262 166.141 7.16194C166.298 7.02936 166.376 6.85323 166.376 6.63353C166.376 6.47254 166.337 6.3305 166.26 6.20739C166.182 6.08429 166.072 5.9877 165.928 5.91762C165.786 5.84754 165.617 5.81251 165.42 5.81251H164.39V7.35796ZM164.39 4.98012H165.301C165.469 4.98012 165.618 4.95076 165.749 4.89205C165.881 4.83145 165.985 4.74622 166.061 4.63637C166.139 4.52652 166.177 4.39489 166.177 4.24148C166.177 4.03126 166.103 3.86175 165.953 3.73296C165.806 3.60417 165.596 3.53978 165.323 3.53978H164.39V4.98012Z" fill="#222222"/>
<path d="M170.408 8.44887C169.96 8.44887 169.574 8.35796 169.25 8.17614C168.928 7.99243 168.681 7.73296 168.507 7.39773C168.333 7.06061 168.246 6.66194 168.246 6.20171C168.246 5.75285 168.333 5.35891 168.507 5.01989C168.681 4.68088 168.926 4.41667 169.242 4.22728C169.559 4.03788 169.932 3.94319 170.36 3.94319C170.647 3.94319 170.915 3.98959 171.163 4.08239C171.412 4.1733 171.63 4.31061 171.815 4.49432C172.003 4.67804 172.148 4.9091 172.252 5.18751C172.357 5.46402 172.409 5.78788 172.409 6.1591V6.49148H168.728V5.74148H171.271C171.271 5.56724 171.233 5.41288 171.157 5.27841C171.081 5.14395 170.976 5.03883 170.842 4.96307C170.71 4.88542 170.555 4.8466 170.38 4.8466C170.196 4.8466 170.033 4.88921 169.891 4.97444C169.751 5.05777 169.642 5.17046 169.562 5.31251C169.483 5.45266 169.442 5.60891 169.44 5.78126V6.49432C169.44 6.71023 169.48 6.89679 169.559 7.05398C169.641 7.21118 169.755 7.33239 169.903 7.41762C170.05 7.50285 170.225 7.54546 170.428 7.54546C170.562 7.54546 170.685 7.52652 170.797 7.48864C170.908 7.45076 171.004 7.39395 171.083 7.31819C171.163 7.24243 171.223 7.14963 171.265 7.03978L172.383 7.11364C172.326 7.38258 172.21 7.61743 172.034 7.81819C171.86 8.01705 171.635 8.17235 171.359 8.2841C171.084 8.39395 170.767 8.44887 170.408 8.44887Z" fill="#222222"/>
<path d="M176.824 5.24432L175.717 5.31251C175.698 5.21781 175.658 5.13258 175.595 5.05682C175.533 4.97917 175.451 4.91762 175.348 4.87216C175.248 4.82482 175.128 4.80114 174.988 4.80114C174.801 4.80114 174.643 4.84091 174.514 4.92046C174.386 4.99811 174.321 5.10228 174.321 5.23296C174.321 5.33713 174.363 5.4252 174.446 5.49716C174.529 5.56913 174.672 5.6269 174.875 5.67046L175.663 5.82955C176.087 5.91667 176.403 6.05682 176.611 6.25001C176.819 6.44319 176.923 6.69698 176.923 7.01137C176.923 7.29735 176.839 7.5483 176.671 7.76421C176.504 7.98012 176.276 8.14868 175.984 8.26989C175.695 8.38921 175.361 8.44887 174.982 8.44887C174.405 8.44887 173.946 8.3286 173.603 8.08807C173.263 7.84565 173.063 7.5161 173.004 7.09944L174.194 7.03694C174.229 7.21307 174.316 7.34754 174.455 7.44035C174.593 7.53126 174.77 7.57671 174.985 7.57671C175.197 7.57671 175.367 7.53599 175.496 7.45455C175.627 7.37122 175.693 7.26421 175.695 7.13353C175.693 7.02368 175.646 6.93372 175.556 6.86364C175.465 6.79167 175.325 6.73675 175.136 6.69887L174.381 6.5483C173.955 6.46307 173.638 6.31535 173.43 6.10512C173.224 5.89489 173.121 5.6269 173.121 5.30114C173.121 5.02084 173.197 4.77936 173.348 4.57671C173.501 4.37406 173.716 4.21781 173.992 4.10796C174.27 3.99811 174.596 3.94319 174.968 3.94319C175.519 3.94319 175.952 4.05966 176.268 4.29262C176.586 4.52557 176.771 4.84281 176.824 5.24432Z" fill="#222222"/>
<path d="M180.003 4.00001V4.9091H177.378V4.00001H180.003ZM177.974 2.95455H179.183V7.02273C179.183 7.13448 179.2 7.2216 179.234 7.2841C179.268 7.3447 179.315 7.38732 179.376 7.41194C179.438 7.43656 179.51 7.44887 179.592 7.44887C179.648 7.44887 179.705 7.44413 179.762 7.43466C179.819 7.4233 179.862 7.41478 179.892 7.4091L180.083 8.30966C180.022 8.3286 179.937 8.35038 179.827 8.37501C179.717 8.40152 179.584 8.41762 179.427 8.4233C179.136 8.43466 178.88 8.39584 178.661 8.30682C178.443 8.21781 178.274 8.07955 178.153 7.89205C178.032 7.70455 177.972 7.46781 177.974 7.18182V2.95455Z" fill="#222222"/>
<path d="M187.791 4.58239H186.548C186.525 4.42141 186.479 4.27841 186.409 4.15341C186.339 4.02652 186.249 3.91857 186.139 3.82955C186.029 3.74054 185.903 3.67235 185.759 3.62501C185.617 3.57766 185.463 3.55398 185.296 3.55398C184.996 3.55398 184.734 3.62879 184.51 3.77841C184.287 3.92614 184.114 4.14205 183.991 4.42614C183.868 4.70834 183.807 5.05114 183.807 5.45455C183.807 5.86932 183.868 6.21781 183.991 6.50001C184.116 6.7822 184.29 6.99527 184.513 7.13921C184.736 7.28315 184.995 7.35512 185.288 7.35512C185.452 7.35512 185.605 7.33334 185.745 7.28978C185.887 7.24622 186.012 7.18277 186.122 7.09944C186.232 7.01421 186.323 6.91099 186.395 6.78978C186.468 6.66857 186.519 6.53031 186.548 6.37501L187.791 6.38069C187.759 6.64773 187.678 6.90531 187.55 7.15341C187.423 7.39963 187.252 7.62027 187.036 7.81535C186.822 8.00853 186.567 8.16194 186.27 8.27557C185.975 8.38732 185.641 8.44319 185.268 8.44319C184.75 8.44319 184.286 8.32576 183.877 8.09091C183.471 7.85607 183.149 7.5161 182.913 7.07103C182.678 6.62595 182.561 6.08713 182.561 5.45455C182.561 4.82008 182.68 4.28031 182.918 3.83523C183.157 3.39016 183.48 3.05114 183.889 2.81819C184.297 2.58334 184.757 2.46591 185.268 2.46591C185.605 2.46591 185.917 2.51326 186.204 2.60796C186.494 2.70266 186.75 2.84091 186.973 3.02273C187.197 3.20266 187.378 3.4233 187.518 3.68466C187.66 3.94603 187.751 4.24527 187.791 4.58239Z" fill="#222222"/>
<path d="M190.619 8.44887C190.178 8.44887 189.797 8.35512 189.475 8.16762C189.155 7.97823 188.908 7.71497 188.734 7.37785C188.56 7.03883 188.473 6.64584 188.473 6.19887C188.473 5.74811 188.56 5.35417 188.734 5.01705C188.908 4.67804 189.155 4.41478 189.475 4.22728C189.797 4.03788 190.178 3.94319 190.619 3.94319C191.059 3.94319 191.44 4.03788 191.759 4.22728C192.081 4.41478 192.329 4.67804 192.503 5.01705C192.677 5.35417 192.764 5.74811 192.764 6.19887C192.764 6.64584 192.677 7.03883 192.503 7.37785C192.329 7.71497 192.081 7.97823 191.759 8.16762C191.44 8.35512 191.059 8.44887 190.619 8.44887ZM190.624 7.51137C190.825 7.51137 190.992 7.45455 191.127 7.34091C191.261 7.22538 191.362 7.06819 191.43 6.86932C191.5 6.67046 191.535 6.44413 191.535 6.19035C191.535 5.93656 191.5 5.71023 191.43 5.51137C191.362 5.31251 191.261 5.15531 191.127 5.03978C190.992 4.92425 190.825 4.86648 190.624 4.86648C190.422 4.86648 190.252 4.92425 190.113 5.03978C189.977 5.15531 189.874 5.31251 189.804 5.51137C189.736 5.71023 189.702 5.93656 189.702 6.19035C189.702 6.44413 189.736 6.67046 189.804 6.86932C189.874 7.06819 189.977 7.22538 190.113 7.34091C190.252 7.45455 190.422 7.51137 190.624 7.51137Z" fill="#222222"/>
<path d="M196.266 5.49432V6.45455H193.615V5.49432H196.266Z" fill="#222222"/>
<path d="M198.463 8.36364L196.8 2.54546H198.142L199.104 6.58807H199.153L200.214 2.54546H201.363L202.422 6.5966H202.473L203.435 2.54546H204.777L203.114 8.36364H201.917L200.81 4.55966H200.764L199.66 8.36364H198.463Z" fill="#222222"/>
<path d="M206.913 8.44887C206.472 8.44887 206.091 8.35512 205.77 8.16762C205.45 7.97823 205.203 7.71497 205.029 7.37785C204.855 7.03883 204.768 6.64584 204.768 6.19887C204.768 5.74811 204.855 5.35417 205.029 5.01705C205.203 4.67804 205.45 4.41478 205.77 4.22728C206.091 4.03788 206.472 3.94319 206.913 3.94319C207.354 3.94319 207.734 4.03788 208.054 4.22728C208.376 4.41478 208.623 4.67804 208.797 5.01705C208.971 5.35417 209.059 5.74811 209.059 6.19887C209.059 6.64584 208.971 7.03883 208.797 7.37785C208.623 7.71497 208.376 7.97823 208.054 8.16762C207.734 8.35512 207.354 8.44887 206.913 8.44887ZM206.919 7.51137C207.119 7.51137 207.287 7.45455 207.421 7.34091C207.555 7.22538 207.657 7.06819 207.725 6.86932C207.795 6.67046 207.83 6.44413 207.83 6.19035C207.83 5.93656 207.795 5.71023 207.725 5.51137C207.657 5.31251 207.555 5.15531 207.421 5.03978C207.287 4.92425 207.119 4.86648 206.919 4.86648C206.716 4.86648 206.546 4.92425 206.408 5.03978C206.272 5.15531 206.169 5.31251 206.099 5.51137C206.031 5.71023 205.997 5.93656 205.997 6.19035C205.997 6.44413 206.031 6.67046 206.099 6.86932C206.169 7.06819 206.272 7.22538 206.408 7.34091C206.546 7.45455 206.716 7.51137 206.919 7.51137Z" fill="#222222"/>
<path d="M209.845 8.36364V4.00001H211.017V4.76137H211.062C211.141 4.49054 211.275 4.28599 211.462 4.14773C211.649 4.00758 211.865 3.93751 212.109 3.93751C212.17 3.93751 212.235 3.94129 212.305 3.94887C212.375 3.95645 212.436 3.96686 212.489 3.98012V5.05398C212.433 5.03694 212.354 5.02179 212.254 5.00853C212.154 4.99527 212.062 4.98864 211.979 4.98864C211.801 4.98864 211.642 5.02747 211.502 5.10512C211.364 5.18088 211.254 5.28694 211.173 5.4233C211.093 5.55966 211.053 5.71686 211.053 5.89489V8.36364H209.845Z" fill="#222222"/>
<path d="M214.21 7.10796L214.213 5.65626H214.389L215.785 4.00001H217.172L215.297 6.19319H215.01L214.21 7.10796ZM213.114 8.36364V2.54546H214.323V8.36364H213.114ZM215.839 8.36364L214.556 6.46307L215.362 5.60796L217.255 8.36364H215.839Z" fill="#222222"/>
<path d="M217.766 8.36364V4.00001H218.974V8.36364H217.766ZM218.373 3.43751C218.193 3.43751 218.039 3.37785 217.91 3.25853C217.784 3.13732 217.72 2.99243 217.72 2.82387C217.72 2.6572 217.784 2.51421 217.91 2.39489C218.039 2.27368 218.193 2.21307 218.373 2.21307C218.553 2.21307 218.706 2.27368 218.833 2.39489C218.961 2.51421 219.026 2.6572 219.026 2.82387C219.026 2.99243 218.961 3.13732 218.833 3.25853C218.706 3.37785 218.553 3.43751 218.373 3.43751Z" fill="#222222"/>
<path d="M221.152 5.84091V8.36364H219.943V4.00001H221.095V4.76989H221.146C221.243 4.5161 221.404 4.31535 221.631 4.16762C221.858 4.018 222.134 3.94319 222.457 3.94319C222.76 3.94319 223.024 4.00948 223.249 4.14205C223.474 4.27463 223.649 4.46402 223.774 4.71023C223.899 4.95455 223.961 5.24622 223.961 5.58523V8.36364H222.752V5.80114C222.754 5.5341 222.686 5.32576 222.548 5.17614C222.41 5.02463 222.22 4.94887 221.978 4.94887C221.815 4.94887 221.671 4.98391 221.546 5.05398C221.423 5.12406 221.327 5.22633 221.257 5.3608C221.189 5.49338 221.154 5.65341 221.152 5.84091Z" fill="#222222"/>
<path d="M226.878 10.0909C226.486 10.0909 226.15 10.0369 225.87 9.92898C225.592 9.82292 225.371 9.67804 225.206 9.49432C225.042 9.31061 224.935 9.10417 224.886 8.87501L226.004 8.72444C226.038 8.81156 226.092 8.893 226.165 8.96876C226.239 9.04451 226.337 9.10512 226.458 9.15057C226.581 9.19792 226.73 9.2216 226.906 9.2216C227.169 9.2216 227.386 9.1572 227.556 9.02841C227.728 8.90152 227.814 8.68845 227.814 8.38921V7.59091H227.763C227.71 7.71213 227.631 7.82671 227.525 7.93466C227.419 8.04262 227.283 8.13069 227.116 8.19887C226.95 8.26705 226.751 8.30114 226.52 8.30114C226.193 8.30114 225.895 8.22538 225.626 8.07387C225.359 7.92046 225.147 7.68656 224.988 7.37216C224.831 7.05588 224.752 6.65626 224.752 6.1733C224.752 5.67898 224.833 5.2661 224.993 4.93466C225.154 4.60323 225.368 4.35512 225.635 4.19035C225.903 4.02557 226.198 3.94319 226.517 3.94319C226.761 3.94319 226.966 3.98485 227.13 4.06819C227.295 4.14963 227.427 4.2519 227.528 4.37501C227.63 4.49622 227.708 4.61554 227.763 4.73296H227.808V4.00001H229.009V8.40626C229.009 8.77747 228.918 9.08807 228.736 9.33807C228.555 9.58807 228.303 9.77557 227.982 9.90057C227.662 10.0275 227.294 10.0909 226.878 10.0909ZM226.903 7.39205C227.098 7.39205 227.263 7.34376 227.397 7.24716C227.533 7.14868 227.637 7.00853 227.709 6.82671C227.783 6.643 227.82 6.4233 227.82 6.16762C227.82 5.91194 227.784 5.69035 227.712 5.50285C227.64 5.31345 227.536 5.16667 227.4 5.06251C227.264 4.95834 227.098 4.90626 226.903 4.90626C226.705 4.90626 226.537 4.96023 226.401 5.06819C226.265 5.17425 226.162 5.32198 226.092 5.51137C226.022 5.70076 225.987 5.91951 225.987 6.16762C225.987 6.41951 226.022 6.63732 226.092 6.82103C226.163 7.00285 226.267 7.14394 226.401 7.24432C226.537 7.34281 226.705 7.39205 226.903 7.39205Z" fill="#222222"/>
<path d="M166.314 14.2188C166.291 13.9896 166.194 13.8116 166.021 13.6847C165.849 13.5578 165.616 13.4943 165.32 13.4943C165.12 13.4943 164.951 13.5227 164.813 13.5796C164.674 13.6345 164.568 13.7112 164.495 13.8097C164.423 13.9081 164.387 14.0199 164.387 14.1449C164.383 14.2491 164.405 14.34 164.452 14.4176C164.501 14.4953 164.568 14.5625 164.654 14.6193C164.739 14.6742 164.837 14.7225 164.949 14.7642C165.06 14.804 165.18 14.8381 165.306 14.8665L165.828 14.9915C166.082 15.0483 166.315 15.1241 166.527 15.2188C166.738 15.3135 166.922 15.4299 167.077 15.5682C167.232 15.7064 167.352 15.8693 167.437 16.0568C167.524 16.2443 167.569 16.4593 167.571 16.7017C167.569 17.0578 167.478 17.3665 167.298 17.6278C167.121 17.8873 166.863 18.089 166.527 18.233C166.192 18.375 165.788 18.446 165.315 18.446C164.846 18.446 164.437 18.3741 164.089 18.2301C163.743 18.0862 163.472 17.8731 163.277 17.5909C163.084 17.3068 162.983 16.9555 162.974 16.5369H164.163C164.176 16.732 164.232 16.8949 164.33 17.0256C164.43 17.1544 164.564 17.2519 164.73 17.3182C164.899 17.3826 165.089 17.4148 165.301 17.4148C165.509 17.4148 165.689 17.3845 165.843 17.3239C165.998 17.2633 166.118 17.179 166.203 17.071C166.288 16.9631 166.331 16.839 166.331 16.6989C166.331 16.5682 166.292 16.4583 166.214 16.3693C166.139 16.2803 166.027 16.2046 165.88 16.1421C165.734 16.0796 165.555 16.0227 165.343 15.9716L164.71 15.8125C164.22 15.6932 163.833 15.5066 163.55 15.2528C163.266 14.9991 163.125 14.6572 163.127 14.2273C163.125 13.875 163.219 13.5672 163.408 13.304C163.599 13.0407 163.861 12.8352 164.194 12.6875C164.527 12.5398 164.905 12.4659 165.329 12.4659C165.76 12.4659 166.137 12.5398 166.458 12.6875C166.782 12.8352 167.034 13.0407 167.213 13.304C167.393 13.5672 167.486 13.8722 167.491 14.2188H166.314Z" fill="#222222"/>
<path d="M168.375 20V14H169.567V14.733H169.62C169.673 14.6155 169.75 14.4962 169.85 14.375C169.952 14.2519 170.085 14.1496 170.248 14.0682C170.412 13.9849 170.616 13.9432 170.861 13.9432C171.178 13.9432 171.472 14.0265 171.74 14.1932C172.009 14.358 172.224 14.607 172.384 14.9403C172.545 15.2718 172.626 15.6875 172.626 16.1875C172.626 16.6742 172.547 17.0852 172.39 17.4205C172.235 17.7538 172.023 18.0066 171.754 18.179C171.488 18.3494 171.189 18.4347 170.858 18.4347C170.623 18.4347 170.424 18.3958 170.259 18.3182C170.096 18.2405 169.963 18.143 169.859 18.0256C169.755 17.9063 169.675 17.786 169.62 17.6648H169.584V20H168.375ZM169.558 16.1818C169.558 16.4413 169.594 16.6676 169.666 16.8608C169.738 17.054 169.842 17.2046 169.978 17.3125C170.114 17.4186 170.28 17.4716 170.475 17.4716C170.671 17.4716 170.838 17.4176 170.974 17.3097C171.11 17.1998 171.213 17.0483 171.283 16.8551C171.355 16.66 171.391 16.4356 171.391 16.1818C171.391 15.9299 171.356 15.7083 171.286 15.5171C171.216 15.3258 171.113 15.1761 170.977 15.0682C170.841 14.9602 170.673 14.9063 170.475 14.9063C170.278 14.9063 170.111 14.9583 169.975 15.0625C169.841 15.1667 169.738 15.3144 169.666 15.5057C169.594 15.697 169.558 15.9224 169.558 16.1818Z" fill="#222222"/>
<path d="M174.675 18.446C174.396 18.446 174.149 18.3977 173.931 18.3011C173.713 18.2027 173.541 18.0578 173.415 17.8665C173.29 17.6733 173.227 17.4328 173.227 17.1449C173.227 16.9025 173.272 16.6989 173.361 16.5341C173.45 16.3693 173.571 16.2367 173.724 16.1364C173.877 16.036 174.051 15.9602 174.246 15.9091C174.443 15.858 174.649 15.822 174.865 15.8011C175.118 15.7746 175.322 15.75 175.478 15.7273C175.633 15.7027 175.745 15.6667 175.815 15.6193C175.885 15.572 175.92 15.5019 175.92 15.4091V15.3921C175.92 15.2121 175.864 15.0729 175.75 14.9744C175.638 14.876 175.48 14.8267 175.273 14.8267C175.056 14.8267 174.883 14.875 174.754 14.9716C174.625 15.0663 174.54 15.1856 174.499 15.3296L173.38 15.2386C173.437 14.9735 173.549 14.7443 173.715 14.5511C173.882 14.3561 174.097 14.2064 174.36 14.1023C174.624 13.9962 174.931 13.9432 175.279 13.9432C175.521 13.9432 175.753 13.9716 175.974 14.0284C176.197 14.0852 176.395 14.1733 176.567 14.2926C176.741 14.4119 176.879 14.5653 176.979 14.7528C177.079 14.9385 177.129 15.161 177.129 15.4205V18.3636H175.983V17.7585H175.949C175.879 17.8949 175.785 18.0152 175.668 18.1193C175.55 18.2216 175.41 18.3021 175.245 18.3608C175.08 18.4176 174.89 18.446 174.675 18.446ZM175.021 17.6108C175.199 17.6108 175.356 17.5758 175.492 17.5057C175.628 17.4337 175.735 17.3371 175.812 17.2159C175.89 17.0947 175.929 16.9574 175.929 16.804V16.3409C175.891 16.3655 175.839 16.3883 175.773 16.4091C175.708 16.428 175.636 16.446 175.554 16.4631C175.473 16.4782 175.392 16.4924 175.31 16.5057C175.229 16.5171 175.155 16.5275 175.089 16.5369C174.947 16.5578 174.823 16.5909 174.717 16.6364C174.611 16.6818 174.529 16.7434 174.47 16.821C174.412 16.8968 174.382 16.9915 174.382 17.1051C174.382 17.2699 174.442 17.3958 174.561 17.483C174.682 17.5682 174.835 17.6108 175.021 17.6108Z" fill="#222222"/>
<path d="M180.037 18.4489C179.59 18.4489 179.206 18.3542 178.884 18.1648C178.565 17.9735 178.319 17.7083 178.147 17.3693C177.976 17.0303 177.891 16.6402 177.891 16.1989C177.891 15.7519 177.977 15.3599 178.149 15.0227C178.323 14.6837 178.57 14.4195 178.89 14.2301C179.21 14.0388 179.59 13.9432 180.031 13.9432C180.411 13.9432 180.744 14.0123 181.03 14.1506C181.315 14.2888 181.541 14.483 181.708 14.733C181.874 14.983 181.966 15.2765 181.983 15.6136H180.842C180.81 15.3958 180.725 15.2206 180.587 15.0881C180.451 14.9536 180.272 14.8864 180.051 14.8864C179.863 14.8864 179.7 14.9375 179.56 15.0398C179.422 15.1402 179.314 15.2869 179.236 15.4801C179.159 15.6733 179.12 15.9072 179.12 16.1818C179.12 16.4602 179.158 16.697 179.233 16.8921C179.311 17.0871 179.42 17.2358 179.56 17.3381C179.7 17.4403 179.863 17.4915 180.051 17.4915C180.189 17.4915 180.313 17.4631 180.422 17.4063C180.534 17.3494 180.626 17.2671 180.698 17.1591C180.771 17.0492 180.82 16.9176 180.842 16.7642H181.983C181.964 17.0975 181.874 17.3911 181.711 17.6449C181.55 17.8968 181.328 18.0938 181.044 18.2358C180.76 18.3778 180.424 18.4489 180.037 18.4489Z" fill="#222222"/>
<path d="M184.744 18.4489C184.295 18.4489 183.909 18.358 183.586 18.1761C183.264 17.9924 183.016 17.733 182.842 17.3977C182.668 17.0606 182.581 16.6619 182.581 16.2017C182.581 15.7528 182.668 15.3589 182.842 15.0199C183.016 14.6809 183.261 14.4167 183.577 14.2273C183.895 14.0379 184.268 13.9432 184.695 13.9432C184.983 13.9432 185.251 13.9896 185.499 14.0824C185.748 14.1733 185.966 14.3106 186.151 14.4943C186.339 14.678 186.484 14.9091 186.588 15.1875C186.692 15.464 186.744 15.7879 186.744 16.1591V16.4915H183.064V15.7415H185.606C185.606 15.5672 185.569 15.4129 185.493 15.2784C185.417 15.1439 185.312 15.0388 185.178 14.9631C185.045 14.8854 184.891 14.8466 184.715 14.8466C184.532 14.8466 184.369 14.8892 184.227 14.9744C184.087 15.0578 183.977 15.1705 183.898 15.3125C183.819 15.4527 183.778 15.6089 183.776 15.7813V16.4943C183.776 16.7102 183.816 16.8968 183.895 17.054C183.977 17.2112 184.091 17.3324 184.239 17.4176C184.386 17.5028 184.561 17.5455 184.764 17.5455C184.898 17.5455 185.021 17.5265 185.132 17.4886C185.244 17.4508 185.34 17.3939 185.419 17.3182C185.499 17.2424 185.559 17.1496 185.601 17.0398L186.719 17.1136C186.662 17.3826 186.546 17.6174 186.37 17.8182C186.196 18.0171 185.971 18.1724 185.694 18.2841C185.42 18.3939 185.103 18.4489 184.744 18.4489Z" fill="#222222"/>
<path d="M189.371 18.3636V17.4773L191.44 15.5597C191.616 15.3892 191.764 15.2358 191.883 15.0994C192.004 14.9631 192.096 14.8296 192.158 14.6989C192.221 14.5663 192.252 14.4233 192.252 14.2699C192.252 14.0994 192.213 13.9527 192.135 13.8296C192.058 13.7046 191.952 13.6089 191.818 13.5426C191.683 13.4744 191.531 13.4403 191.361 13.4403C191.183 13.4403 191.028 13.4763 190.895 13.5483C190.763 13.6203 190.661 13.7235 190.589 13.858C190.517 13.9924 190.481 14.1525 190.481 14.3381H189.315C189.315 13.9574 189.401 13.6269 189.573 13.3466C189.745 13.0663 189.986 12.8494 190.297 12.696C190.607 12.5426 190.964 12.4659 191.369 12.4659C191.785 12.4659 192.148 12.5398 192.456 12.6875C192.766 12.8333 193.008 13.036 193.18 13.2955C193.352 13.5549 193.438 13.8523 193.438 14.1875C193.438 14.4072 193.394 14.6241 193.307 14.8381C193.222 15.0521 193.07 15.2898 192.851 15.5511C192.631 15.8106 192.322 16.1222 191.923 16.4858L191.074 17.3182V17.358H193.515V18.3636H189.371Z" fill="#222222"/>
<path d="M196.684 18.4915C196.196 18.4896 195.776 18.3693 195.424 18.1307C195.074 17.8921 194.804 17.5464 194.615 17.0938C194.428 16.6411 194.335 16.0966 194.337 15.4602C194.337 14.8258 194.43 14.285 194.618 13.8381C194.807 13.3911 195.077 13.0511 195.427 12.8182C195.778 12.5833 196.197 12.4659 196.684 12.4659C197.17 12.4659 197.588 12.5833 197.938 12.8182C198.29 13.053 198.56 13.3939 198.75 13.8409C198.939 14.286 199.032 14.8258 199.031 15.4602C199.031 16.0985 198.936 16.6439 198.747 17.0966C198.559 17.5492 198.291 17.8949 197.941 18.1335C197.591 18.3722 197.172 18.4915 196.684 18.4915ZM196.684 17.4716C197.017 17.4716 197.282 17.304 197.481 16.9688C197.68 16.6335 197.778 16.1307 197.776 15.4602C197.776 15.0189 197.731 14.6515 197.64 14.358C197.551 14.0644 197.424 13.8438 197.26 13.696C197.097 13.5483 196.905 13.4744 196.684 13.4744C196.353 13.4744 196.088 13.6402 195.889 13.9716C195.69 14.303 195.59 14.7992 195.588 15.4602C195.588 15.9072 195.633 16.2803 195.722 16.5796C195.812 16.8769 195.94 17.1004 196.105 17.25C196.269 17.3977 196.462 17.4716 196.684 17.4716Z" fill="#222222"/>
<path d="M199.907 18.3636V17.4773L201.975 15.5597C202.151 15.3892 202.299 15.2358 202.418 15.0994C202.539 14.9631 202.631 14.8296 202.693 14.6989C202.756 14.5663 202.787 14.4233 202.787 14.2699C202.787 14.0994 202.748 13.9527 202.671 13.8296C202.593 13.7046 202.487 13.6089 202.353 13.5426C202.219 13.4744 202.066 13.4403 201.896 13.4403C201.718 13.4403 201.563 13.4763 201.431 13.5483C201.298 13.6203 201.196 13.7235 201.124 13.858C201.052 13.9924 201.016 14.1525 201.016 14.3381H199.85C199.85 13.9574 199.936 13.6269 200.108 13.3466C200.28 13.0663 200.522 12.8494 200.832 12.696C201.142 12.5426 201.5 12.4659 201.904 12.4659C202.321 12.4659 202.683 12.5398 202.991 12.6875C203.302 12.8333 203.543 13.036 203.715 13.2955C203.887 13.5549 203.973 13.8523 203.973 14.1875C203.973 14.4072 203.93 14.6241 203.843 14.8381C203.758 15.0521 203.605 15.2898 203.386 15.5511C203.166 15.8106 202.857 16.1222 202.458 16.4858L201.609 17.3182V17.358H204.05V18.3636H199.907Z" fill="#222222"/>
<path d="M207.088 18.4432C206.665 18.4432 206.287 18.3703 205.956 18.2244C205.627 18.0767 205.367 17.8741 205.176 17.6165C204.987 17.357 204.889 17.0578 204.883 16.7188H206.121C206.128 16.8608 206.175 16.9858 206.26 17.0938C206.347 17.1998 206.462 17.2822 206.606 17.3409C206.75 17.3996 206.911 17.429 207.091 17.429C207.279 17.429 207.444 17.3958 207.588 17.3296C207.732 17.2633 207.844 17.1714 207.926 17.054C208.007 16.9366 208.048 16.8011 208.048 16.6477C208.048 16.4924 208.004 16.3551 207.917 16.2358C207.832 16.1146 207.709 16.0199 207.548 15.9517C207.389 15.8835 207.2 15.8494 206.981 15.8494H206.439V14.946H206.981C207.166 14.946 207.33 14.9138 207.471 14.8494C207.615 14.785 207.727 14.696 207.806 14.5824C207.886 14.4669 207.926 14.3324 207.926 14.179C207.926 14.0332 207.891 13.9053 207.821 13.7955C207.752 13.6837 207.656 13.5966 207.531 13.5341C207.408 13.4716 207.264 13.4403 207.1 13.4403C206.933 13.4403 206.781 13.4706 206.643 13.5313C206.505 13.59 206.394 13.6742 206.311 13.7841C206.228 13.8939 206.183 14.0227 206.177 14.1705H205C205.005 13.8352 205.101 13.5398 205.286 13.2841C205.472 13.0284 205.722 12.8286 206.036 12.6847C206.352 12.5388 206.708 12.4659 207.105 12.4659C207.506 12.4659 207.857 12.5388 208.158 12.6847C208.459 12.8305 208.693 13.0275 208.859 13.2756C209.028 13.5218 209.111 13.7983 209.109 14.1051C209.111 14.4309 209.01 14.7027 208.805 14.9205C208.603 15.1383 208.339 15.2765 208.014 15.3352V15.3807C208.441 15.4356 208.766 15.5843 208.99 15.8267C209.215 16.0672 209.326 16.3684 209.325 16.7301C209.326 17.0616 209.231 17.3561 209.038 17.6136C208.847 17.8712 208.583 18.0739 208.246 18.2216C207.909 18.3693 207.524 18.4432 207.088 18.4432Z" fill="#222222"/>
<defs>
<clipPath id="clip0_1_1207">
<rect width="23.9736" height="20" fill="white" transform="translate(131)"/>
</clipPath>
</defs>
</svg>
