<svg width="120" height="120" viewBox="0 0 120 120" fill="none" xmlns="http://www.w3.org/2000/svg">
<g id="Vector">
<path fill-rule="evenodd" clip-rule="evenodd" d="M60.0453 25.7356C78.7152 25.7356 93.8518 41.0306 93.8518 59.8979C93.8518 78.7652 78.7152 94.0602 60.0453 94.0602C41.3747 94.0602 26.2392 78.7652 26.2392 59.8979C26.2392 41.0306 41.3747 25.7356 60.0453 25.7356ZM58.8233 28.292C54.9666 28.8405 51.2942 31.9721 48.4435 37.2097C47.6166 38.729 46.8705 40.4074 46.2204 42.2197C50.0966 41.2354 54.3547 40.655 58.8233 40.5653V28.292ZM43.3632 43.0402C44.1718 40.4759 45.1608 38.1167 46.3022 36.0196C47.7153 33.4232 49.3925 31.181 51.282 29.4589C41.0069 32.4745 32.9078 40.6591 29.9236 51.0425C31.6277 49.133 33.8464 47.4382 36.4158 46.0103C38.4912 44.8568 40.8257 43.8572 43.3632 43.0402ZM42.5513 45.9274C41.5772 49.8445 41.003 54.1474 40.9141 58.6631H28.7687C29.3115 54.7657 32.4105 51.0547 37.5936 48.1741C39.097 47.3385 40.7579 46.5845 42.5513 45.9274ZM43.3584 58.6631C43.4593 53.735 44.1615 49.1084 45.3231 45.0206C49.3683 43.8468 53.9466 43.1372 58.8233 43.0352V48.3695C57.0041 53.076 53.2935 56.8254 48.6359 58.6631H43.3584ZM40.9141 61.1327H28.7687C29.3115 65.0301 32.4105 68.741 37.5936 71.6217C39.097 72.4573 40.7579 73.2113 42.5513 73.8684C41.5772 69.9513 41.003 65.6484 40.9141 61.1327ZM45.3231 74.7752C44.1615 70.6874 43.4593 66.0608 43.3584 61.1327H48.6359C53.2935 62.9705 57.0041 66.7198 58.8233 71.4263V76.7606C53.9466 76.6586 49.3683 75.949 45.3231 74.7752ZM43.3632 76.7556C40.8257 75.9386 38.4912 74.939 36.4158 73.7855C33.8464 72.3576 31.6277 70.6628 29.9236 68.7533C32.9078 79.1367 41.0069 87.3213 51.282 90.3368C49.3925 88.6147 47.7153 86.3726 46.3022 83.7761C45.1608 81.6791 44.1718 79.3198 43.3632 76.7556ZM58.8233 91.5038C54.9666 90.9553 51.2942 87.8237 48.4435 82.5861C47.6166 81.0669 46.8705 79.3883 46.2204 77.5762C50.0966 78.5604 54.3547 79.1408 58.8233 79.2305V91.5038ZM68.8083 90.3368C70.6979 88.6147 72.3748 86.3726 73.7879 83.7761C74.9289 81.6791 75.9194 79.3198 76.7274 76.7556C79.2645 75.9386 81.5988 74.939 83.6745 73.7855C86.2438 72.3576 88.4631 70.6628 90.1669 68.7533C87.1819 79.1367 79.0836 87.3213 68.8083 90.3368ZM73.8707 77.5762C73.22 79.3883 72.4729 81.0669 71.6463 82.5861C68.7961 87.8237 65.1238 90.9553 61.267 91.5038V79.2305C65.7357 79.1408 69.9937 78.5604 73.8707 77.5762ZM77.5387 73.8684C79.3321 73.2113 80.9937 72.4573 82.4964 71.6217C87.6805 68.7411 90.7788 65.0301 91.3214 61.1327H79.1766C79.087 65.6484 78.5123 69.9513 77.5387 73.8684ZM76.7324 61.1327C76.631 66.0608 75.9295 70.6874 74.7666 74.7752C70.722 75.949 66.1437 76.6586 61.267 76.7606V71.4302C63.0858 66.722 66.7972 62.971 71.456 61.1327H76.7324ZM79.1766 58.6631H91.3214C90.7788 54.7657 87.6805 51.0547 82.4964 48.1741C80.9937 47.3385 79.3321 46.5845 77.5387 45.9274C78.5123 49.8445 79.087 54.1474 79.1766 58.6631ZM74.7666 45.0206C75.9295 49.1084 76.631 53.735 76.7324 58.6631H71.4562C66.7972 56.8248 63.0858 53.0738 61.267 48.3656V43.0352C66.1437 43.1372 70.722 43.8468 74.7666 45.0206ZM76.7274 43.0402C79.2645 43.8572 81.5988 44.8568 83.6745 46.0103C86.2438 47.4382 88.4631 49.133 90.1669 51.0425C87.1819 40.6591 79.0836 32.4745 68.8083 29.4589C70.6979 31.181 72.3748 33.4232 73.7879 36.0196C74.9289 38.1167 75.9194 40.4759 76.7274 43.0402ZM61.267 28.292C65.1238 28.8405 68.7961 31.9721 71.6463 37.2097C72.4729 38.729 73.22 40.4074 73.8707 42.2197C69.9937 41.2354 65.7357 40.655 61.267 40.5653V28.292Z" fill="white"/>
<path d="M46.3951 112.359L46.3574 120L45.0456 119.553L45.1069 112.653L45.7579 112.875L41.5963 118.379L40.4303 117.982L40.4721 111.075L41.1037 111.29L36.9712 116.804L35.7664 116.394L40.3126 110.288L41.6535 110.745L41.6397 116.983L41.2899 116.864L45.0445 111.899L46.3951 112.359Z" fill="white"/>
<path d="M31.273 105.333C31.742 105.643 32.1233 106.007 32.4169 106.424C32.7105 106.841 32.9134 107.284 33.0254 107.755C33.1337 108.231 33.1463 108.71 33.0631 109.191C32.9762 109.679 32.7868 110.148 32.4949 110.599C32.2029 111.049 31.8552 111.41 31.4518 111.679C31.0446 111.955 30.6053 112.135 30.134 112.22C29.6588 112.31 29.1734 112.303 28.6777 112.198C28.182 112.093 27.7025 111.887 27.2392 111.581C26.7702 111.271 26.3917 110.909 26.1039 110.496C25.8103 110.079 25.6093 109.632 25.501 109.156C25.389 108.686 25.3764 108.207 25.4633 107.719C25.5464 107.238 25.734 106.772 26.0259 106.321C26.3179 105.87 26.6674 105.507 27.0746 105.231C27.4818 104.956 27.9211 104.775 28.3924 104.691C28.8638 104.606 29.3474 104.617 29.8431 104.722C30.3331 104.823 30.8097 105.026 31.273 105.333ZM30.6416 106.327C30.3384 106.126 30.0245 105.993 29.6997 105.927C29.3749 105.861 29.0564 105.861 28.7442 105.927C28.4281 105.998 28.1363 106.127 27.8687 106.313C27.5916 106.502 27.352 106.752 27.1498 107.064C26.9477 107.376 26.8186 107.695 26.7626 108.021C26.6971 108.35 26.697 108.671 26.7623 108.987C26.8237 109.308 26.9495 109.606 27.1395 109.88C27.3295 110.155 27.5761 110.392 27.8792 110.592C28.1824 110.793 28.4963 110.926 28.8211 110.992C29.1401 111.055 29.4605 111.052 29.7823 110.984C30.0945 110.918 30.3892 110.791 30.6663 110.603C30.934 110.417 31.1688 110.167 31.371 109.855C31.5693 109.549 31.7013 109.232 31.7667 108.904C31.8265 108.572 31.8256 108.245 31.7642 107.924C31.6989 107.608 31.5713 107.313 31.3813 107.039C31.1913 106.765 30.9447 106.527 30.6416 106.327Z" fill="white"/>
<path d="M24.4143 100.215L19.3033 105.307L17.2301 103.182C16.7838 102.724 16.4753 102.261 16.3046 101.79C16.1291 101.315 16.0912 100.853 16.191 100.405C16.2908 99.9562 16.5282 99.5451 16.903 99.1717C17.2778 98.7983 17.6878 98.5643 18.1332 98.4698C18.5737 98.3802 19.0277 98.4274 19.4953 98.6114C19.9532 98.7954 20.4053 99.1162 20.8516 99.5736L22.4065 101.167L21.5582 101.169L23.4785 99.2554L24.4143 100.215ZM21.1173 96.8353L20.5369 99.989L19.5363 98.9634L20.1095 95.8024L21.1173 96.8353ZM21.6604 101.067L21.6253 101.946L20.1135 100.396C19.7008 99.9732 19.3012 99.7457 18.9148 99.7136C18.5235 99.6766 18.1672 99.8182 17.846 100.138C17.5199 100.463 17.3748 100.821 17.4107 101.212C17.4418 101.598 17.6637 102.003 18.0765 102.426L19.5882 103.975L18.7034 104.013L21.6604 101.067Z" fill="white"/>
<path d="M15.2433 92.1536L13.9592 93.085L8.63223 92.0522L7.81544 90.7845L12.3058 91.6012L13.3874 91.7797L15.2433 92.1536ZM17.31 92.228L11.2952 96.1854L10.5679 95.0566L16.5827 91.0992L17.31 92.228ZM14.5799 87.9907L13.3382 92.1212L12.0408 91.9115L13.7296 86.6709L14.5799 87.9907Z" fill="white"/>
<path d="M11.2066 80.8296C11.4155 81.3552 11.5425 81.888 11.5876 82.4279C11.6264 82.9705 11.5845 83.4304 11.4619 83.8076L10.329 83.7649C10.4313 83.4108 10.4733 83.0067 10.4549 82.5526C10.4365 82.0986 10.3446 81.6632 10.179 81.2466C10.0389 80.894 9.88748 80.6242 9.72475 80.4372C9.56203 80.2501 9.39685 80.1311 9.22923 80.08C9.05527 80.0315 8.88583 80.0407 8.7209 80.1076C8.51792 80.19 8.38546 80.3294 8.32353 80.5257C8.25526 80.7246 8.23335 80.9568 8.25783 81.2223C8.27341 81.4839 8.3068 81.7719 8.358 82.086C8.40665 82.3938 8.44706 82.7087 8.47922 83.0306C8.5025 83.3487 8.49466 83.6533 8.4557 83.9445C8.40785 84.2319 8.29904 84.4957 8.12928 84.7358C7.95951 84.9759 7.69702 85.168 7.3418 85.3121C6.98024 85.4589 6.61218 85.4966 6.23764 85.4252C5.8542 85.3501 5.49471 85.1498 5.15917 84.8245C4.81473 84.4953 4.52025 84.0231 4.27571 83.4077C4.11523 83.0039 4.00677 82.5827 3.95033 82.1441C3.89389 81.7054 3.90223 81.3001 3.97535 80.928L5.093 80.9323C5.03511 81.3056 5.02862 81.6693 5.07352 82.0232C5.11208 82.3798 5.18995 82.7055 5.30713 83.0003C5.44468 83.3465 5.59799 83.6118 5.76706 83.7962C5.93358 83.9743 6.10382 84.0876 6.27779 84.1361C6.4492 84.1782 6.62055 84.1645 6.79181 84.095C6.99479 84.0126 7.1317 83.8752 7.20252 83.6827C7.26445 83.4863 7.28446 83.2586 7.26253 82.9995C7.23805 82.7341 7.20339 82.4429 7.15854 82.1262C7.10734 81.812 7.06693 81.4971 7.03731 81.1816C7.00515 80.8597 7.00982 80.5564 7.05132 80.2715C7.09028 79.9803 7.19591 79.7179 7.36823 79.4842C7.538 79.2441 7.79732 79.0532 8.14619 78.9117C8.50141 78.7675 8.87074 78.733 9.25418 78.8082C9.62873 78.8795 9.98822 79.0797 10.3326 79.4089C10.6707 79.7407 10.962 80.2142 11.2066 80.8296Z" fill="white"/>
<path d="M8.63255 73.4234L1.57982 74.7689L1.03199 71.8367C0.914058 71.2054 0.913995 70.6466 1.03181 70.1601C1.14835 69.6669 1.37187 69.2623 1.70236 68.9461C2.03285 68.63 2.4567 68.4226 2.9739 68.324C3.4911 68.2253 3.9606 68.2622 4.38239 68.4348C4.80419 68.6074 5.15833 68.9019 5.4448 69.3182C5.73 69.7278 5.93157 70.2481 6.04951 70.8794L6.46038 73.0786L5.73546 72.6053L8.38527 72.0998L8.63255 73.4234ZM5.87651 72.5784L5.35209 73.29L4.95263 71.1519C4.84357 70.5682 4.64088 70.1535 4.34454 69.9077C4.04022 69.6565 3.6664 69.5732 3.22308 69.6577C2.77305 69.7436 2.45503 69.9589 2.26902 70.3037C2.08174 70.6417 2.04263 71.1026 2.15169 71.6863L2.55115 73.8244L1.796 73.3569L5.87651 72.5784Z" fill="white"/>
<path d="M7.12946 63.8159L0 60.4467L0.0191388 59.1206L7.24295 55.9525L7.22261 57.3615L0.712936 60.0738L0.720711 59.535L7.14949 62.4276L7.12946 63.8159ZM5.49028 62.2892L4.44979 61.9112L4.5063 57.995L5.55726 57.6478L5.49028 62.2892Z" fill="white"/>
<path d="M8.60044 48.8141C8.48336 49.3539 8.28753 49.8374 8.01295 50.2645C7.73315 50.6834 7.39568 51.0294 7.00055 51.3025C6.6002 51.5674 6.1592 51.7455 5.67753 51.8368C5.19587 51.9282 4.69464 51.9162 4.17383 51.8008C3.65302 51.6854 3.19276 51.4845 2.79305 51.198C2.39334 50.9114 2.07056 50.5606 1.8247 50.1455C1.57216 49.7289 1.40884 49.272 1.33476 48.7747C1.25399 48.276 1.27288 47.7534 1.39142 47.2068C1.51728 46.6265 1.73232 46.1191 2.03653 45.6844C2.33407 45.2482 2.71233 44.9077 3.17131 44.6628L3.77815 45.6883C3.44878 45.884 3.18293 46.1257 2.9806 46.4132C2.7716 46.6993 2.62686 47.0279 2.54637 47.399C2.46588 47.7701 2.45206 48.1241 2.50493 48.4611C2.55926 48.7914 2.67172 49.0956 2.84231 49.3738C3.01435 49.6453 3.23671 49.8784 3.50937 50.0732C3.78349 50.2612 4.10084 50.3951 4.4614 50.4749C4.82196 50.5548 5.16564 50.5673 5.49245 50.5124C5.82072 50.4507 6.11918 50.333 6.38782 50.1591C6.65792 49.9785 6.88599 49.7497 7.07203 49.4727C7.25954 49.1889 7.39354 48.8615 7.47403 48.4904C7.55452 48.1193 7.56238 47.7604 7.49763 47.4137C7.42619 47.0655 7.27806 46.7322 7.05324 46.4136L8.03888 45.7409C8.34776 46.1559 8.5504 46.625 8.64681 47.1485C8.74321 47.6719 8.72776 48.2271 8.60044 48.8141Z" fill="white"/>
<path d="M7.20553 38.8647L8.63121 35.5593L9.63694 36.0023L8.21126 39.3077L7.20553 38.8647ZM10.0663 40.0117L11.6845 36.2599L12.709 36.7112L10.5582 41.6977L3.97872 38.7998L6.07218 33.9462L7.0967 34.3974L5.53583 38.0163L10.0663 40.0117Z" fill="white"/>
<path d="M19.5604 26.1421L12.7389 22.8459L13.6985 21.8379L19.8473 24.8394L19.371 25.3397L16.2221 19.1872L17.0751 18.2911L23.2381 21.2777L22.776 21.7631L19.6058 15.633L20.4873 14.7071L24.0104 21.4678L23.0294 22.4983L17.4525 19.8226L17.7084 19.5538L20.5485 25.1042L19.5604 26.1421Z" fill="white"/>
<path d="M32.3035 15.3224C31.8258 15.6186 31.3376 15.8118 30.8391 15.9021C30.3405 15.9923 29.8569 15.9883 29.3882 15.8899C28.9159 15.7856 28.482 15.5927 28.0865 15.3111C27.6874 15.0237 27.3485 14.6503 27.0697 14.1911C26.7909 13.7319 26.6168 13.2603 26.5476 12.7765C26.4748 12.2867 26.5012 11.8084 26.6268 11.3416C26.7488 10.8689 26.9626 10.4284 27.2681 10.0202C27.5736 9.61199 27.9623 9.26159 28.4342 8.969C28.912 8.6728 29.3972 8.48137 29.8899 8.39471C30.3885 8.30443 30.8739 8.31144 31.3462 8.41571C31.8149 8.5141 32.2488 8.70702 32.6479 8.99447C33.0434 9.27604 33.3805 9.64644 33.6593 10.1057C33.9382 10.5649 34.114 11.0394 34.1867 11.5292C34.2595 12.0189 34.2331 12.4972 34.1076 12.964C33.982 13.4308 33.7665 13.8684 33.4609 14.2766C33.1613 14.6812 32.7755 15.0298 32.3035 15.3224ZM31.6835 14.321C31.9923 14.1295 32.2456 13.8995 32.4435 13.631C32.6413 13.3625 32.7774 13.0715 32.8517 12.758C32.9225 12.4386 32.9316 12.1168 32.8792 11.7928C32.8291 11.4592 32.7075 11.1334 32.5145 10.8155C32.3214 10.4975 32.0909 10.2434 31.8229 10.0529C31.5572 9.853 31.2692 9.71549 30.959 9.6404C30.6452 9.55942 30.325 9.54721 29.9985 9.60378C29.672 9.66035 29.3543 9.78436 29.0455 9.97581C28.7367 10.1673 28.4834 10.3972 28.2855 10.6658C28.0935 10.9307 27.9592 11.2246 27.8826 11.5476C27.8083 11.8611 27.7963 12.1847 27.8464 12.5183C27.8988 12.8423 28.0215 13.1634 28.2146 13.4813C28.404 13.7933 28.6316 14.0493 28.8973 14.2493C29.1689 14.4456 29.4616 14.5842 29.7754 14.6652C30.0856 14.7403 30.404 14.7496 30.7305 14.693C31.0571 14.6364 31.3747 14.5124 31.6835 14.321Z" fill="white"/>
<path d="M39.8116 11.2397L37.4365 4.39544L40.2231 3.40796C40.823 3.19538 41.3697 3.11143 41.8633 3.15612C42.3633 3.19851 42.7928 3.36108 43.1517 3.64382C43.5106 3.92656 43.7771 4.31888 43.9513 4.82079C44.1255 5.32271 44.1598 5.79732 44.0542 6.24464C43.9464 6.68544 43.7104 7.08019 43.3461 7.42889C42.9859 7.76878 42.5059 8.04502 41.906 8.25761L39.8161 8.99822L40.1771 8.22248L41.0695 10.794L39.8116 11.2397ZM44.2431 9.66933L41.6686 7.79273L43.0136 7.31614L45.5976 9.18931L44.2431 9.66933ZM40.2246 8.35936L39.453 7.95202L41.4849 7.23199C42.0396 7.0354 42.4139 6.76738 42.6075 6.42791C42.8077 6.08615 42.8331 5.70017 42.6838 5.26996C42.5322 4.83323 42.2738 4.54783 41.9086 4.41374C41.5498 4.27737 41.093 4.30748 40.5383 4.50406L38.5064 5.2241L38.8504 4.39947L40.2246 8.35936Z" fill="white"/>
<path d="M50.94 6.30001L50.6546 4.72896L53.8528 0.301904L55.3359 0.0966619L52.6883 3.85143L52.0668 4.76362L50.94 6.30001ZM49.9911 8.15688L49.0173 0.971048L50.3379 0.788298L51.3117 7.97413L49.9911 8.15688ZM54.9485 7.47086L51.7822 4.57292L52.5237 3.47681L56.4926 7.25719L54.9485 7.47086Z" fill="white"/>
<path d="M62.7969 7.445C62.2373 7.41151 61.7063 7.30014 61.2039 7.11091C60.7018 6.91478 60.3081 6.68017 60.0228 6.40706L60.5447 5.38998C60.8179 5.63469 61.1616 5.84555 61.5758 6.02258C61.99 6.1996 62.4188 6.30139 62.8624 6.32794C63.2377 6.35041 63.5437 6.32722 63.7806 6.25836C64.0174 6.1895 64.1945 6.08939 64.3118 5.95801C64.4294 5.81975 64.4935 5.66097 64.504 5.48169C64.517 5.26104 64.4488 5.08051 64.2995 4.9401C64.1507 4.79279 63.9522 4.67366 63.7042 4.5827C63.4634 4.48525 63.1915 4.39285 62.8885 4.30552C62.5923 4.21859 62.2933 4.12111 61.9915 4.01309C61.6969 3.89858 61.4276 3.76137 61.1836 3.60145C60.9469 3.43504 60.7573 3.22303 60.6149 2.96539C60.4725 2.70776 60.4126 2.38588 60.4353 1.99973C60.4583 1.60669 60.5817 1.25426 60.8054 0.942428C61.0363 0.62411 61.369 0.381079 61.8034 0.213333C62.245 0.0391006 62.7933 -0.028408 63.4484 0.010807C63.8783 0.0365419 64.3015 0.117236 64.7181 0.25289C65.1347 0.388543 65.4939 0.569196 65.7956 0.79485L65.3147 1.81438C65.0053 1.60211 64.6827 1.44095 64.3468 1.33088C64.0112 1.21392 63.6865 1.14604 63.3727 1.12725C63.0042 1.10519 62.7013 1.13204 62.4641 1.20779C62.2336 1.28395 62.0596 1.39117 61.9419 1.52944C61.8311 1.66811 61.7702 1.83054 61.7593 2.01672C61.7463 2.23737 61.8109 2.42114 61.9529 2.56804C62.1022 2.70845 62.2974 2.82393 62.5386 2.91449C62.7867 3.00545 63.062 3.09805 63.3646 3.19228C63.6676 3.27962 63.9666 3.37709 64.2616 3.4847C64.5634 3.59273 64.8329 3.72649 65.07 3.886C65.314 4.04592 65.5038 4.25449 65.6394 4.51171C65.7818 4.76934 65.8418 5.08778 65.8196 5.46703C65.797 5.85318 65.6702 6.20541 65.4392 6.52372C65.2155 6.83556 64.8829 7.07859 64.4413 7.25282C64.0001 7.42016 63.4519 7.48422 62.7969 7.445Z" fill="white"/>
<path d="M70.5236 8.25422L72.3302 1.23484L75.1881 1.98593C75.8033 2.14762 76.3034 2.38612 76.6884 2.70142C77.08 3.01846 77.3468 3.39546 77.4886 3.83242C77.6304 4.26938 77.635 4.74524 77.5026 5.25999C77.3701 5.77475 77.1366 6.18801 76.8021 6.49979C76.4676 6.81156 76.0529 7.00949 75.5581 7.09355C75.0698 7.17935 74.5181 7.14141 73.9028 6.97972L71.7594 6.4164L72.4924 5.95597L71.8137 8.59326L70.5236 8.25422ZM72.4563 6.09636L72.0433 5.31335L74.1272 5.86102C74.6961 6.01055 75.1538 6.00236 75.5002 5.83645C75.8549 5.6656 76.0891 5.35957 76.2026 4.91835C76.3179 4.47045 76.261 4.08791 76.0318 3.77075C75.8093 3.45532 75.4136 3.22285 74.8446 3.07332L72.7608 2.52566L73.5015 2.03514L72.4563 6.09636Z" fill="white"/>
<path d="M79.7627 10.9821L85.8212 5.90519L86.9997 6.48877L86.7511 14.4425L85.4989 13.8224L85.8506 6.71588L86.3293 6.95296L80.9965 11.593L79.7627 10.9821ZM81.8287 10.1358L82.6111 9.34638L86.0915 11.0697L85.9536 12.1784L81.8287 10.1358Z" fill="white"/>
<path d="M92.5599 18.7301C92.1268 18.3927 91.7778 18.0074 91.5128 17.5741C91.2573 17.1396 91.0918 16.6835 91.016 16.2059C90.9499 15.7269 90.9787 15.2479 91.1026 14.7687C91.2265 14.2896 91.4512 13.8367 91.7768 13.41C92.1023 12.9833 92.4786 12.6485 92.9057 12.4055C93.3327 12.1626 93.7844 12.0174 94.2608 11.9699C94.7414 11.9169 95.2201 11.9628 95.6967 12.1073C96.1775 12.2464 96.6371 12.4868 97.0756 12.8284C97.5412 13.1911 97.9035 13.6043 98.1627 14.0679C98.426 14.5259 98.5692 15.017 98.5924 15.5409L97.4157 15.6577C97.3811 15.2732 97.2784 14.9271 97.1074 14.6194C96.9406 14.3063 96.7084 14.0338 96.4106 13.8018C96.1129 13.5698 95.8019 13.4061 95.4778 13.3105C95.1591 13.2192 94.8388 13.1921 94.517 13.2292C94.2007 13.2706 93.8971 13.3743 93.6065 13.5403C93.3212 13.7105 93.0659 13.9434 92.8405 14.2388C92.6151 14.5342 92.4572 14.8429 92.3669 15.165C92.2819 15.4913 92.2599 15.8143 92.3008 16.134C92.3471 16.4579 92.4545 16.764 92.623 17.0523C92.7969 17.3448 93.0327 17.607 93.3304 17.839C93.6282 18.0709 93.946 18.2313 94.2839 18.3202C94.626 18.4035 94.9875 18.4104 95.3685 18.341L95.5497 19.5288C95.0466 19.634 94.5402 19.6189 94.0307 19.4835C93.5211 19.3482 93.0308 19.0971 92.5599 18.7301Z" fill="white"/>
<path d="M102.059 21.7025L104.408 24.4164L103.582 25.1463L101.233 22.4325L102.059 21.7025ZM99.8111 23.8271L102.478 26.9075L101.637 27.6511L98.0923 23.557L103.494 18.7815L106.944 22.7664L106.103 23.5101L103.531 20.5389L99.8111 23.8271Z" fill="white"/>
<path d="M108.17 38.4238L114.032 33.5972L114.524 34.9044L109.213 39.2421L108.969 38.5933L115.819 38.3421L116.257 39.5041L110.953 43.8611L110.716 43.2317L117.555 42.9515L118.008 44.1522L110.453 44.4857L109.95 43.1494L114.725 39.1952L114.856 39.5438L108.677 39.7698L108.17 38.4238Z" fill="white"/>
<path d="M112.413 54.6876C112.352 54.1246 112.387 53.596 112.519 53.1019C112.651 52.6078 112.861 52.1676 113.149 51.7812C113.444 51.3941 113.802 51.08 114.223 50.8388C114.65 50.5968 115.129 50.4464 115.659 50.3877C116.189 50.3289 116.686 50.3712 117.148 50.5145C117.617 50.6571 118.034 50.8854 118.398 51.1994C118.769 51.5127 119.072 51.896 119.307 52.3495C119.542 52.8029 119.69 53.3077 119.75 53.8639C119.811 54.4269 119.775 54.9521 119.642 55.4393C119.51 55.9334 119.297 56.374 119.002 56.7611C118.714 57.1474 118.356 57.4616 117.928 57.7036C117.508 57.9448 117.032 58.0948 116.502 58.1535C115.972 58.2123 115.473 58.1704 115.003 58.0278C114.534 57.8853 114.117 57.657 113.753 57.343C113.389 57.0289 113.089 56.6452 112.854 56.1918C112.62 55.7452 112.473 55.2438 112.413 54.6876ZM113.573 54.5485C113.613 54.9125 113.711 55.2421 113.866 55.5376C114.022 55.833 114.225 56.0816 114.473 56.2833C114.729 56.4843 115.013 56.63 115.326 56.7204C115.645 56.817 115.989 56.845 116.356 56.8043C116.723 56.7636 117.049 56.6615 117.333 56.4979C117.626 56.3404 117.872 56.1359 118.071 55.8845C118.278 55.6323 118.425 55.3449 118.514 55.0224C118.603 54.6998 118.628 54.3566 118.588 53.9927C118.549 53.6288 118.451 53.2991 118.295 53.0037C118.14 52.7151 117.934 52.4669 117.678 52.2591C117.429 52.0573 117.145 51.9082 116.825 51.8116C116.512 51.7211 116.173 51.6963 115.806 51.7369C115.446 51.7769 115.119 51.8756 114.827 52.033C114.535 52.1974 114.286 52.4057 114.08 52.6579C113.88 52.9093 113.736 53.1963 113.647 53.5189C113.559 53.8414 113.534 54.1846 113.573 54.5485Z" fill="white"/>
<path d="M112.861 63.2915L120 64.0427L119.694 67.0107C119.628 67.6497 119.47 68.1851 119.219 68.6171C118.968 69.056 118.639 69.379 118.233 69.5863C117.827 69.7936 117.362 69.8696 116.838 69.8146C116.315 69.7595 115.875 69.5882 115.52 69.3008C115.172 69.0141 114.919 68.6299 114.763 68.1481C114.612 67.674 114.57 67.1174 114.636 66.4784L114.865 64.2524L115.405 64.9135L112.723 64.6312L112.861 63.2915ZM112.375 68.0115L115.153 66.46L115.006 67.8924L112.226 69.4542L112.375 68.0115ZM115.263 64.8985L115.956 64.3673L115.733 66.5314C115.673 67.1223 115.753 67.5787 115.974 67.9006C116.194 68.2293 116.529 68.4173 116.977 68.4645C117.433 68.5125 117.799 68.3982 118.075 68.1216C118.35 67.852 118.518 67.4217 118.579 66.8308L118.802 64.6667L119.393 65.3331L115.263 64.8985Z" fill="white"/>
<path d="M112.531 75.5697L114.059 75.9796L116.655 80.792L116.206 82.2349L113.976 78.2126L113.425 77.2553L112.531 75.5697ZM111.274 73.9099L118.121 76.0875L117.72 77.3724L110.874 75.1948L111.274 73.9099ZM109.772 78.733L113.717 77.0766L114.381 78.2221L109.304 80.2352L109.772 78.733Z" fill="white"/>
<path d="M106.445 85.9162C106.714 85.4192 107.04 84.9815 107.424 84.6031C107.814 84.228 108.192 83.9684 108.558 83.8243L109.245 84.7353C108.91 84.8806 108.574 85.1046 108.239 85.4076C107.904 85.7105 107.63 86.0589 107.417 86.4529C107.236 86.7863 107.126 87.0759 107.087 87.3217C107.048 87.5675 107.062 87.7721 107.129 87.9353C107.203 88.1019 107.317 88.2282 107.473 88.3143C107.665 88.4203 107.856 88.4351 108.045 88.3587C108.241 88.2855 108.432 88.155 108.619 87.9672C108.809 87.7888 109.008 87.5797 109.215 87.3401C109.42 87.1065 109.634 86.8749 109.86 86.6452C110.088 86.4249 110.326 86.2374 110.573 86.0827C110.823 85.9374 111.094 85.8547 111.385 85.8345C111.677 85.8144 111.99 85.897 112.326 86.0826C112.668 86.2714 112.931 86.5346 113.114 86.8721C113.3 87.2191 113.376 87.6268 113.341 88.0954C113.308 88.5733 113.134 89.1032 112.82 89.6851C112.613 90.0669 112.36 90.4193 112.061 90.742C111.762 91.0648 111.447 91.3159 111.116 91.4954L110.409 90.6207C110.731 90.4286 111.013 90.2025 111.255 89.9425C111.503 89.6859 111.702 89.4181 111.853 89.1393C112.03 88.812 112.135 88.5238 112.169 88.2746C112.199 88.0315 112.177 87.8267 112.104 87.6601C112.027 87.4997 111.908 87.3747 111.746 87.2852C111.554 87.1792 111.362 87.1598 111.17 87.2269C110.98 87.3033 110.794 87.4324 110.61 87.6142C110.422 87.802 110.222 88.0141 110.008 88.2504C109.801 88.49 109.586 88.7216 109.364 88.9453C109.138 89.175 108.904 89.3641 108.66 89.5128C108.412 89.6674 108.145 89.7518 107.857 89.7659C107.565 89.7861 107.255 89.705 106.925 89.5228C106.589 89.3373 106.328 89.0711 106.141 88.7242C105.958 88.3866 105.882 87.9789 105.915 87.5009C105.954 87.0263 106.13 86.4981 106.445 85.9162Z" fill="white"/>
<path d="M102.423 92.6315L107.933 97.2788L106.041 99.5698C105.633 100.063 105.207 100.418 104.76 100.635C104.309 100.858 103.858 100.941 103.406 100.884C102.955 100.827 102.527 100.628 102.123 100.287C101.719 99.9465 101.449 99.5567 101.312 99.1179C101.176 98.6791 101.176 98.2157 101.312 97.7276C101.444 97.2448 101.713 96.7568 102.121 96.2636L103.54 94.5454L103.639 95.4117L101.568 93.6657L102.423 92.6315ZM103.529 95.3188L104.406 95.2757L103.026 96.9462C102.649 97.4023 102.461 97.824 102.462 98.2114C102.463 98.6085 102.637 98.9531 102.984 99.2452C103.335 99.5417 103.702 99.653 104.083 99.579C104.461 99.5103 104.838 99.2479 105.214 98.7918L106.594 97.1213L106.717 98.0076L103.529 95.3188Z" fill="white"/>
<path d="M96.0374 99.9101L97.9943 107.614L96.969 108.442L89.9575 104.819L91.0469 103.939L97.2563 107.294L96.8398 107.631L94.964 100.777L96.0374 99.9101ZM95.9127 102.159L96.2852 103.211L93.2573 105.656L92.3241 105.057L95.9127 102.159Z" fill="white"/>
<path d="M83.6411 108.297C84.1279 108.045 84.6218 107.891 85.1226 107.834C85.6205 107.786 86.0993 107.829 86.5591 107.964C87.0159 108.108 87.4323 108.339 87.8082 108.656C88.1841 108.974 88.4935 109.373 88.7363 109.852C88.9792 110.332 89.1182 110.819 89.1533 111.313C89.1884 111.807 89.1255 112.281 88.9647 112.737C88.8069 113.199 88.5616 113.617 88.2287 113.991C87.899 114.371 87.4877 114.688 86.9948 114.943C86.4715 115.213 85.9471 115.368 85.4216 115.407C84.8993 115.452 84.3987 115.374 83.92 115.171L84.3177 114.046C84.6766 114.178 85.0302 114.232 85.3785 114.207C85.7299 114.189 86.0729 114.093 86.4076 113.92C86.7423 113.747 87.0216 113.532 87.2454 113.277C87.4632 113.025 87.6242 112.744 87.7283 112.434C87.8264 112.127 87.8632 111.805 87.8387 111.469C87.8081 111.135 87.7087 110.803 87.5406 110.471C87.3724 110.139 87.1636 109.863 86.9139 109.642C86.6582 109.426 86.3785 109.268 86.0749 109.168C85.7653 109.072 85.4455 109.04 85.1157 109.071C84.7797 109.105 84.4444 109.208 84.1097 109.382C83.775 109.555 83.4958 109.777 83.2721 110.047C83.0514 110.324 82.8909 110.652 82.7904 111.03L81.6501 110.688C81.7708 110.184 82.0004 109.727 82.3391 109.319C82.6777 108.912 83.1117 108.571 83.6411 108.297Z" fill="white"/>
<path d="M76.9262 115.709L73.4947 116.697L73.194 115.631L76.6255 114.642L76.9262 115.709ZM75.9844 112.748L72.0895 113.87L71.7831 112.784L76.9599 111.292L78.9274 118.267L73.8887 119.719L73.5823 118.633L77.3392 117.551L75.9844 112.748Z" fill="white"/>
</g>
</svg>
